%TF.GenerationSoftware,KiCad,Pcbnew,8.0.2*%
%TF.CreationDate,2024-11-22T23:26:06-05:00*%
%TF.ProjectId,PCB_Ruler_V1_2024,5043425f-5275-46c6-9572-5f56315f3230,rev?*%
%TF.SameCoordinates,Original*%
%TF.FileFunction,Copper,L2,Bot*%
%TF.FilePolarity,Positive*%
%FSLAX46Y46*%
G04 Gerber Fmt 4.6, Leading zero omitted, Abs format (unit mm)*
G04 Created by KiCad (PCBNEW 8.0.2) date 2024-11-22 23:26:06*
%MOMM*%
%LPD*%
G01*
G04 APERTURE LIST*
G04 Aperture macros list*
%AMRoundRect*
0 Rectangle with rounded corners*
0 $1 Rounding radius*
0 $2 $3 $4 $5 $6 $7 $8 $9 X,Y pos of 4 corners*
0 Add a 4 corners polygon primitive as box body*
4,1,4,$2,$3,$4,$5,$6,$7,$8,$9,$2,$3,0*
0 Add four circle primitives for the rounded corners*
1,1,$1+$1,$2,$3*
1,1,$1+$1,$4,$5*
1,1,$1+$1,$6,$7*
1,1,$1+$1,$8,$9*
0 Add four rect primitives between the rounded corners*
20,1,$1+$1,$2,$3,$4,$5,0*
20,1,$1+$1,$4,$5,$6,$7,0*
20,1,$1+$1,$6,$7,$8,$9,0*
20,1,$1+$1,$8,$9,$2,$3,0*%
G04 Aperture macros list end*
%TA.AperFunction,ComponentPad*%
%ADD10C,1.650000*%
%TD*%
%TA.AperFunction,ComponentPad*%
%ADD11RoundRect,0.250000X-0.750000X0.600000X-0.750000X-0.600000X0.750000X-0.600000X0.750000X0.600000X0*%
%TD*%
%TA.AperFunction,ComponentPad*%
%ADD12O,2.000000X1.700000*%
%TD*%
%TA.AperFunction,ComponentPad*%
%ADD13C,0.400000*%
%TD*%
%TA.AperFunction,ComponentPad*%
%ADD14O,1.000000X2.100000*%
%TD*%
%TA.AperFunction,ComponentPad*%
%ADD15O,1.000000X1.800000*%
%TD*%
%TA.AperFunction,ViaPad*%
%ADD16C,0.600000*%
%TD*%
%TA.AperFunction,Conductor*%
%ADD17C,0.254000*%
%TD*%
%TA.AperFunction,Conductor*%
%ADD18C,0.380000*%
%TD*%
%TA.AperFunction,Conductor*%
%ADD19C,0.500000*%
%TD*%
%TA.AperFunction,Conductor*%
%ADD20C,0.200000*%
%TD*%
G04 APERTURE END LIST*
D10*
%TO.P,J4,1*%
%TO.N,INT2_IMU{slash}TX*%
X202770000Y-148000000D03*
%TO.P,J4,2*%
%TO.N,INT1_IMU{slash}RX*%
X200230000Y-148000000D03*
%TD*%
%TO.P,J5,1*%
%TO.N,IO7*%
X174730000Y-128000000D03*
%TO.P,J5,2*%
%TO.N,IO8*%
X177270000Y-128000000D03*
%TD*%
D11*
%TO.P,J2,1,+*%
%TO.N,Vbat+*%
X147850000Y-143750000D03*
D12*
%TO.P,J2,2,-*%
%TO.N,GND*%
X147850000Y-146250000D03*
%TD*%
D13*
%TO.P,U1,28,GND__10*%
%TO.N,GND*%
X237800000Y-139910000D03*
%TO.P,U1,29,GND__11*%
X237800000Y-141010000D03*
%TO.P,U1,30,GND__12*%
X237250000Y-139360000D03*
%TO.P,U1,31,GND__13*%
X237250000Y-140460000D03*
%TO.P,U1,32,GND__14*%
X237250000Y-141560000D03*
%TO.P,U1,33,GND__15*%
X236700000Y-139910000D03*
%TO.P,U1,34,GND__16*%
X236700000Y-141010000D03*
%TO.P,U1,35,GND__17*%
X236150000Y-139360000D03*
%TO.P,U1,36,GND__18*%
X236150000Y-140460000D03*
%TO.P,U1,37,GND__19*%
X236150000Y-141560000D03*
%TO.P,U1,38,GND__20*%
X235600000Y-139910000D03*
%TO.P,U1,39,GND__21*%
X235600000Y-141010000D03*
%TD*%
D14*
%TO.P,J1,S1,SHIELD*%
%TO.N,GND*%
X214680000Y-145375000D03*
D15*
X214680000Y-149575000D03*
D14*
X223320000Y-145375000D03*
D15*
X223320000Y-149575000D03*
%TD*%
D16*
%TO.N,GND*%
X180750000Y-141750000D03*
X212750000Y-127750000D03*
X233000000Y-141000000D03*
X207250000Y-143250000D03*
X185000000Y-127750000D03*
X161892855Y-147000000D03*
X169000000Y-137250000D03*
X155500000Y-141500000D03*
X182750000Y-142500000D03*
X180750000Y-148250000D03*
X158678570Y-147000000D03*
X163125000Y-127500000D03*
X174750000Y-147000000D03*
X155500000Y-127500000D03*
X240500000Y-126500000D03*
X197250000Y-144500000D03*
X160000000Y-134000000D03*
X140500000Y-136000000D03*
X242000000Y-141500000D03*
X231000000Y-128750000D03*
X184500000Y-133750000D03*
X152250000Y-131000000D03*
X223750000Y-143250000D03*
X180600000Y-130600000D03*
X204750000Y-140250000D03*
X202250000Y-131500000D03*
X228500000Y-131500000D03*
X218500000Y-131250000D03*
X162250000Y-139250000D03*
X213750000Y-138500000D03*
X210000000Y-144750000D03*
X165500000Y-132750000D03*
X202250000Y-128000000D03*
X226750000Y-137250000D03*
X235250000Y-124250000D03*
X213750000Y-135750000D03*
X242000000Y-135000000D03*
X182750000Y-145500000D03*
X137250000Y-146750000D03*
X136500000Y-128750000D03*
X148000000Y-134750000D03*
X171000000Y-137750000D03*
X184500000Y-138750000D03*
X215500000Y-143250000D03*
X200500000Y-142250000D03*
X148000000Y-129250000D03*
X165750000Y-137250000D03*
X165500000Y-142000000D03*
X207250000Y-127750000D03*
X143250000Y-136000000D03*
X171535710Y-147000000D03*
X176000000Y-131750000D03*
X220250000Y-128500000D03*
X207250000Y-145500000D03*
X216500000Y-147750000D03*
X185000000Y-148000000D03*
X151687500Y-127500000D03*
X155500000Y-135125000D03*
X242000000Y-150500000D03*
X213250000Y-131000000D03*
X166937500Y-127500000D03*
X237000000Y-133000000D03*
X188250000Y-147500000D03*
X226500000Y-150500000D03*
X196250000Y-128000000D03*
X215750000Y-127400000D03*
X177500000Y-138750000D03*
X155500000Y-133000000D03*
X227750000Y-128500000D03*
X232750000Y-137750000D03*
X184500000Y-131500000D03*
X152250000Y-147000000D03*
X155500000Y-137250000D03*
X148000000Y-132500000D03*
X203500000Y-145500000D03*
X239000000Y-150500000D03*
X193000000Y-147500000D03*
X191250000Y-128000000D03*
X159250000Y-137000000D03*
X165107140Y-147000000D03*
X155464285Y-147000000D03*
X155500000Y-139375000D03*
X219250000Y-135750000D03*
X221250000Y-147750000D03*
X239500000Y-129000000D03*
X242000000Y-138250000D03*
X177500000Y-142250000D03*
X235250000Y-129000000D03*
X168321425Y-147000000D03*
X197750000Y-146000000D03*
X202200000Y-137800000D03*
X179500000Y-135000000D03*
X159312500Y-127500000D03*
X207250000Y-138500000D03*
X200500000Y-135250000D03*
%TO.N,+5V*%
X222000000Y-143500000D03*
X216500000Y-142500000D03*
%TO.N,Vbat+*%
X186000000Y-143000000D03*
X212250000Y-141500000D03*
X199250000Y-138750000D03*
%TO.N,INT2_IMU{slash}TX*%
X233900000Y-144750000D03*
X198500000Y-142250000D03*
%TO.N,Net-(J1-CC2)*%
X221000000Y-143000000D03*
X220500000Y-140750000D03*
%TO.N,RESET_Ecran*%
X144380924Y-134077898D03*
X230500000Y-127500000D03*
%TO.N,CS_Ecran*%
X230750000Y-133750000D03*
X151500000Y-133500000D03*
%TO.N,SPI_CLK*%
X141500000Y-133750000D03*
X236750000Y-128750000D03*
%TO.N,Touch0*%
X242900000Y-146650000D03*
X138000000Y-131500000D03*
%TO.N,RS*%
X143085882Y-133895546D03*
X234000000Y-128250000D03*
%TO.N,SPI_MOSI*%
X140566386Y-133062100D03*
X238250000Y-128750000D03*
%TO.N,Touch1*%
X241400000Y-145675000D03*
X139000000Y-132000000D03*
%TO.N,INT1_IMU{slash}RX*%
X193500000Y-144250000D03*
X232400000Y-144750000D03*
%TO.N,SDA*%
X191256381Y-130930331D03*
X193250000Y-138377000D03*
X240000000Y-142750000D03*
%TO.N,SCL*%
X192500000Y-136000000D03*
X191000000Y-146250000D03*
X239250000Y-141250000D03*
X190924265Y-149424265D03*
X191500000Y-132500000D03*
%TO.N,Val_Bat*%
X237500000Y-136000000D03*
X206500000Y-135250000D03*
%TO.N,XSHUT*%
X185000000Y-132500000D03*
X187500000Y-145000000D03*
%TO.N,Button1*%
X178750000Y-130250000D03*
X168000000Y-130250000D03*
%TO.N,Button3*%
X162500000Y-135250000D03*
X177500000Y-134250000D03*
%TO.N,INT_IO_Extender*%
X190719669Y-134219669D03*
X221250000Y-134500000D03*
%TD*%
D17*
%TO.N,INT_IO_Extender*%
X192600000Y-139800000D02*
X190719669Y-137919669D01*
X220750000Y-134000000D02*
X199750000Y-134000000D01*
X199750000Y-134000000D02*
X193950000Y-139800000D01*
X193950000Y-139800000D02*
X192600000Y-139800000D01*
X221250000Y-134500000D02*
X220750000Y-134000000D01*
X190719669Y-137919669D02*
X190719669Y-134219669D01*
%TO.N,SCL*%
X192400000Y-138800000D02*
X192400000Y-136100000D01*
X192400000Y-136100000D02*
X192500000Y-136000000D01*
X193550000Y-139200000D02*
X192800000Y-139200000D01*
X199377000Y-133373000D02*
X193550000Y-139200000D01*
X221373000Y-133373000D02*
X199377000Y-133373000D01*
X192800000Y-139200000D02*
X192400000Y-138800000D01*
X238250000Y-135250000D02*
X223250000Y-135250000D01*
X239250000Y-136250000D02*
X238250000Y-135250000D01*
X239250000Y-141250000D02*
X239250000Y-136250000D01*
X223250000Y-135250000D02*
X221373000Y-133373000D01*
D18*
%TO.N,+5V*%
X216500000Y-142500000D02*
X217725000Y-143725000D01*
X221775000Y-143725000D02*
X222000000Y-143500000D01*
X217725000Y-143725000D02*
X221775000Y-143725000D01*
D19*
%TO.N,Vbat+*%
X186000000Y-143000000D02*
X185250000Y-143750000D01*
D18*
X199250000Y-139250000D02*
X199250000Y-138750000D01*
X201500000Y-141500000D02*
X199250000Y-139250000D01*
D19*
X185250000Y-143750000D02*
X147850000Y-143750000D01*
D18*
X212250000Y-141500000D02*
X201500000Y-141500000D01*
D17*
%TO.N,INT2_IMU{slash}TX*%
X216750000Y-138500000D02*
X211750000Y-143500000D01*
X209250000Y-148750000D02*
X203520000Y-148750000D01*
D20*
X202770000Y-146520000D02*
X202770000Y-148000000D01*
D17*
X227650000Y-138500000D02*
X216750000Y-138500000D01*
X211750000Y-143500000D02*
X211750000Y-146250000D01*
D20*
X198500000Y-142250000D02*
X202770000Y-146520000D01*
D17*
X233900000Y-144750000D02*
X227650000Y-138500000D01*
X211750000Y-146250000D02*
X209250000Y-148750000D01*
X203520000Y-148750000D02*
X202770000Y-148000000D01*
%TO.N,Net-(J1-CC2)*%
X221000000Y-142000000D02*
X220500000Y-141500000D01*
X221000000Y-143000000D02*
X221000000Y-142000000D01*
X220500000Y-141500000D02*
X220500000Y-140750000D01*
%TO.N,RESET_Ecran*%
X229500000Y-126500000D02*
X230500000Y-127500000D01*
X144380924Y-134077898D02*
X144380924Y-127119076D01*
X145000000Y-126500000D02*
X229500000Y-126500000D01*
X144380924Y-127119076D02*
X145000000Y-126500000D01*
%TO.N,CS_Ecran*%
X220325000Y-129500000D02*
X155500000Y-129500000D01*
X155500000Y-129500000D02*
X151500000Y-133500000D01*
X230750000Y-133750000D02*
X224575000Y-133750000D01*
X224575000Y-133750000D02*
X220325000Y-129500000D01*
%TO.N,SPI_CLK*%
X141500000Y-133750000D02*
X141500000Y-128500000D01*
X141500000Y-128500000D02*
X144500000Y-125500000D01*
X233500000Y-125500000D02*
X236750000Y-128750000D01*
X144500000Y-125500000D02*
X233500000Y-125500000D01*
%TO.N,Touch0*%
X213250000Y-147750000D02*
X210000000Y-151000000D01*
X213250000Y-144250000D02*
X213250000Y-147750000D01*
X231325000Y-146575000D02*
X224750000Y-140000000D01*
X217500000Y-140000000D02*
X213250000Y-144250000D01*
X210000000Y-151000000D02*
X147000000Y-151000000D01*
X224750000Y-140000000D02*
X217500000Y-140000000D01*
X242825000Y-146575000D02*
X231325000Y-146575000D01*
X138000000Y-142000000D02*
X138000000Y-131500000D01*
X147000000Y-151000000D02*
X138000000Y-142000000D01*
X242900000Y-146650000D02*
X242825000Y-146575000D01*
%TO.N,RS*%
X143085882Y-133895546D02*
X143016974Y-133826638D01*
X143016974Y-133826638D02*
X143016974Y-127733026D01*
X143016974Y-127733026D02*
X144750000Y-126000000D01*
X231750000Y-126000000D02*
X234000000Y-128250000D01*
X144750000Y-126000000D02*
X231750000Y-126000000D01*
%TO.N,SPI_MOSI*%
X144000000Y-125000000D02*
X234565686Y-125000000D01*
X140500000Y-128500000D02*
X144000000Y-125000000D01*
X140500000Y-132995714D02*
X140500000Y-128500000D01*
X140566386Y-133062100D02*
X140500000Y-132995714D01*
X238250000Y-128684314D02*
X238250000Y-128750000D01*
X234565686Y-125000000D02*
X238250000Y-128684314D01*
%TO.N,Touch1*%
X209800000Y-150200000D02*
X147200000Y-150200000D01*
X217250000Y-139500000D02*
X212704000Y-144046000D01*
X147200000Y-150200000D02*
X139000000Y-142000000D01*
X231875000Y-145650000D02*
X225725000Y-139500000D01*
X241375000Y-145650000D02*
X231875000Y-145650000D01*
X139000000Y-142000000D02*
X139000000Y-132000000D01*
X212704000Y-147296000D02*
X209800000Y-150200000D01*
X212704000Y-144046000D02*
X212704000Y-147296000D01*
X241400000Y-145675000D02*
X241375000Y-145650000D01*
X225725000Y-139500000D02*
X217250000Y-139500000D01*
%TO.N,INT1_IMU{slash}RX*%
X232400000Y-144750000D02*
X226650000Y-139000000D01*
X226650000Y-139000000D02*
X217000000Y-139000000D01*
X212250000Y-146750000D02*
X209500000Y-149500000D01*
X193500000Y-144250000D02*
X197250000Y-148000000D01*
X197250000Y-148000000D02*
X200230000Y-148000000D01*
X217000000Y-139000000D02*
X212250000Y-143750000D01*
X201730000Y-149500000D02*
X200230000Y-148000000D01*
X209500000Y-149500000D02*
X201730000Y-149500000D01*
X212250000Y-143750000D02*
X212250000Y-146750000D01*
%TO.N,SDA*%
X240000000Y-135863288D02*
X238636712Y-134500000D01*
X238636712Y-134500000D02*
X224000000Y-134500000D01*
X198877000Y-132750000D02*
X193250000Y-138377000D01*
X193250000Y-132923950D02*
X193250000Y-138377000D01*
X191256381Y-130930331D02*
X193250000Y-132923950D01*
X222250000Y-132750000D02*
X198877000Y-132750000D01*
X240000000Y-142750000D02*
X240000000Y-135863288D01*
X224000000Y-134500000D02*
X222250000Y-132750000D01*
%TO.N,SCL*%
X191500000Y-132500000D02*
X192500000Y-133500000D01*
X191000000Y-149348530D02*
X191000000Y-146250000D01*
X192500000Y-133500000D02*
X192500000Y-136000000D01*
X190924265Y-149424265D02*
X191000000Y-149348530D01*
%TO.N,Val_Bat*%
X221750000Y-136000000D02*
X237500000Y-136000000D01*
X207000000Y-134750000D02*
X220500000Y-134750000D01*
X220500000Y-134750000D02*
X221750000Y-136000000D01*
X206500000Y-135250000D02*
X207000000Y-134750000D01*
%TO.N,XSHUT*%
X185000000Y-132500000D02*
X187500000Y-135000000D01*
X187500000Y-135000000D02*
X187500000Y-145000000D01*
%TO.N,Button1*%
X168000000Y-130250000D02*
X178750000Y-130250000D01*
%TO.N,Button3*%
X177500000Y-134250000D02*
X163500000Y-134250000D01*
X163500000Y-134250000D02*
X162500000Y-135250000D01*
%TD*%
%TA.AperFunction,Conductor*%
%TO.N,GND*%
G36*
X220080758Y-130147185D02*
G01*
X220101400Y-130163819D01*
X221848400Y-131910819D01*
X221881885Y-131972142D01*
X221876901Y-132041834D01*
X221835029Y-132097767D01*
X221769565Y-132122184D01*
X221760719Y-132122500D01*
X198815192Y-132122500D01*
X198693973Y-132146611D01*
X198693973Y-132146612D01*
X198693970Y-132146613D01*
X198693966Y-132146614D01*
X198627070Y-132174323D01*
X198627068Y-132174323D01*
X198579770Y-132193915D01*
X198476989Y-132262590D01*
X198476988Y-132262591D01*
X194089181Y-136650399D01*
X194027858Y-136683884D01*
X193958166Y-136678900D01*
X193902233Y-136637028D01*
X193877816Y-136571564D01*
X193877500Y-136562718D01*
X193877500Y-132862146D01*
X193877499Y-132862145D01*
X193866038Y-132804523D01*
X193866038Y-132804520D01*
X193853387Y-132740922D01*
X193853386Y-132740915D01*
X193825729Y-132674147D01*
X193815956Y-132650552D01*
X193815946Y-132650531D01*
X193815934Y-132650500D01*
X193806083Y-132626717D01*
X193737414Y-132523946D01*
X193737413Y-132523944D01*
X193713465Y-132499996D01*
X193650008Y-132436539D01*
X192082233Y-130868764D01*
X192048748Y-130807441D01*
X192046695Y-130794979D01*
X192041749Y-130751076D01*
X191982170Y-130580809D01*
X191886197Y-130428069D01*
X191797309Y-130339181D01*
X191763824Y-130277858D01*
X191768808Y-130208166D01*
X191810680Y-130152233D01*
X191876144Y-130127816D01*
X191884990Y-130127500D01*
X220013719Y-130127500D01*
X220080758Y-130147185D01*
G37*
%TD.AperFunction*%
%TA.AperFunction,Conductor*%
G36*
X243943039Y-123020185D02*
G01*
X243988794Y-123072989D01*
X244000000Y-123124500D01*
X244000000Y-151875500D01*
X243980315Y-151942539D01*
X243927511Y-151988294D01*
X243876000Y-151999500D01*
X99124500Y-151999500D01*
X99057461Y-151979815D01*
X99011706Y-151927011D01*
X99000500Y-151875500D01*
X99000500Y-131499996D01*
X137194435Y-131499996D01*
X137194435Y-131500003D01*
X137214630Y-131679249D01*
X137214631Y-131679254D01*
X137274211Y-131849524D01*
X137312726Y-131910819D01*
X137351258Y-131972142D01*
X137353493Y-131975698D01*
X137372500Y-132041671D01*
X137372500Y-142061807D01*
X137396612Y-142183027D01*
X137396614Y-142183035D01*
X137430062Y-142263785D01*
X137435014Y-142275739D01*
X137443917Y-142297233D01*
X137512209Y-142399440D01*
X137512229Y-142399501D01*
X137512244Y-142399492D01*
X137512585Y-142400004D01*
X137512593Y-142400013D01*
X146512589Y-151400008D01*
X146599992Y-151487411D01*
X146599993Y-151487412D01*
X146702760Y-151556079D01*
X146702773Y-151556086D01*
X146816960Y-151603383D01*
X146816965Y-151603385D01*
X146816969Y-151603385D01*
X146816970Y-151603386D01*
X146938194Y-151627500D01*
X146938197Y-151627500D01*
X210061804Y-151627500D01*
X210061805Y-151627499D01*
X210183035Y-151603386D01*
X210263784Y-151569937D01*
X210297233Y-151556083D01*
X210400008Y-151487411D01*
X210487411Y-151400008D01*
X212810915Y-149076504D01*
X213680000Y-149076504D01*
X213680000Y-149325000D01*
X214380000Y-149325000D01*
X214380000Y-149825000D01*
X213680000Y-149825000D01*
X213680000Y-150073495D01*
X213718427Y-150266681D01*
X213718430Y-150266693D01*
X213793807Y-150448671D01*
X213793814Y-150448684D01*
X213903248Y-150612462D01*
X213903251Y-150612466D01*
X214042533Y-150751748D01*
X214042537Y-150751751D01*
X214206315Y-150861185D01*
X214206328Y-150861192D01*
X214388308Y-150936569D01*
X214430000Y-150944862D01*
X214430000Y-150141988D01*
X214439940Y-150159205D01*
X214495795Y-150215060D01*
X214564204Y-150254556D01*
X214640504Y-150275000D01*
X214719496Y-150275000D01*
X214795796Y-150254556D01*
X214864205Y-150215060D01*
X214920060Y-150159205D01*
X214930000Y-150141988D01*
X214930000Y-150944862D01*
X214971690Y-150936569D01*
X214971692Y-150936569D01*
X215153671Y-150861192D01*
X215153684Y-150861185D01*
X215317462Y-150751751D01*
X215317466Y-150751748D01*
X215456748Y-150612466D01*
X215456751Y-150612462D01*
X215566185Y-150448684D01*
X215566192Y-150448671D01*
X215641569Y-150266693D01*
X215641572Y-150266681D01*
X215679999Y-150073495D01*
X215680000Y-150073492D01*
X215680000Y-149825000D01*
X214980000Y-149825000D01*
X214980000Y-149325000D01*
X215680000Y-149325000D01*
X215680000Y-149076508D01*
X215679999Y-149076504D01*
X222320000Y-149076504D01*
X222320000Y-149325000D01*
X223020000Y-149325000D01*
X223020000Y-149825000D01*
X222320000Y-149825000D01*
X222320000Y-150073495D01*
X222358427Y-150266681D01*
X222358430Y-150266693D01*
X222433807Y-150448671D01*
X222433814Y-150448684D01*
X222543248Y-150612462D01*
X222543251Y-150612466D01*
X222682533Y-150751748D01*
X222682537Y-150751751D01*
X222846315Y-150861185D01*
X222846328Y-150861192D01*
X223028308Y-150936569D01*
X223070000Y-150944862D01*
X223070000Y-150141988D01*
X223079940Y-150159205D01*
X223135795Y-150215060D01*
X223204204Y-150254556D01*
X223280504Y-150275000D01*
X223359496Y-150275000D01*
X223435796Y-150254556D01*
X223504205Y-150215060D01*
X223560060Y-150159205D01*
X223570000Y-150141988D01*
X223570000Y-150944862D01*
X223611690Y-150936569D01*
X223611692Y-150936569D01*
X223793671Y-150861192D01*
X223793684Y-150861185D01*
X223957462Y-150751751D01*
X223957466Y-150751748D01*
X224096748Y-150612466D01*
X224096751Y-150612462D01*
X224206185Y-150448684D01*
X224206192Y-150448671D01*
X224281569Y-150266693D01*
X224281572Y-150266681D01*
X224319999Y-150073495D01*
X224320000Y-150073492D01*
X224320000Y-149825000D01*
X223620000Y-149825000D01*
X223620000Y-149325000D01*
X224320000Y-149325000D01*
X224320000Y-149076508D01*
X224319999Y-149076504D01*
X224281572Y-148883318D01*
X224281569Y-148883306D01*
X224206192Y-148701328D01*
X224206185Y-148701315D01*
X224096751Y-148537537D01*
X224096748Y-148537533D01*
X223957466Y-148398251D01*
X223957462Y-148398248D01*
X223793684Y-148288814D01*
X223793671Y-148288807D01*
X223611691Y-148213429D01*
X223611683Y-148213427D01*
X223570000Y-148205135D01*
X223570000Y-149008011D01*
X223560060Y-148990795D01*
X223504205Y-148934940D01*
X223435796Y-148895444D01*
X223359496Y-148875000D01*
X223280504Y-148875000D01*
X223204204Y-148895444D01*
X223135795Y-148934940D01*
X223079940Y-148990795D01*
X223070000Y-149008011D01*
X223070000Y-148205136D01*
X223069999Y-148205135D01*
X223028316Y-148213427D01*
X223028308Y-148213429D01*
X222846328Y-148288807D01*
X222846315Y-148288814D01*
X222682537Y-148398248D01*
X222682533Y-148398251D01*
X222543251Y-148537533D01*
X222543248Y-148537537D01*
X222433814Y-148701315D01*
X222433807Y-148701328D01*
X222358430Y-148883306D01*
X222358427Y-148883318D01*
X222320000Y-149076504D01*
X215679999Y-149076504D01*
X215641572Y-148883318D01*
X215641569Y-148883306D01*
X215566192Y-148701328D01*
X215566185Y-148701315D01*
X215456751Y-148537537D01*
X215456748Y-148537533D01*
X215317466Y-148398251D01*
X215317462Y-148398248D01*
X215153684Y-148288814D01*
X215153671Y-148288807D01*
X214971691Y-148213429D01*
X214971683Y-148213427D01*
X214930000Y-148205135D01*
X214930000Y-149008011D01*
X214920060Y-148990795D01*
X214864205Y-148934940D01*
X214795796Y-148895444D01*
X214719496Y-148875000D01*
X214640504Y-148875000D01*
X214564204Y-148895444D01*
X214495795Y-148934940D01*
X214439940Y-148990795D01*
X214430000Y-149008011D01*
X214430000Y-148205136D01*
X214429999Y-148205135D01*
X214388316Y-148213427D01*
X214388308Y-148213429D01*
X214206328Y-148288807D01*
X214206315Y-148288814D01*
X214042537Y-148398248D01*
X214042533Y-148398251D01*
X213903251Y-148537533D01*
X213903248Y-148537537D01*
X213793814Y-148701315D01*
X213793807Y-148701328D01*
X213718430Y-148883306D01*
X213718427Y-148883318D01*
X213680000Y-149076504D01*
X212810915Y-149076504D01*
X213737411Y-148150008D01*
X213768510Y-148103465D01*
X213806083Y-148047233D01*
X213853385Y-147933035D01*
X213877500Y-147811803D01*
X213877500Y-146823464D01*
X213897185Y-146756425D01*
X213949989Y-146710670D01*
X214019147Y-146700726D01*
X214070391Y-146720362D01*
X214206316Y-146811185D01*
X214206328Y-146811192D01*
X214388308Y-146886569D01*
X214430000Y-146894862D01*
X214430000Y-146091988D01*
X214439940Y-146109205D01*
X214495795Y-146165060D01*
X214564204Y-146204556D01*
X214640504Y-146225000D01*
X214719496Y-146225000D01*
X214795796Y-146204556D01*
X214864205Y-146165060D01*
X214920060Y-146109205D01*
X214930000Y-146091988D01*
X214930000Y-146894862D01*
X214971690Y-146886569D01*
X214971692Y-146886569D01*
X215153671Y-146811192D01*
X215153684Y-146811185D01*
X215317462Y-146701751D01*
X215317466Y-146701748D01*
X215456748Y-146562466D01*
X215456751Y-146562462D01*
X215566181Y-146398690D01*
X215569037Y-146393346D01*
X215617993Y-146343495D01*
X215686128Y-146328025D01*
X215751811Y-146351847D01*
X215753895Y-146353412D01*
X215756632Y-146355512D01*
X215756635Y-146355515D01*
X215887865Y-146431281D01*
X216034234Y-146470500D01*
X216034236Y-146470500D01*
X216185764Y-146470500D01*
X216185766Y-146470500D01*
X216332135Y-146431281D01*
X216463365Y-146355515D01*
X216570515Y-146248365D01*
X216646281Y-146117135D01*
X216685500Y-145970766D01*
X216685500Y-145819234D01*
X216646281Y-145672865D01*
X216570515Y-145541635D01*
X216463365Y-145434485D01*
X216353999Y-145371342D01*
X216332136Y-145358719D01*
X216258950Y-145339109D01*
X216185766Y-145319500D01*
X216034234Y-145319500D01*
X215887865Y-145358719D01*
X215887864Y-145358719D01*
X215887862Y-145358720D01*
X215887861Y-145358720D01*
X215866000Y-145371342D01*
X215798099Y-145387815D01*
X215732073Y-145364962D01*
X215688882Y-145310041D01*
X215680000Y-145263955D01*
X215680000Y-144726508D01*
X215679999Y-144726504D01*
X215641572Y-144533318D01*
X215641569Y-144533306D01*
X215566192Y-144351328D01*
X215566185Y-144351315D01*
X215456751Y-144187537D01*
X215456748Y-144187533D01*
X215317466Y-144048251D01*
X215317462Y-144048248D01*
X215153684Y-143938814D01*
X215153671Y-143938807D01*
X214971693Y-143863430D01*
X214971681Y-143863427D01*
X214825796Y-143834409D01*
X214763885Y-143802025D01*
X214729311Y-143741309D01*
X214733050Y-143671539D01*
X214762303Y-143625115D01*
X215573825Y-142813592D01*
X215635146Y-142780109D01*
X215704838Y-142785093D01*
X215760771Y-142826965D01*
X215773225Y-142847475D01*
X215774210Y-142849522D01*
X215861724Y-142988798D01*
X215870184Y-143002262D01*
X215997738Y-143129816D01*
X216150478Y-143225789D01*
X216275740Y-143269619D01*
X216322466Y-143298980D01*
X217188654Y-144165168D01*
X217249275Y-144225789D01*
X217284833Y-144261347D01*
X217397919Y-144336909D01*
X217397932Y-144336916D01*
X217523584Y-144388962D01*
X217523589Y-144388964D01*
X217523593Y-144388964D01*
X217523594Y-144388965D01*
X217656989Y-144415500D01*
X217656992Y-144415500D01*
X221843010Y-144415500D01*
X221932756Y-144397647D01*
X221976412Y-144388964D01*
X222102074Y-144336913D01*
X222166091Y-144294137D01*
X222194016Y-144280202D01*
X222247352Y-144261539D01*
X222317127Y-144257979D01*
X222377754Y-144292708D01*
X222409981Y-144354701D01*
X222403576Y-144424277D01*
X222402864Y-144426034D01*
X222358428Y-144533315D01*
X222358427Y-144533318D01*
X222320000Y-144726504D01*
X222320000Y-145263955D01*
X222300315Y-145330994D01*
X222247511Y-145376749D01*
X222178353Y-145386693D01*
X222134000Y-145371342D01*
X222112138Y-145358720D01*
X222112135Y-145358719D01*
X221965766Y-145319500D01*
X221814234Y-145319500D01*
X221667863Y-145358719D01*
X221536635Y-145434485D01*
X221536632Y-145434487D01*
X221429487Y-145541632D01*
X221429485Y-145541635D01*
X221353719Y-145672863D01*
X221353146Y-145675003D01*
X221314500Y-145819234D01*
X221314500Y-145970766D01*
X221331751Y-146035149D01*
X221353719Y-146117136D01*
X221391602Y-146182750D01*
X221429485Y-146248365D01*
X221536635Y-146355515D01*
X221667865Y-146431281D01*
X221814234Y-146470500D01*
X221814236Y-146470500D01*
X221965764Y-146470500D01*
X221965766Y-146470500D01*
X222112135Y-146431281D01*
X222243365Y-146355515D01*
X222243373Y-146355506D01*
X222246105Y-146353412D01*
X222248834Y-146352356D01*
X222250403Y-146351451D01*
X222250544Y-146351695D01*
X222311274Y-146328215D01*
X222379719Y-146342251D01*
X222429710Y-146391064D01*
X222430955Y-146393335D01*
X222433812Y-146398680D01*
X222543248Y-146562462D01*
X222543251Y-146562466D01*
X222682533Y-146701748D01*
X222682537Y-146701751D01*
X222846315Y-146811185D01*
X222846328Y-146811192D01*
X223028308Y-146886569D01*
X223070000Y-146894862D01*
X223070000Y-146091988D01*
X223079940Y-146109205D01*
X223135795Y-146165060D01*
X223204204Y-146204556D01*
X223280504Y-146225000D01*
X223359496Y-146225000D01*
X223435796Y-146204556D01*
X223504205Y-146165060D01*
X223560060Y-146109205D01*
X223570000Y-146091988D01*
X223570000Y-146894862D01*
X223611690Y-146886569D01*
X223611692Y-146886569D01*
X223793671Y-146811192D01*
X223793684Y-146811185D01*
X223957462Y-146701751D01*
X223957466Y-146701748D01*
X224096748Y-146562466D01*
X224096751Y-146562462D01*
X224206185Y-146398684D01*
X224206192Y-146398671D01*
X224281569Y-146216693D01*
X224281572Y-146216681D01*
X224319999Y-146023495D01*
X224320000Y-146023492D01*
X224320000Y-145625000D01*
X223620000Y-145625000D01*
X223620000Y-145125000D01*
X224320000Y-145125000D01*
X224320000Y-144726508D01*
X224319999Y-144726504D01*
X224281572Y-144533318D01*
X224281569Y-144533306D01*
X224206192Y-144351328D01*
X224206185Y-144351315D01*
X224096751Y-144187537D01*
X224096748Y-144187533D01*
X223957466Y-144048251D01*
X223957462Y-144048248D01*
X223793684Y-143938814D01*
X223793671Y-143938807D01*
X223611691Y-143863429D01*
X223611683Y-143863427D01*
X223570000Y-143855135D01*
X223570000Y-144658011D01*
X223560060Y-144640795D01*
X223504205Y-144584940D01*
X223435796Y-144545444D01*
X223359496Y-144525000D01*
X223280504Y-144525000D01*
X223204204Y-144545444D01*
X223135795Y-144584940D01*
X223079940Y-144640795D01*
X223070000Y-144658011D01*
X223070000Y-143855136D01*
X223069999Y-143855135D01*
X223028316Y-143863427D01*
X223028313Y-143863428D01*
X222924835Y-143906289D01*
X222855366Y-143913757D01*
X222792887Y-143882481D01*
X222757235Y-143822392D01*
X222759730Y-143752566D01*
X222760343Y-143750771D01*
X222761405Y-143747738D01*
X222785368Y-143679255D01*
X222785369Y-143679249D01*
X222805565Y-143500003D01*
X222805565Y-143499996D01*
X222785369Y-143320750D01*
X222785368Y-143320745D01*
X222744086Y-143202767D01*
X222725789Y-143150478D01*
X222629816Y-142997738D01*
X222502262Y-142870184D01*
X222439365Y-142830663D01*
X222349523Y-142774211D01*
X222179254Y-142714631D01*
X222179249Y-142714630D01*
X222000004Y-142694435D01*
X221999996Y-142694435D01*
X221847136Y-142711657D01*
X221778314Y-142699602D01*
X221728259Y-142654409D01*
X221646506Y-142524300D01*
X221627500Y-142458328D01*
X221627500Y-141938202D01*
X221627500Y-141938197D01*
X221626771Y-141934530D01*
X221626769Y-141934518D01*
X221626769Y-141934517D01*
X221603387Y-141816971D01*
X221603386Y-141816970D01*
X221603386Y-141816966D01*
X221570433Y-141737411D01*
X221570433Y-141737410D01*
X221556086Y-141702773D01*
X221556079Y-141702760D01*
X221487412Y-141599993D01*
X221447418Y-141559999D01*
X221400008Y-141512589D01*
X221203545Y-141316126D01*
X221170060Y-141254803D01*
X221175044Y-141185111D01*
X221186225Y-141162485D01*
X221225789Y-141099522D01*
X221285368Y-140929255D01*
X221285844Y-140925032D01*
X221306345Y-140743081D01*
X221307982Y-140743265D01*
X221325250Y-140684461D01*
X221378054Y-140638706D01*
X221429565Y-140627500D01*
X224438719Y-140627500D01*
X224505758Y-140647185D01*
X224526400Y-140663819D01*
X230837589Y-146975008D01*
X230924992Y-147062411D01*
X230924993Y-147062412D01*
X231027760Y-147131079D01*
X231027773Y-147131086D01*
X231141960Y-147178383D01*
X231141965Y-147178385D01*
X231141969Y-147178385D01*
X231141970Y-147178386D01*
X231263194Y-147202500D01*
X231263197Y-147202500D01*
X242269060Y-147202500D01*
X242336099Y-147222185D01*
X242356741Y-147238819D01*
X242397738Y-147279816D01*
X242485108Y-147334714D01*
X242545243Y-147372500D01*
X242550478Y-147375789D01*
X242670287Y-147417712D01*
X242720745Y-147435368D01*
X242720750Y-147435369D01*
X242899996Y-147455565D01*
X242900000Y-147455565D01*
X242900004Y-147455565D01*
X243079249Y-147435369D01*
X243079252Y-147435368D01*
X243079255Y-147435368D01*
X243249522Y-147375789D01*
X243402262Y-147279816D01*
X243529816Y-147152262D01*
X243625789Y-146999522D01*
X243685368Y-146829255D01*
X243685369Y-146829249D01*
X243705565Y-146650003D01*
X243705565Y-146649996D01*
X243685369Y-146470750D01*
X243685368Y-146470745D01*
X243675657Y-146442993D01*
X243625789Y-146300478D01*
X243529816Y-146147738D01*
X243402262Y-146020184D01*
X243379303Y-146005758D01*
X243249523Y-145924211D01*
X243079254Y-145864631D01*
X243079249Y-145864630D01*
X242900004Y-145844435D01*
X242899996Y-145844435D01*
X242720750Y-145864630D01*
X242720745Y-145864631D01*
X242550474Y-145924212D01*
X242543660Y-145928494D01*
X242477689Y-145947500D01*
X242313618Y-145947500D01*
X242246579Y-145927815D01*
X242200824Y-145875011D01*
X242190398Y-145809617D01*
X242205565Y-145675003D01*
X242205565Y-145674996D01*
X242185369Y-145495750D01*
X242185368Y-145495745D01*
X242163932Y-145434485D01*
X242125789Y-145325478D01*
X242087131Y-145263955D01*
X242029815Y-145172737D01*
X241902262Y-145045184D01*
X241749523Y-144949211D01*
X241579254Y-144889631D01*
X241579249Y-144889630D01*
X241400004Y-144869435D01*
X241399996Y-144869435D01*
X241220750Y-144889630D01*
X241220737Y-144889633D01*
X241050481Y-144949209D01*
X241050477Y-144949210D01*
X240964087Y-145003494D01*
X240898115Y-145022500D01*
X234813618Y-145022500D01*
X234746579Y-145002815D01*
X234700824Y-144950011D01*
X234690398Y-144884617D01*
X234705565Y-144750003D01*
X234705565Y-144749996D01*
X234685369Y-144570750D01*
X234685368Y-144570745D01*
X234672271Y-144533315D01*
X234625789Y-144400478D01*
X234625489Y-144400001D01*
X234558972Y-144294139D01*
X234529816Y-144247738D01*
X234402262Y-144120184D01*
X234393428Y-144114633D01*
X234249521Y-144024210D01*
X234079249Y-143964630D01*
X234035361Y-143959685D01*
X233970947Y-143932617D01*
X233961565Y-143924146D01*
X232213221Y-142175801D01*
X235817039Y-142175801D01*
X235899955Y-142219318D01*
X236065006Y-142260000D01*
X236234994Y-142260000D01*
X236400044Y-142219318D01*
X236482959Y-142175801D01*
X236917039Y-142175801D01*
X236999955Y-142219318D01*
X237165006Y-142260000D01*
X237334994Y-142260000D01*
X237500044Y-142219318D01*
X237582959Y-142175801D01*
X237250001Y-141842843D01*
X237250000Y-141842843D01*
X236917039Y-142175801D01*
X236482959Y-142175801D01*
X236150001Y-141842843D01*
X236150000Y-141842843D01*
X235817039Y-142175801D01*
X232213221Y-142175801D01*
X231663221Y-141625801D01*
X235267039Y-141625801D01*
X235349953Y-141669317D01*
X235389193Y-141678989D01*
X235449574Y-141714144D01*
X235475461Y-141755414D01*
X235525629Y-141887694D01*
X235531277Y-141895878D01*
X235867157Y-141560000D01*
X235867157Y-141559999D01*
X235837321Y-141530163D01*
X236000000Y-141530163D01*
X236000000Y-141589837D01*
X236022836Y-141644968D01*
X236065032Y-141687164D01*
X236120163Y-141710000D01*
X236179837Y-141710000D01*
X236234968Y-141687164D01*
X236277164Y-141644968D01*
X236300000Y-141589837D01*
X236300000Y-141560000D01*
X236432843Y-141560000D01*
X236700000Y-141827157D01*
X236967157Y-141560000D01*
X236937320Y-141530163D01*
X237100000Y-141530163D01*
X237100000Y-141589837D01*
X237122836Y-141644968D01*
X237165032Y-141687164D01*
X237220163Y-141710000D01*
X237279837Y-141710000D01*
X237334968Y-141687164D01*
X237377164Y-141644968D01*
X237400000Y-141589837D01*
X237400000Y-141560000D01*
X237532843Y-141560000D01*
X237868721Y-141895879D01*
X237874371Y-141887693D01*
X237924538Y-141755415D01*
X237966716Y-141699712D01*
X238010807Y-141678989D01*
X238050043Y-141669318D01*
X238132959Y-141625801D01*
X237800000Y-141292843D01*
X237532843Y-141560000D01*
X237400000Y-141560000D01*
X237400000Y-141530163D01*
X237377164Y-141475032D01*
X237334968Y-141432836D01*
X237279837Y-141410000D01*
X237220163Y-141410000D01*
X237165032Y-141432836D01*
X237122836Y-141475032D01*
X237100000Y-141530163D01*
X236937320Y-141530163D01*
X236700000Y-141292843D01*
X236432843Y-141560000D01*
X236300000Y-141560000D01*
X236300000Y-141530163D01*
X236277164Y-141475032D01*
X236234968Y-141432836D01*
X236179837Y-141410000D01*
X236120163Y-141410000D01*
X236065032Y-141432836D01*
X236022836Y-141475032D01*
X236000000Y-141530163D01*
X235837321Y-141530163D01*
X235600001Y-141292843D01*
X235600000Y-141292843D01*
X235267039Y-141625801D01*
X231663221Y-141625801D01*
X231047419Y-141009999D01*
X234894859Y-141009999D01*
X234894859Y-141010000D01*
X234915348Y-141178748D01*
X234915349Y-141178751D01*
X234975629Y-141337694D01*
X234981277Y-141345878D01*
X235317157Y-141010000D01*
X235317157Y-141009999D01*
X235287321Y-140980163D01*
X235450000Y-140980163D01*
X235450000Y-141039837D01*
X235472836Y-141094968D01*
X235515032Y-141137164D01*
X235570163Y-141160000D01*
X235629837Y-141160000D01*
X235684968Y-141137164D01*
X235727164Y-141094968D01*
X235750000Y-141039837D01*
X235750000Y-141010000D01*
X235882843Y-141010000D01*
X236150000Y-141277157D01*
X236417157Y-141010000D01*
X236387320Y-140980163D01*
X236550000Y-140980163D01*
X236550000Y-141039837D01*
X236572836Y-141094968D01*
X236615032Y-141137164D01*
X236670163Y-141160000D01*
X236729837Y-141160000D01*
X236784968Y-141137164D01*
X236827164Y-141094968D01*
X236850000Y-141039837D01*
X236850000Y-141010000D01*
X236982843Y-141010000D01*
X237250000Y-141277157D01*
X237517157Y-141010000D01*
X237487320Y-140980163D01*
X237650000Y-140980163D01*
X237650000Y-141039837D01*
X237672836Y-141094968D01*
X237715032Y-141137164D01*
X237770163Y-141160000D01*
X237829837Y-141160000D01*
X237884968Y-141137164D01*
X237927164Y-141094968D01*
X237950000Y-141039837D01*
X237950000Y-140980163D01*
X237927164Y-140925032D01*
X237884968Y-140882836D01*
X237829837Y-140860000D01*
X237770163Y-140860000D01*
X237715032Y-140882836D01*
X237672836Y-140925032D01*
X237650000Y-140980163D01*
X237487320Y-140980163D01*
X237250000Y-140742843D01*
X236982843Y-141010000D01*
X236850000Y-141010000D01*
X236850000Y-140980163D01*
X236827164Y-140925032D01*
X236784968Y-140882836D01*
X236729837Y-140860000D01*
X236670163Y-140860000D01*
X236615032Y-140882836D01*
X236572836Y-140925032D01*
X236550000Y-140980163D01*
X236387320Y-140980163D01*
X236150000Y-140742843D01*
X235882843Y-141010000D01*
X235750000Y-141010000D01*
X235750000Y-140980163D01*
X235727164Y-140925032D01*
X235684968Y-140882836D01*
X235629837Y-140860000D01*
X235570163Y-140860000D01*
X235515032Y-140882836D01*
X235472836Y-140925032D01*
X235450000Y-140980163D01*
X235287321Y-140980163D01*
X234981277Y-140674119D01*
X234975629Y-140682303D01*
X234975628Y-140682306D01*
X234915349Y-140841245D01*
X234915348Y-140841251D01*
X234894859Y-141009999D01*
X231047419Y-141009999D01*
X230497420Y-140460000D01*
X235332843Y-140460000D01*
X235600000Y-140727157D01*
X235867157Y-140460000D01*
X235837320Y-140430163D01*
X236000000Y-140430163D01*
X236000000Y-140489837D01*
X236022836Y-140544968D01*
X236065032Y-140587164D01*
X236120163Y-140610000D01*
X236179837Y-140610000D01*
X236234968Y-140587164D01*
X236277164Y-140544968D01*
X236300000Y-140489837D01*
X236300000Y-140460000D01*
X236432843Y-140460000D01*
X236700000Y-140727157D01*
X236967157Y-140460000D01*
X236937320Y-140430163D01*
X237100000Y-140430163D01*
X237100000Y-140489837D01*
X237122836Y-140544968D01*
X237165032Y-140587164D01*
X237220163Y-140610000D01*
X237279837Y-140610000D01*
X237334968Y-140587164D01*
X237377164Y-140544968D01*
X237400000Y-140489837D01*
X237400000Y-140460000D01*
X237532843Y-140460000D01*
X237800000Y-140727157D01*
X238067157Y-140460000D01*
X237800000Y-140192843D01*
X237532843Y-140460000D01*
X237400000Y-140460000D01*
X237400000Y-140430163D01*
X237377164Y-140375032D01*
X237334968Y-140332836D01*
X237279837Y-140310000D01*
X237220163Y-140310000D01*
X237165032Y-140332836D01*
X237122836Y-140375032D01*
X237100000Y-140430163D01*
X236937320Y-140430163D01*
X236700000Y-140192843D01*
X236432843Y-140460000D01*
X236300000Y-140460000D01*
X236300000Y-140430163D01*
X236277164Y-140375032D01*
X236234968Y-140332836D01*
X236179837Y-140310000D01*
X236120163Y-140310000D01*
X236065032Y-140332836D01*
X236022836Y-140375032D01*
X236000000Y-140430163D01*
X235837320Y-140430163D01*
X235600000Y-140192843D01*
X235332843Y-140460000D01*
X230497420Y-140460000D01*
X229947419Y-139909999D01*
X234894859Y-139909999D01*
X234894859Y-139910000D01*
X234915348Y-140078748D01*
X234915349Y-140078751D01*
X234975629Y-140237694D01*
X234981277Y-140245878D01*
X235317157Y-139910000D01*
X235317157Y-139909999D01*
X235287321Y-139880163D01*
X235450000Y-139880163D01*
X235450000Y-139939837D01*
X235472836Y-139994968D01*
X235515032Y-140037164D01*
X235570163Y-140060000D01*
X235629837Y-140060000D01*
X235684968Y-140037164D01*
X235727164Y-139994968D01*
X235750000Y-139939837D01*
X235750000Y-139910000D01*
X235882843Y-139910000D01*
X236150000Y-140177157D01*
X236417157Y-139910000D01*
X236387320Y-139880163D01*
X236550000Y-139880163D01*
X236550000Y-139939837D01*
X236572836Y-139994968D01*
X236615032Y-140037164D01*
X236670163Y-140060000D01*
X236729837Y-140060000D01*
X236784968Y-140037164D01*
X236827164Y-139994968D01*
X236850000Y-139939837D01*
X236850000Y-139910000D01*
X236982843Y-139910000D01*
X237250000Y-140177157D01*
X237517157Y-139910000D01*
X237487320Y-139880163D01*
X237650000Y-139880163D01*
X237650000Y-139939837D01*
X237672836Y-139994968D01*
X237715032Y-140037164D01*
X237770163Y-140060000D01*
X237829837Y-140060000D01*
X237884968Y-140037164D01*
X237927164Y-139994968D01*
X237950000Y-139939837D01*
X237950000Y-139880163D01*
X237927164Y-139825032D01*
X237884968Y-139782836D01*
X237829837Y-139760000D01*
X237770163Y-139760000D01*
X237715032Y-139782836D01*
X237672836Y-139825032D01*
X237650000Y-139880163D01*
X237487320Y-139880163D01*
X237250000Y-139642843D01*
X236982843Y-139910000D01*
X236850000Y-139910000D01*
X236850000Y-139880163D01*
X236827164Y-139825032D01*
X236784968Y-139782836D01*
X236729837Y-139760000D01*
X236670163Y-139760000D01*
X236615032Y-139782836D01*
X236572836Y-139825032D01*
X236550000Y-139880163D01*
X236387320Y-139880163D01*
X236150000Y-139642843D01*
X235882843Y-139910000D01*
X235750000Y-139910000D01*
X235750000Y-139880163D01*
X235727164Y-139825032D01*
X235684968Y-139782836D01*
X235629837Y-139760000D01*
X235570163Y-139760000D01*
X235515032Y-139782836D01*
X235472836Y-139825032D01*
X235450000Y-139880163D01*
X235287321Y-139880163D01*
X234981277Y-139574119D01*
X234975629Y-139582303D01*
X234975628Y-139582306D01*
X234915349Y-139741245D01*
X234915348Y-139741251D01*
X234894859Y-139909999D01*
X229947419Y-139909999D01*
X229331616Y-139294196D01*
X235267039Y-139294196D01*
X235600000Y-139627157D01*
X235867157Y-139360000D01*
X235867157Y-139359999D01*
X235837321Y-139330163D01*
X236000000Y-139330163D01*
X236000000Y-139389837D01*
X236022836Y-139444968D01*
X236065032Y-139487164D01*
X236120163Y-139510000D01*
X236179837Y-139510000D01*
X236234968Y-139487164D01*
X236277164Y-139444968D01*
X236300000Y-139389837D01*
X236300000Y-139360000D01*
X236432843Y-139360000D01*
X236700000Y-139627157D01*
X236967157Y-139360000D01*
X236937320Y-139330163D01*
X237100000Y-139330163D01*
X237100000Y-139389837D01*
X237122836Y-139444968D01*
X237165032Y-139487164D01*
X237220163Y-139510000D01*
X237279837Y-139510000D01*
X237334968Y-139487164D01*
X237377164Y-139444968D01*
X237400000Y-139389837D01*
X237400000Y-139359999D01*
X237532843Y-139359999D01*
X237532843Y-139360000D01*
X237800000Y-139627157D01*
X237800001Y-139627157D01*
X238132959Y-139294197D01*
X238132959Y-139294196D01*
X238050044Y-139250681D01*
X238050042Y-139250680D01*
X238010803Y-139241008D01*
X237950423Y-139205851D01*
X237924538Y-139164583D01*
X237874371Y-139032305D01*
X237868722Y-139024120D01*
X237868721Y-139024120D01*
X237532843Y-139359999D01*
X237400000Y-139359999D01*
X237400000Y-139330163D01*
X237377164Y-139275032D01*
X237334968Y-139232836D01*
X237279837Y-139210000D01*
X237220163Y-139210000D01*
X237165032Y-139232836D01*
X237122836Y-139275032D01*
X237100000Y-139330163D01*
X236937320Y-139330163D01*
X236700000Y-139092843D01*
X236432843Y-139360000D01*
X236300000Y-139360000D01*
X236300000Y-139330163D01*
X236277164Y-139275032D01*
X236234968Y-139232836D01*
X236179837Y-139210000D01*
X236120163Y-139210000D01*
X236065032Y-139232836D01*
X236022836Y-139275032D01*
X236000000Y-139330163D01*
X235837321Y-139330163D01*
X235531277Y-139024119D01*
X235525629Y-139032303D01*
X235525629Y-139032304D01*
X235475461Y-139164584D01*
X235433282Y-139220286D01*
X235389197Y-139241008D01*
X235349955Y-139250681D01*
X235349951Y-139250682D01*
X235267039Y-139294196D01*
X229331616Y-139294196D01*
X228781616Y-138744196D01*
X235817039Y-138744196D01*
X236150000Y-139077157D01*
X236150001Y-139077157D01*
X236482959Y-138744197D01*
X236482959Y-138744196D01*
X236917039Y-138744196D01*
X237250000Y-139077157D01*
X237250001Y-139077157D01*
X237582959Y-138744197D01*
X237582959Y-138744196D01*
X237500046Y-138700682D01*
X237334994Y-138660000D01*
X237165006Y-138660000D01*
X236999951Y-138700682D01*
X236917039Y-138744196D01*
X236482959Y-138744196D01*
X236400046Y-138700682D01*
X236234994Y-138660000D01*
X236065006Y-138660000D01*
X235899951Y-138700682D01*
X235817039Y-138744196D01*
X228781616Y-138744196D01*
X228050011Y-138012591D01*
X228050010Y-138012590D01*
X227978236Y-137964633D01*
X227978236Y-137964632D01*
X227947235Y-137943918D01*
X227947228Y-137943914D01*
X227913785Y-137930062D01*
X227833035Y-137896614D01*
X227833027Y-137896612D01*
X227711807Y-137872500D01*
X227711803Y-137872500D01*
X216811803Y-137872500D01*
X216688197Y-137872500D01*
X216688192Y-137872500D01*
X216566973Y-137896611D01*
X216566973Y-137896612D01*
X216566970Y-137896613D01*
X216566966Y-137896614D01*
X216500070Y-137924323D01*
X216500068Y-137924323D01*
X216452769Y-137943915D01*
X216452763Y-137943918D01*
X216421764Y-137964632D01*
X216421764Y-137964633D01*
X216349989Y-138012590D01*
X213176176Y-141186403D01*
X213114853Y-141219888D01*
X213045161Y-141214904D01*
X212989228Y-141173032D01*
X212976776Y-141152527D01*
X212975790Y-141150481D01*
X212975789Y-141150478D01*
X212879816Y-140997738D01*
X212752262Y-140870184D01*
X212736054Y-140860000D01*
X212599523Y-140774211D01*
X212429254Y-140714631D01*
X212429249Y-140714630D01*
X212250004Y-140694435D01*
X212249996Y-140694435D01*
X212070750Y-140714630D01*
X212070745Y-140714631D01*
X211900475Y-140774211D01*
X211874565Y-140790493D01*
X211808592Y-140809500D01*
X201837376Y-140809500D01*
X201770337Y-140789815D01*
X201749695Y-140773181D01*
X200056867Y-139080353D01*
X200023382Y-139019030D01*
X200027507Y-138951718D01*
X200035368Y-138929255D01*
X200055565Y-138750000D01*
X200054911Y-138744197D01*
X200035369Y-138570750D01*
X200035368Y-138570745D01*
X199975788Y-138400476D01*
X199925020Y-138319680D01*
X199879816Y-138247738D01*
X199752262Y-138120184D01*
X199696396Y-138085081D01*
X199599523Y-138024211D01*
X199429254Y-137964631D01*
X199429249Y-137964630D01*
X199250004Y-137944435D01*
X199249996Y-137944435D01*
X199070750Y-137964630D01*
X199070745Y-137964631D01*
X198900476Y-138024211D01*
X198747737Y-138120184D01*
X198620184Y-138247737D01*
X198524211Y-138400476D01*
X198464631Y-138570745D01*
X198464630Y-138570750D01*
X198444435Y-138749996D01*
X198444435Y-138750003D01*
X198464630Y-138929249D01*
X198464631Y-138929254D01*
X198524211Y-139099524D01*
X198540493Y-139125435D01*
X198559500Y-139191408D01*
X198559500Y-139318008D01*
X198559500Y-139318010D01*
X198559499Y-139318010D01*
X198586034Y-139451406D01*
X198586036Y-139451412D01*
X198638085Y-139577071D01*
X198638090Y-139577080D01*
X198713653Y-139690167D01*
X198713656Y-139690171D01*
X200963654Y-141940168D01*
X201021223Y-141997737D01*
X201059833Y-142036347D01*
X201172919Y-142111909D01*
X201172932Y-142111916D01*
X201283384Y-142157666D01*
X201298589Y-142163964D01*
X201298593Y-142163964D01*
X201298594Y-142163965D01*
X201431989Y-142190500D01*
X201431992Y-142190500D01*
X211808592Y-142190500D01*
X211874565Y-142209507D01*
X211882720Y-142214631D01*
X211900478Y-142225789D01*
X211900482Y-142225790D01*
X211902527Y-142226776D01*
X211903623Y-142227766D01*
X211906375Y-142229495D01*
X211906072Y-142229976D01*
X211954385Y-142273600D01*
X211972696Y-142341028D01*
X211951646Y-142407651D01*
X211936403Y-142426176D01*
X211492397Y-142870184D01*
X211349992Y-143012589D01*
X211328081Y-143034500D01*
X211262586Y-143099994D01*
X211262585Y-143099996D01*
X211193233Y-143203789D01*
X211191586Y-143208393D01*
X211146614Y-143316964D01*
X211146612Y-143316972D01*
X211126417Y-143418498D01*
X211126418Y-143418499D01*
X211122500Y-143438197D01*
X211122500Y-145938719D01*
X211102815Y-146005758D01*
X211086181Y-146026400D01*
X209026400Y-148086181D01*
X208965077Y-148119666D01*
X208938719Y-148122500D01*
X204224563Y-148122500D01*
X204157524Y-148102815D01*
X204111769Y-148050011D01*
X204102043Y-148005304D01*
X204101035Y-148005393D01*
X204080349Y-147768955D01*
X204080349Y-147768950D01*
X204020320Y-147544921D01*
X203922301Y-147334719D01*
X203922299Y-147334716D01*
X203922298Y-147334714D01*
X203789273Y-147144735D01*
X203789268Y-147144729D01*
X203625269Y-146980730D01*
X203435274Y-146847693D01*
X203432493Y-146846088D01*
X203431513Y-146845060D01*
X203430847Y-146844594D01*
X203430940Y-146844459D01*
X203384281Y-146795518D01*
X203370500Y-146738705D01*
X203370500Y-146609059D01*
X203370501Y-146609046D01*
X203370501Y-146440945D01*
X203370501Y-146440943D01*
X203329577Y-146288215D01*
X203300639Y-146238095D01*
X203250520Y-146151284D01*
X203138716Y-146039480D01*
X203138715Y-146039479D01*
X203134385Y-146035149D01*
X203134374Y-146035139D01*
X199330700Y-142231465D01*
X199297215Y-142170142D01*
X199295163Y-142157686D01*
X199285368Y-142070745D01*
X199225789Y-141900478D01*
X199129816Y-141747738D01*
X199002262Y-141620184D01*
X198909356Y-141561807D01*
X198849523Y-141524211D01*
X198679254Y-141464631D01*
X198679249Y-141464630D01*
X198500004Y-141444435D01*
X198499996Y-141444435D01*
X198320750Y-141464630D01*
X198320745Y-141464631D01*
X198150476Y-141524211D01*
X197997737Y-141620184D01*
X197870184Y-141747737D01*
X197774211Y-141900476D01*
X197714631Y-142070745D01*
X197714630Y-142070750D01*
X197694435Y-142249996D01*
X197694435Y-142250003D01*
X197714630Y-142429249D01*
X197714631Y-142429254D01*
X197774211Y-142599523D01*
X197833849Y-142694435D01*
X197870184Y-142752262D01*
X197997738Y-142879816D01*
X198150478Y-142975789D01*
X198320745Y-143035368D01*
X198407669Y-143045161D01*
X198472080Y-143072226D01*
X198481465Y-143080700D01*
X202084770Y-146684005D01*
X202118255Y-146745328D01*
X202113271Y-146815020D01*
X202071399Y-146870953D01*
X202068212Y-146873261D01*
X201914736Y-146980726D01*
X201914729Y-146980731D01*
X201750731Y-147144729D01*
X201750726Y-147144735D01*
X201617701Y-147334714D01*
X201617698Y-147334720D01*
X201612381Y-147346123D01*
X201566207Y-147398562D01*
X201499013Y-147417712D01*
X201432133Y-147397495D01*
X201387619Y-147346123D01*
X201385931Y-147342504D01*
X201382301Y-147334719D01*
X201382299Y-147334716D01*
X201382298Y-147334714D01*
X201249273Y-147144735D01*
X201249268Y-147144729D01*
X201085269Y-146980730D01*
X200962637Y-146894862D01*
X200895282Y-146847699D01*
X200685079Y-146749680D01*
X200685076Y-146749679D01*
X200685074Y-146749678D01*
X200461051Y-146689651D01*
X200461044Y-146689650D01*
X200230002Y-146669437D01*
X200229998Y-146669437D01*
X199998955Y-146689650D01*
X199998948Y-146689651D01*
X199774917Y-146749681D01*
X199564718Y-146847699D01*
X199564714Y-146847701D01*
X199374735Y-146980726D01*
X199374729Y-146980731D01*
X199210731Y-147144729D01*
X199210726Y-147144735D01*
X199088269Y-147319623D01*
X199033692Y-147363248D01*
X198986694Y-147372500D01*
X197561281Y-147372500D01*
X197494242Y-147352815D01*
X197473600Y-147336181D01*
X194325852Y-144188433D01*
X194292367Y-144127110D01*
X194290314Y-144114648D01*
X194285368Y-144070745D01*
X194225789Y-143900478D01*
X194129816Y-143747738D01*
X194002262Y-143620184D01*
X193899422Y-143555565D01*
X193849523Y-143524211D01*
X193679254Y-143464631D01*
X193679249Y-143464630D01*
X193500004Y-143444435D01*
X193499996Y-143444435D01*
X193320750Y-143464630D01*
X193320745Y-143464631D01*
X193150476Y-143524211D01*
X192997737Y-143620184D01*
X192870184Y-143747737D01*
X192774211Y-143900476D01*
X192714631Y-144070745D01*
X192714630Y-144070750D01*
X192694435Y-144249996D01*
X192694435Y-144250003D01*
X192714630Y-144429249D01*
X192714631Y-144429254D01*
X192774211Y-144599523D01*
X192818078Y-144669336D01*
X192870184Y-144752262D01*
X192997738Y-144879816D01*
X193013362Y-144889633D01*
X193109452Y-144950011D01*
X193150478Y-144975789D01*
X193320745Y-145035368D01*
X193364635Y-145040313D01*
X193429048Y-145067378D01*
X193438433Y-145075852D01*
X196762589Y-148400008D01*
X196849992Y-148487411D01*
X196849994Y-148487413D01*
X196849996Y-148487414D01*
X196952756Y-148556076D01*
X196952758Y-148556077D01*
X196952767Y-148556083D01*
X196979037Y-148566964D01*
X196979038Y-148566965D01*
X196979039Y-148566965D01*
X197066966Y-148603386D01*
X197188192Y-148627499D01*
X197188196Y-148627500D01*
X197188197Y-148627500D01*
X198986693Y-148627500D01*
X199053732Y-148647185D01*
X199088267Y-148680375D01*
X199210730Y-148855269D01*
X199374731Y-149019270D01*
X199564718Y-149152301D01*
X199774921Y-149250320D01*
X199998950Y-149310349D01*
X200143809Y-149323022D01*
X200166093Y-149324972D01*
X200231162Y-149350424D01*
X200233097Y-149353096D01*
X200269779Y-149329523D01*
X200293907Y-149324972D01*
X200303646Y-149324119D01*
X200461050Y-149310349D01*
X200543227Y-149288329D01*
X200613077Y-149289990D01*
X200663003Y-149320422D01*
X200703400Y-149360819D01*
X200736885Y-149422142D01*
X200731901Y-149491834D01*
X200690029Y-149547767D01*
X200624565Y-149572184D01*
X200615719Y-149572500D01*
X200304714Y-149572500D01*
X200237675Y-149552815D01*
X200229810Y-149543739D01*
X200179718Y-149570069D01*
X200155286Y-149572500D01*
X191851884Y-149572500D01*
X191784845Y-149552815D01*
X191739090Y-149500011D01*
X191728664Y-149434616D01*
X191729830Y-149424267D01*
X191729830Y-149424261D01*
X191709634Y-149245015D01*
X191709631Y-149245002D01*
X191650054Y-149074743D01*
X191646504Y-149069092D01*
X191627500Y-149003124D01*
X191627500Y-146791671D01*
X191646507Y-146725698D01*
X191725788Y-146599524D01*
X191725789Y-146599522D01*
X191785368Y-146429255D01*
X191788812Y-146398690D01*
X191805565Y-146250003D01*
X191805565Y-146249996D01*
X191785369Y-146070750D01*
X191785368Y-146070745D01*
X191769851Y-146026400D01*
X191725789Y-145900478D01*
X191703265Y-145864632D01*
X191653461Y-145785369D01*
X191629816Y-145747738D01*
X191502262Y-145620184D01*
X191349523Y-145524211D01*
X191179254Y-145464631D01*
X191179249Y-145464630D01*
X191000004Y-145444435D01*
X190999996Y-145444435D01*
X190820750Y-145464630D01*
X190820745Y-145464631D01*
X190650476Y-145524211D01*
X190497737Y-145620184D01*
X190370184Y-145747737D01*
X190274211Y-145900476D01*
X190214631Y-146070745D01*
X190214630Y-146070750D01*
X190194435Y-146249996D01*
X190194435Y-146250003D01*
X190214630Y-146429249D01*
X190214631Y-146429254D01*
X190274211Y-146599524D01*
X190353493Y-146725698D01*
X190372500Y-146791671D01*
X190372500Y-148792590D01*
X190352815Y-148859629D01*
X190336181Y-148880271D01*
X190294449Y-148922002D01*
X190198476Y-149074741D01*
X190138896Y-149245010D01*
X190138895Y-149245015D01*
X190118700Y-149424262D01*
X190118700Y-149424267D01*
X190119866Y-149434616D01*
X190107812Y-149503438D01*
X190060463Y-149554818D01*
X189996646Y-149572500D01*
X147511281Y-149572500D01*
X147444242Y-149552815D01*
X147423600Y-149536181D01*
X140987402Y-143099983D01*
X146349500Y-143099983D01*
X146349500Y-144400001D01*
X146349501Y-144400018D01*
X146360000Y-144502796D01*
X146360001Y-144502799D01*
X146392053Y-144599523D01*
X146415186Y-144669334D01*
X146464938Y-144749996D01*
X146507289Y-144818657D01*
X146631344Y-144942712D01*
X146786558Y-145038448D01*
X146833283Y-145090396D01*
X146844506Y-145159358D01*
X146816663Y-145223441D01*
X146809144Y-145231668D01*
X146670271Y-145370541D01*
X146545379Y-145542442D01*
X146448904Y-145731782D01*
X146383242Y-145933870D01*
X146383242Y-145933873D01*
X146372769Y-146000000D01*
X147416988Y-146000000D01*
X147384075Y-146057007D01*
X147350000Y-146184174D01*
X147350000Y-146315826D01*
X147384075Y-146442993D01*
X147416988Y-146500000D01*
X146372769Y-146500000D01*
X146383242Y-146566126D01*
X146383242Y-146566129D01*
X146448904Y-146768217D01*
X146545379Y-146957557D01*
X146670272Y-147129459D01*
X146670276Y-147129464D01*
X146820535Y-147279723D01*
X146820540Y-147279727D01*
X146992442Y-147404620D01*
X147181782Y-147501095D01*
X147383870Y-147566757D01*
X147593754Y-147600000D01*
X147600000Y-147600000D01*
X147600000Y-146683012D01*
X147657007Y-146715925D01*
X147784174Y-146750000D01*
X147915826Y-146750000D01*
X148042993Y-146715925D01*
X148100000Y-146683012D01*
X148100000Y-147600000D01*
X148106246Y-147600000D01*
X148316127Y-147566757D01*
X148316130Y-147566757D01*
X148518217Y-147501095D01*
X148707557Y-147404620D01*
X148879459Y-147279727D01*
X148879464Y-147279723D01*
X149029723Y-147129464D01*
X149029727Y-147129459D01*
X149154620Y-146957557D01*
X149251095Y-146768217D01*
X149316757Y-146566129D01*
X149316757Y-146566126D01*
X149327231Y-146500000D01*
X148283012Y-146500000D01*
X148315925Y-146442993D01*
X148350000Y-146315826D01*
X148350000Y-146184174D01*
X148315925Y-146057007D01*
X148283012Y-146000000D01*
X149327231Y-146000000D01*
X149316757Y-145933873D01*
X149316757Y-145933870D01*
X149251095Y-145731782D01*
X149154620Y-145542442D01*
X149029727Y-145370540D01*
X149029723Y-145370535D01*
X148890856Y-145231668D01*
X148857371Y-145170345D01*
X148862355Y-145100653D01*
X148904227Y-145044720D01*
X148913441Y-145038448D01*
X148919331Y-145034814D01*
X148919334Y-145034814D01*
X149068656Y-144942712D01*
X149192712Y-144818656D01*
X149284814Y-144669334D01*
X149312595Y-144585495D01*
X149352368Y-144528051D01*
X149416884Y-144501228D01*
X149430301Y-144500500D01*
X185323920Y-144500500D01*
X185421462Y-144481096D01*
X185468913Y-144471658D01*
X185605495Y-144415084D01*
X185672693Y-144370184D01*
X185672696Y-144370181D01*
X185672698Y-144370181D01*
X185722483Y-144336916D01*
X185728416Y-144332952D01*
X186308061Y-143753304D01*
X186344132Y-143730657D01*
X186343244Y-143728813D01*
X186349515Y-143725792D01*
X186349516Y-143725790D01*
X186349522Y-143725789D01*
X186502262Y-143629816D01*
X186629816Y-143502262D01*
X186643506Y-143480473D01*
X186695841Y-143434183D01*
X186764894Y-143423535D01*
X186828743Y-143451910D01*
X186867115Y-143510299D01*
X186872500Y-143546446D01*
X186872500Y-144458328D01*
X186853494Y-144524300D01*
X186774211Y-144650476D01*
X186714631Y-144820745D01*
X186714630Y-144820750D01*
X186694435Y-144999996D01*
X186694435Y-145000003D01*
X186714630Y-145179249D01*
X186714631Y-145179254D01*
X186774211Y-145349523D01*
X186797567Y-145386693D01*
X186870184Y-145502262D01*
X186997738Y-145629816D01*
X187150478Y-145725789D01*
X187317050Y-145784075D01*
X187320745Y-145785368D01*
X187320750Y-145785369D01*
X187499996Y-145805565D01*
X187500000Y-145805565D01*
X187500004Y-145805565D01*
X187679249Y-145785369D01*
X187679252Y-145785368D01*
X187679255Y-145785368D01*
X187849522Y-145725789D01*
X188002262Y-145629816D01*
X188129816Y-145502262D01*
X188225789Y-145349522D01*
X188285368Y-145179255D01*
X188285369Y-145179249D01*
X188305565Y-145000003D01*
X188305565Y-144999996D01*
X188285369Y-144820750D01*
X188285368Y-144820745D01*
X188252393Y-144726508D01*
X188225789Y-144650478D01*
X188146505Y-144524299D01*
X188127500Y-144458328D01*
X188127500Y-134938195D01*
X188126474Y-134933039D01*
X188126473Y-134933034D01*
X188103386Y-134816965D01*
X188058132Y-134707714D01*
X188056083Y-134702767D01*
X188056079Y-134702761D01*
X187987414Y-134599996D01*
X187987413Y-134599994D01*
X187956610Y-134569191D01*
X187900008Y-134512589D01*
X185825852Y-132438433D01*
X185792367Y-132377110D01*
X185790314Y-132364648D01*
X185785368Y-132320745D01*
X185725789Y-132150478D01*
X185629816Y-131997738D01*
X185502262Y-131870184D01*
X185460944Y-131844222D01*
X185349523Y-131774211D01*
X185179254Y-131714631D01*
X185179249Y-131714630D01*
X185000004Y-131694435D01*
X184999996Y-131694435D01*
X184820750Y-131714630D01*
X184820745Y-131714631D01*
X184650476Y-131774211D01*
X184497737Y-131870184D01*
X184370184Y-131997737D01*
X184274211Y-132150476D01*
X184214631Y-132320745D01*
X184214630Y-132320750D01*
X184194435Y-132499996D01*
X184194435Y-132500003D01*
X184214630Y-132679249D01*
X184214631Y-132679254D01*
X184274211Y-132849523D01*
X184295149Y-132882845D01*
X184370184Y-133002262D01*
X184497738Y-133129816D01*
X184650478Y-133225789D01*
X184820745Y-133285368D01*
X184864635Y-133290313D01*
X184929048Y-133317378D01*
X184938433Y-133325852D01*
X186836181Y-135223600D01*
X186869666Y-135284923D01*
X186872500Y-135311281D01*
X186872500Y-142453553D01*
X186852815Y-142520592D01*
X186800011Y-142566347D01*
X186730853Y-142576291D01*
X186667297Y-142547266D01*
X186643507Y-142519527D01*
X186642643Y-142518152D01*
X186629816Y-142497738D01*
X186502262Y-142370184D01*
X186455861Y-142341028D01*
X186349523Y-142274211D01*
X186179254Y-142214631D01*
X186179249Y-142214630D01*
X186000004Y-142194435D01*
X185999996Y-142194435D01*
X185820750Y-142214630D01*
X185820745Y-142214631D01*
X185650476Y-142274211D01*
X185497737Y-142370184D01*
X185370184Y-142497737D01*
X185274208Y-142650483D01*
X185271186Y-142656758D01*
X185269361Y-142655878D01*
X185246692Y-142691939D01*
X184975451Y-142963181D01*
X184914128Y-142996666D01*
X184887770Y-142999500D01*
X149430301Y-142999500D01*
X149363262Y-142979815D01*
X149317507Y-142927011D01*
X149312595Y-142914504D01*
X149284814Y-142830666D01*
X149192712Y-142681344D01*
X149068656Y-142557288D01*
X148919334Y-142465186D01*
X148752797Y-142410001D01*
X148752795Y-142410000D01*
X148650010Y-142399500D01*
X147049998Y-142399500D01*
X147049981Y-142399501D01*
X146947203Y-142410000D01*
X146947200Y-142410001D01*
X146780668Y-142465185D01*
X146780663Y-142465187D01*
X146631342Y-142557289D01*
X146507289Y-142681342D01*
X146415187Y-142830663D01*
X146415185Y-142830668D01*
X146398899Y-142879816D01*
X146360001Y-142997203D01*
X146360001Y-142997204D01*
X146360000Y-142997204D01*
X146349500Y-143099983D01*
X140987402Y-143099983D01*
X139663819Y-141776400D01*
X139630334Y-141715077D01*
X139627500Y-141688719D01*
X139627500Y-135249996D01*
X161694435Y-135249996D01*
X161694435Y-135250003D01*
X161714630Y-135429249D01*
X161714631Y-135429254D01*
X161774211Y-135599523D01*
X161824941Y-135680258D01*
X161870184Y-135752262D01*
X161997738Y-135879816D01*
X162150478Y-135975789D01*
X162219678Y-136000003D01*
X162320745Y-136035368D01*
X162320750Y-136035369D01*
X162499996Y-136055565D01*
X162500000Y-136055565D01*
X162500004Y-136055565D01*
X162679249Y-136035369D01*
X162679252Y-136035368D01*
X162679255Y-136035368D01*
X162849522Y-135975789D01*
X163002262Y-135879816D01*
X163129816Y-135752262D01*
X163225789Y-135599522D01*
X163285368Y-135429255D01*
X163290313Y-135385361D01*
X163317378Y-135320951D01*
X163325842Y-135311575D01*
X163723600Y-134913819D01*
X163784923Y-134880334D01*
X163811281Y-134877500D01*
X176958328Y-134877500D01*
X177024300Y-134896506D01*
X177126968Y-134961017D01*
X177150478Y-134975789D01*
X177318685Y-135034647D01*
X177320745Y-135035368D01*
X177320750Y-135035369D01*
X177499996Y-135055565D01*
X177500000Y-135055565D01*
X177500004Y-135055565D01*
X177679249Y-135035369D01*
X177679252Y-135035368D01*
X177679255Y-135035368D01*
X177849522Y-134975789D01*
X178002262Y-134879816D01*
X178129816Y-134752262D01*
X178225789Y-134599522D01*
X178285368Y-134429255D01*
X178285944Y-134424147D01*
X178305565Y-134250003D01*
X178305565Y-134249996D01*
X178285369Y-134070750D01*
X178285368Y-134070745D01*
X178236806Y-133931963D01*
X178225789Y-133900478D01*
X178206729Y-133870145D01*
X178162661Y-133800011D01*
X178129816Y-133747738D01*
X178002262Y-133620184D01*
X177975700Y-133603494D01*
X177849523Y-133524211D01*
X177679254Y-133464631D01*
X177679249Y-133464630D01*
X177500004Y-133444435D01*
X177499996Y-133444435D01*
X177320750Y-133464630D01*
X177320745Y-133464631D01*
X177150476Y-133524211D01*
X177024300Y-133603494D01*
X176958328Y-133622500D01*
X163438192Y-133622500D01*
X163316973Y-133646611D01*
X163316973Y-133646612D01*
X163316970Y-133646613D01*
X163316966Y-133646614D01*
X163250070Y-133674323D01*
X163250068Y-133674323D01*
X163202770Y-133693915D01*
X163145386Y-133732258D01*
X163099989Y-133762590D01*
X162438432Y-134424147D01*
X162377109Y-134457632D01*
X162364637Y-134459686D01*
X162320745Y-134464632D01*
X162150478Y-134524210D01*
X161997737Y-134620184D01*
X161870184Y-134747737D01*
X161774211Y-134900476D01*
X161714631Y-135070745D01*
X161714630Y-135070750D01*
X161694435Y-135249996D01*
X139627500Y-135249996D01*
X139627500Y-133502894D01*
X139647185Y-133435855D01*
X139699989Y-133390100D01*
X139769147Y-133380156D01*
X139832703Y-133409181D01*
X139856494Y-133436922D01*
X139897947Y-133502894D01*
X139936570Y-133564362D01*
X140064124Y-133691916D01*
X140104691Y-133717406D01*
X140212143Y-133784923D01*
X140216864Y-133787889D01*
X140387131Y-133847468D01*
X140387136Y-133847469D01*
X140566382Y-133867665D01*
X140566386Y-133867665D01*
X140590009Y-133865003D01*
X140658830Y-133877057D01*
X140710211Y-133924405D01*
X140720933Y-133947263D01*
X140743792Y-134012589D01*
X140774210Y-134099521D01*
X140828140Y-134185349D01*
X140870184Y-134252262D01*
X140997738Y-134379816D01*
X141068290Y-134424147D01*
X141132721Y-134464632D01*
X141150478Y-134475789D01*
X141315212Y-134533432D01*
X141320745Y-134535368D01*
X141320750Y-134535369D01*
X141499996Y-134555565D01*
X141500000Y-134555565D01*
X141500004Y-134555565D01*
X141679249Y-134535369D01*
X141679252Y-134535368D01*
X141679255Y-134535368D01*
X141849522Y-134475789D01*
X142002262Y-134379816D01*
X142129816Y-134252262D01*
X142142773Y-134231640D01*
X142195107Y-134185349D01*
X142264160Y-134174700D01*
X142328009Y-134203075D01*
X142356060Y-134239377D01*
X142356388Y-134239172D01*
X142358504Y-134242539D01*
X142359488Y-134243813D01*
X142360091Y-134245065D01*
X142385415Y-134285368D01*
X142456066Y-134397808D01*
X142583620Y-134525362D01*
X142736360Y-134621335D01*
X142906627Y-134680914D01*
X142906632Y-134680915D01*
X143085878Y-134701111D01*
X143085882Y-134701111D01*
X143085886Y-134701111D01*
X143265131Y-134680915D01*
X143265134Y-134680914D01*
X143265137Y-134680914D01*
X143435404Y-134621335D01*
X143575301Y-134533431D01*
X143642536Y-134514432D01*
X143709372Y-134534800D01*
X143746264Y-134572451D01*
X143751108Y-134580160D01*
X143878662Y-134707714D01*
X144031402Y-134803687D01*
X144186408Y-134857926D01*
X144201669Y-134863266D01*
X144201674Y-134863267D01*
X144380920Y-134883463D01*
X144380924Y-134883463D01*
X144380928Y-134883463D01*
X144560173Y-134863267D01*
X144560176Y-134863266D01*
X144560179Y-134863266D01*
X144730446Y-134803687D01*
X144883186Y-134707714D01*
X145010740Y-134580160D01*
X145106713Y-134427420D01*
X145166292Y-134257153D01*
X145166843Y-134252262D01*
X145186489Y-134077901D01*
X145186489Y-134077894D01*
X145166293Y-133898648D01*
X145166292Y-133898643D01*
X145127537Y-133787888D01*
X145106713Y-133728376D01*
X145097417Y-133713582D01*
X145027430Y-133602198D01*
X145008424Y-133536226D01*
X145008424Y-127430357D01*
X145028109Y-127363318D01*
X145044743Y-127342676D01*
X145223600Y-127163819D01*
X145284923Y-127130334D01*
X145311281Y-127127500D01*
X173484593Y-127127500D01*
X173551632Y-127147185D01*
X173597387Y-127199989D01*
X173607331Y-127269147D01*
X173586169Y-127322622D01*
X173577700Y-127334716D01*
X173577699Y-127334718D01*
X173479681Y-127544917D01*
X173419651Y-127768948D01*
X173419650Y-127768955D01*
X173399437Y-127999998D01*
X173399437Y-128000001D01*
X173419650Y-128231044D01*
X173419651Y-128231051D01*
X173479678Y-128455074D01*
X173479679Y-128455076D01*
X173479680Y-128455079D01*
X173499669Y-128497945D01*
X173577699Y-128665282D01*
X173586167Y-128677375D01*
X173608495Y-128743581D01*
X173591486Y-128811349D01*
X173540538Y-128859162D01*
X173484593Y-128872500D01*
X155438195Y-128872500D01*
X155316970Y-128896613D01*
X155316960Y-128896616D01*
X155202773Y-128943913D01*
X155202760Y-128943920D01*
X155099992Y-129012588D01*
X155099988Y-129012591D01*
X151438432Y-132674147D01*
X151377109Y-132707632D01*
X151364637Y-132709686D01*
X151320745Y-132714632D01*
X151150478Y-132774210D01*
X150997737Y-132870184D01*
X150870184Y-132997737D01*
X150774211Y-133150476D01*
X150714631Y-133320745D01*
X150714630Y-133320750D01*
X150694435Y-133499996D01*
X150694435Y-133500003D01*
X150714630Y-133679249D01*
X150714631Y-133679254D01*
X150774211Y-133849523D01*
X150870184Y-134002262D01*
X150997738Y-134129816D01*
X151086118Y-134185349D01*
X151140731Y-134219665D01*
X151150478Y-134225789D01*
X151320745Y-134285368D01*
X151320750Y-134285369D01*
X151499996Y-134305565D01*
X151500000Y-134305565D01*
X151500004Y-134305565D01*
X151679249Y-134285369D01*
X151679252Y-134285368D01*
X151679255Y-134285368D01*
X151849522Y-134225789D01*
X152002262Y-134129816D01*
X152129816Y-134002262D01*
X152225789Y-133849522D01*
X152285368Y-133679255D01*
X152290313Y-133635361D01*
X152317378Y-133570951D01*
X152325842Y-133561575D01*
X155723600Y-130163819D01*
X155784923Y-130130334D01*
X155811281Y-130127500D01*
X167070435Y-130127500D01*
X167137474Y-130147185D01*
X167183229Y-130199989D01*
X167192628Y-130243196D01*
X167193655Y-130243081D01*
X167214630Y-130429249D01*
X167214631Y-130429254D01*
X167274211Y-130599523D01*
X167333849Y-130694435D01*
X167370184Y-130752262D01*
X167497738Y-130879816D01*
X167650478Y-130975789D01*
X167713202Y-130997737D01*
X167820745Y-131035368D01*
X167820750Y-131035369D01*
X167999996Y-131055565D01*
X168000000Y-131055565D01*
X168000004Y-131055565D01*
X168179249Y-131035369D01*
X168179252Y-131035368D01*
X168179255Y-131035368D01*
X168349522Y-130975789D01*
X168475700Y-130896505D01*
X168541672Y-130877500D01*
X178208328Y-130877500D01*
X178274299Y-130896505D01*
X178400478Y-130975789D01*
X178463202Y-130997737D01*
X178570745Y-131035368D01*
X178570750Y-131035369D01*
X178749996Y-131055565D01*
X178750000Y-131055565D01*
X178750004Y-131055565D01*
X178929249Y-131035369D01*
X178929252Y-131035368D01*
X178929255Y-131035368D01*
X179099522Y-130975789D01*
X179252262Y-130879816D01*
X179379816Y-130752262D01*
X179475789Y-130599522D01*
X179535368Y-130429255D01*
X179546247Y-130332703D01*
X179556345Y-130243081D01*
X179557982Y-130243265D01*
X179575250Y-130184461D01*
X179628054Y-130138706D01*
X179679565Y-130127500D01*
X190627772Y-130127500D01*
X190694811Y-130147185D01*
X190740566Y-130199989D01*
X190750510Y-130269147D01*
X190721485Y-130332703D01*
X190715453Y-130339181D01*
X190626565Y-130428068D01*
X190530592Y-130580807D01*
X190471012Y-130751076D01*
X190471011Y-130751081D01*
X190450816Y-130930327D01*
X190450816Y-130930334D01*
X190471011Y-131109580D01*
X190471012Y-131109585D01*
X190530592Y-131279854D01*
X190556286Y-131320745D01*
X190626565Y-131432593D01*
X190754119Y-131560147D01*
X190779812Y-131576291D01*
X190906859Y-131656120D01*
X190946485Y-131669986D01*
X191003262Y-131710708D01*
X191029009Y-131775661D01*
X191015553Y-131844222D01*
X190993213Y-131874709D01*
X190870183Y-131997739D01*
X190774211Y-132150476D01*
X190714631Y-132320745D01*
X190714630Y-132320750D01*
X190694435Y-132499996D01*
X190694435Y-132500003D01*
X190714630Y-132679249D01*
X190714631Y-132679254D01*
X190774211Y-132849523D01*
X190795149Y-132882845D01*
X190870184Y-133002262D01*
X190997738Y-133129816D01*
X191150478Y-133225789D01*
X191320745Y-133285368D01*
X191364635Y-133290313D01*
X191429048Y-133317378D01*
X191438433Y-133325852D01*
X191836181Y-133723600D01*
X191869666Y-133784923D01*
X191872500Y-133811281D01*
X191872500Y-135458328D01*
X191853494Y-135524300D01*
X191774211Y-135650476D01*
X191714631Y-135820745D01*
X191714630Y-135820750D01*
X191694435Y-135999996D01*
X191694435Y-136000003D01*
X191714630Y-136179246D01*
X191714631Y-136179251D01*
X191714631Y-136179253D01*
X191714632Y-136179255D01*
X191761640Y-136313595D01*
X191765542Y-136324747D01*
X191772500Y-136365701D01*
X191772500Y-137785719D01*
X191752815Y-137852758D01*
X191700011Y-137898513D01*
X191630853Y-137908457D01*
X191567297Y-137879432D01*
X191560819Y-137873400D01*
X191383488Y-137696069D01*
X191350003Y-137634746D01*
X191347169Y-137608388D01*
X191347169Y-134761340D01*
X191366176Y-134695367D01*
X191375258Y-134680914D01*
X191426103Y-134599994D01*
X191445457Y-134569193D01*
X191457492Y-134534800D01*
X191505037Y-134398924D01*
X191515556Y-134305565D01*
X191525234Y-134219672D01*
X191525234Y-134219665D01*
X191505038Y-134040419D01*
X191505037Y-134040414D01*
X191471271Y-133943917D01*
X191445458Y-133870147D01*
X191443898Y-133867665D01*
X191374239Y-133756803D01*
X191349485Y-133717407D01*
X191221931Y-133589853D01*
X191191521Y-133570745D01*
X191069192Y-133493880D01*
X190898923Y-133434300D01*
X190898918Y-133434299D01*
X190719673Y-133414104D01*
X190719665Y-133414104D01*
X190540419Y-133434299D01*
X190540414Y-133434300D01*
X190370145Y-133493880D01*
X190217406Y-133589853D01*
X190089853Y-133717406D01*
X189993880Y-133870145D01*
X189934300Y-134040414D01*
X189934299Y-134040419D01*
X189914104Y-134219665D01*
X189914104Y-134219672D01*
X189934299Y-134398918D01*
X189934300Y-134398923D01*
X189993880Y-134569193D01*
X190073162Y-134695367D01*
X190092169Y-134761340D01*
X190092169Y-137981476D01*
X190116281Y-138102696D01*
X190116283Y-138102704D01*
X190145194Y-138172500D01*
X190163586Y-138216902D01*
X190165778Y-138220182D01*
X190209696Y-138285910D01*
X190232259Y-138319679D01*
X190232260Y-138319680D01*
X192112589Y-140200008D01*
X192156664Y-140244083D01*
X192199994Y-140287413D01*
X192199996Y-140287414D01*
X192302756Y-140356076D01*
X192302758Y-140356077D01*
X192302767Y-140356083D01*
X192327772Y-140366440D01*
X192350071Y-140375677D01*
X192392254Y-140393149D01*
X192416966Y-140403386D01*
X192538192Y-140427499D01*
X192538196Y-140427500D01*
X192538197Y-140427500D01*
X194011804Y-140427500D01*
X194011805Y-140427499D01*
X194133035Y-140403386D01*
X194213784Y-140369937D01*
X194247233Y-140356083D01*
X194350008Y-140287411D01*
X194437411Y-140200008D01*
X199973600Y-134663819D01*
X200034923Y-134630334D01*
X200061281Y-134627500D01*
X205721373Y-134627500D01*
X205788412Y-134647185D01*
X205834167Y-134699989D01*
X205844111Y-134769147D01*
X205826367Y-134817472D01*
X205774211Y-134900476D01*
X205714631Y-135070745D01*
X205714630Y-135070750D01*
X205694435Y-135249996D01*
X205694435Y-135250003D01*
X205714630Y-135429249D01*
X205714631Y-135429254D01*
X205774211Y-135599523D01*
X205824941Y-135680258D01*
X205870184Y-135752262D01*
X205997738Y-135879816D01*
X206150478Y-135975789D01*
X206219678Y-136000003D01*
X206320745Y-136035368D01*
X206320750Y-136035369D01*
X206499996Y-136055565D01*
X206500000Y-136055565D01*
X206500004Y-136055565D01*
X206679249Y-136035369D01*
X206679252Y-136035368D01*
X206679255Y-136035368D01*
X206849522Y-135975789D01*
X207002262Y-135879816D01*
X207129816Y-135752262D01*
X207225789Y-135599522D01*
X207274419Y-135460546D01*
X207315141Y-135403769D01*
X207380094Y-135378022D01*
X207391461Y-135377500D01*
X220188719Y-135377500D01*
X220255758Y-135397185D01*
X220276400Y-135413819D01*
X221262589Y-136400008D01*
X221336181Y-136473600D01*
X221349994Y-136487413D01*
X221349996Y-136487414D01*
X221421099Y-136534923D01*
X221452767Y-136556083D01*
X221486215Y-136569937D01*
X221566965Y-136603386D01*
X221688192Y-136627499D01*
X221688196Y-136627500D01*
X221688197Y-136627500D01*
X221811803Y-136627500D01*
X236958328Y-136627500D01*
X237024300Y-136646506D01*
X237083786Y-136683884D01*
X237150478Y-136725789D01*
X237320745Y-136785368D01*
X237320750Y-136785369D01*
X237499996Y-136805565D01*
X237500000Y-136805565D01*
X237500004Y-136805565D01*
X237679249Y-136785369D01*
X237679252Y-136785368D01*
X237679255Y-136785368D01*
X237849522Y-136725789D01*
X238002262Y-136629816D01*
X238129816Y-136502262D01*
X238225789Y-136349522D01*
X238225790Y-136349517D01*
X238226771Y-136347482D01*
X238227758Y-136346388D01*
X238229494Y-136343626D01*
X238229977Y-136343929D01*
X238273591Y-136295619D01*
X238341016Y-136277302D01*
X238407642Y-136298345D01*
X238426176Y-136313595D01*
X238586181Y-136473600D01*
X238619666Y-136534923D01*
X238622500Y-136561281D01*
X238622500Y-139471409D01*
X238602815Y-139538448D01*
X238550011Y-139584203D01*
X238480853Y-139594147D01*
X238441543Y-139576194D01*
X238418721Y-139574120D01*
X238082843Y-139909999D01*
X238082843Y-139910001D01*
X238418721Y-140245879D01*
X238438480Y-140244083D01*
X238450733Y-140234154D01*
X238520182Y-140226495D01*
X238582747Y-140257599D01*
X238618564Y-140317590D01*
X238622500Y-140348585D01*
X238622500Y-140571409D01*
X238602815Y-140638448D01*
X238550011Y-140684203D01*
X238480853Y-140694147D01*
X238441543Y-140676194D01*
X238418721Y-140674120D01*
X238082843Y-141009999D01*
X238082843Y-141010001D01*
X238429193Y-141356351D01*
X238462678Y-141417674D01*
X238464462Y-141428511D01*
X238464631Y-141429252D01*
X238524210Y-141599521D01*
X238589080Y-141702760D01*
X238620184Y-141752262D01*
X238747738Y-141879816D01*
X238900478Y-141975789D01*
X238963202Y-141997737D01*
X239070745Y-142035368D01*
X239070750Y-142035369D01*
X239256920Y-142056345D01*
X239256735Y-142057983D01*
X239315539Y-142075250D01*
X239361294Y-142128054D01*
X239372500Y-142179565D01*
X239372500Y-142208328D01*
X239353494Y-142274300D01*
X239274211Y-142400476D01*
X239214631Y-142570745D01*
X239214630Y-142570750D01*
X239194435Y-142749996D01*
X239194435Y-142750003D01*
X239214630Y-142929249D01*
X239214631Y-142929254D01*
X239274211Y-143099523D01*
X239339084Y-143202767D01*
X239370184Y-143252262D01*
X239497738Y-143379816D01*
X239588080Y-143436582D01*
X239632721Y-143464632D01*
X239650478Y-143475789D01*
X239749102Y-143510299D01*
X239820745Y-143535368D01*
X239820750Y-143535369D01*
X239999996Y-143555565D01*
X240000000Y-143555565D01*
X240000004Y-143555565D01*
X240179249Y-143535369D01*
X240179252Y-143535368D01*
X240179255Y-143535368D01*
X240349522Y-143475789D01*
X240502262Y-143379816D01*
X240629816Y-143252262D01*
X240725789Y-143099522D01*
X240785368Y-142929255D01*
X240787030Y-142914504D01*
X240805565Y-142750003D01*
X240805565Y-142749996D01*
X240785369Y-142570750D01*
X240785368Y-142570745D01*
X240759011Y-142495422D01*
X240725789Y-142400478D01*
X240725174Y-142399500D01*
X240646506Y-142274300D01*
X240627500Y-142208328D01*
X240627500Y-135801482D01*
X240603386Y-135680258D01*
X240603385Y-135680257D01*
X240603385Y-135680253D01*
X240569946Y-135599523D01*
X240556086Y-135566061D01*
X240556079Y-135566048D01*
X240487412Y-135463281D01*
X240453380Y-135429249D01*
X240400008Y-135375877D01*
X239719498Y-134695367D01*
X239036725Y-134012593D01*
X239036720Y-134012589D01*
X239032356Y-134009673D01*
X238933942Y-133943915D01*
X238882086Y-133922436D01*
X238882085Y-133922435D01*
X238882085Y-133922436D01*
X238819747Y-133896614D01*
X238819744Y-133896613D01*
X238819740Y-133896612D01*
X238698519Y-133872500D01*
X238698515Y-133872500D01*
X231679565Y-133872500D01*
X231612526Y-133852815D01*
X231566771Y-133800011D01*
X231557371Y-133756803D01*
X231556345Y-133756919D01*
X231535369Y-133570750D01*
X231535368Y-133570745D01*
X231498237Y-133464630D01*
X231475789Y-133400478D01*
X231379816Y-133247738D01*
X231252262Y-133120184D01*
X231225700Y-133103494D01*
X231099523Y-133024211D01*
X230929254Y-132964631D01*
X230929249Y-132964630D01*
X230750004Y-132944435D01*
X230749996Y-132944435D01*
X230570750Y-132964630D01*
X230570745Y-132964631D01*
X230400476Y-133024211D01*
X230274300Y-133103494D01*
X230208328Y-133122500D01*
X224886281Y-133122500D01*
X224819242Y-133102815D01*
X224798600Y-133086181D01*
X220725013Y-129012593D01*
X220725010Y-129012590D01*
X220687326Y-128987411D01*
X220622233Y-128943917D01*
X220622229Y-128943915D01*
X220622227Y-128943914D01*
X220622228Y-128943914D01*
X220586837Y-128929255D01*
X220586836Y-128929255D01*
X220508035Y-128896614D01*
X220508027Y-128896612D01*
X220386807Y-128872500D01*
X220386803Y-128872500D01*
X178515407Y-128872500D01*
X178448368Y-128852815D01*
X178402613Y-128800011D01*
X178392669Y-128730853D01*
X178413833Y-128677375D01*
X178414697Y-128676141D01*
X178422301Y-128665282D01*
X178520320Y-128455079D01*
X178580349Y-128231050D01*
X178600563Y-128000000D01*
X178580349Y-127768950D01*
X178520320Y-127544921D01*
X178422301Y-127334719D01*
X178413831Y-127322622D01*
X178391504Y-127256415D01*
X178408516Y-127188648D01*
X178459465Y-127140836D01*
X178515407Y-127127500D01*
X229188719Y-127127500D01*
X229255758Y-127147185D01*
X229276400Y-127163819D01*
X229674146Y-127561565D01*
X229707631Y-127622888D01*
X229709685Y-127635361D01*
X229714630Y-127679249D01*
X229774210Y-127849521D01*
X229850776Y-127971374D01*
X229870184Y-128002262D01*
X229997738Y-128129816D01*
X230150478Y-128225789D01*
X230219678Y-128250003D01*
X230320745Y-128285368D01*
X230320750Y-128285369D01*
X230499996Y-128305565D01*
X230500000Y-128305565D01*
X230500004Y-128305565D01*
X230679249Y-128285369D01*
X230679252Y-128285368D01*
X230679255Y-128285368D01*
X230849522Y-128225789D01*
X231002262Y-128129816D01*
X231129816Y-128002262D01*
X231225789Y-127849522D01*
X231285368Y-127679255D01*
X231292024Y-127620184D01*
X231305565Y-127500003D01*
X231305565Y-127499996D01*
X231285369Y-127320750D01*
X231285368Y-127320745D01*
X231262858Y-127256415D01*
X231225789Y-127150478D01*
X231129816Y-126997738D01*
X231002262Y-126870184D01*
X230980473Y-126856493D01*
X230934183Y-126804159D01*
X230923535Y-126735106D01*
X230951910Y-126671257D01*
X231010299Y-126632885D01*
X231046446Y-126627500D01*
X231438719Y-126627500D01*
X231505758Y-126647185D01*
X231526400Y-126663819D01*
X233174146Y-128311565D01*
X233207631Y-128372888D01*
X233209685Y-128385361D01*
X233214630Y-128429249D01*
X233274210Y-128599521D01*
X233352174Y-128723600D01*
X233370184Y-128752262D01*
X233497738Y-128879816D01*
X233650478Y-128975789D01*
X233755652Y-129012591D01*
X233820745Y-129035368D01*
X233820750Y-129035369D01*
X233999996Y-129055565D01*
X234000000Y-129055565D01*
X234000004Y-129055565D01*
X234179249Y-129035369D01*
X234179252Y-129035368D01*
X234179255Y-129035368D01*
X234349522Y-128975789D01*
X234502262Y-128879816D01*
X234629816Y-128752262D01*
X234725789Y-128599522D01*
X234785368Y-128429255D01*
X234788610Y-128400480D01*
X234805565Y-128250003D01*
X234805565Y-128249996D01*
X234785369Y-128070750D01*
X234785366Y-128070737D01*
X234750597Y-127971374D01*
X234747035Y-127901595D01*
X234781763Y-127840968D01*
X234843756Y-127808740D01*
X234913332Y-127815145D01*
X234955319Y-127842738D01*
X235924146Y-128811565D01*
X235957631Y-128872888D01*
X235959685Y-128885361D01*
X235964630Y-128929249D01*
X236024210Y-129099521D01*
X236104994Y-129228087D01*
X236120184Y-129252262D01*
X236247738Y-129379816D01*
X236400478Y-129475789D01*
X236570745Y-129535368D01*
X236570750Y-129535369D01*
X236749996Y-129555565D01*
X236750000Y-129555565D01*
X236750004Y-129555565D01*
X236929249Y-129535369D01*
X236929252Y-129535368D01*
X236929255Y-129535368D01*
X237099522Y-129475789D01*
X237252262Y-129379816D01*
X237379816Y-129252262D01*
X237395007Y-129228084D01*
X237447339Y-129181796D01*
X237516393Y-129171146D01*
X237580242Y-129199521D01*
X237604990Y-129228082D01*
X237620184Y-129252262D01*
X237747738Y-129379816D01*
X237900478Y-129475789D01*
X238070745Y-129535368D01*
X238070750Y-129535369D01*
X238249996Y-129555565D01*
X238250000Y-129555565D01*
X238250004Y-129555565D01*
X238429249Y-129535369D01*
X238429252Y-129535368D01*
X238429255Y-129535368D01*
X238599522Y-129475789D01*
X238752262Y-129379816D01*
X238879816Y-129252262D01*
X238975789Y-129099522D01*
X239035368Y-128929255D01*
X239035369Y-128929249D01*
X239055565Y-128750003D01*
X239055565Y-128749996D01*
X239035369Y-128570750D01*
X239035368Y-128570745D01*
X238988986Y-128438194D01*
X238975789Y-128400478D01*
X238966290Y-128385361D01*
X238903461Y-128285369D01*
X238879816Y-128247738D01*
X238752262Y-128120184D01*
X238720127Y-128099992D01*
X238599521Y-128024210D01*
X238470654Y-127979118D01*
X238438250Y-127967779D01*
X238391524Y-127938419D01*
X234965697Y-124512591D01*
X234965693Y-124512588D01*
X234862925Y-124443920D01*
X234862912Y-124443913D01*
X234829471Y-124430062D01*
X234748721Y-124396614D01*
X234748713Y-124396612D01*
X234627493Y-124372500D01*
X234627489Y-124372500D01*
X144061803Y-124372500D01*
X143938196Y-124372500D01*
X143938194Y-124372500D01*
X143816970Y-124396613D01*
X143816960Y-124396616D01*
X143702773Y-124443913D01*
X143702760Y-124443920D01*
X143599991Y-124512589D01*
X143599987Y-124512592D01*
X140971745Y-127140836D01*
X140099992Y-128012589D01*
X140056289Y-128056292D01*
X140012586Y-128099994D01*
X140012585Y-128099996D01*
X139943233Y-128203789D01*
X139941586Y-128208393D01*
X139896615Y-128316962D01*
X139896612Y-128316972D01*
X139880002Y-128400479D01*
X139880002Y-128400480D01*
X139872500Y-128438194D01*
X139872500Y-131453553D01*
X139852815Y-131520592D01*
X139800011Y-131566347D01*
X139730853Y-131576291D01*
X139667297Y-131547266D01*
X139643507Y-131519527D01*
X139631237Y-131500000D01*
X139629816Y-131497738D01*
X139502262Y-131370184D01*
X139349523Y-131274211D01*
X139179254Y-131214631D01*
X139179249Y-131214630D01*
X139000004Y-131194435D01*
X138999996Y-131194435D01*
X138847136Y-131211657D01*
X138778314Y-131199602D01*
X138728259Y-131154409D01*
X138653461Y-131035369D01*
X138629816Y-130997738D01*
X138502262Y-130870184D01*
X138451174Y-130838083D01*
X138349523Y-130774211D01*
X138179254Y-130714631D01*
X138179249Y-130714630D01*
X138000004Y-130694435D01*
X137999996Y-130694435D01*
X137820750Y-130714630D01*
X137820745Y-130714631D01*
X137650476Y-130774211D01*
X137497737Y-130870184D01*
X137370184Y-130997737D01*
X137274211Y-131150476D01*
X137214631Y-131320745D01*
X137214630Y-131320750D01*
X137194435Y-131499996D01*
X99000500Y-131499996D01*
X99000500Y-123124500D01*
X99020185Y-123057461D01*
X99072989Y-123011706D01*
X99124500Y-123000500D01*
X243876000Y-123000500D01*
X243943039Y-123020185D01*
G37*
%TD.AperFunction*%
%TD*%
M02*
