%TF.GenerationSoftware,KiCad,Pcbnew,8.0.2*%
%TF.CreationDate,2024-11-22T23:26:06-05:00*%
%TF.ProjectId,PCB_Ruler_V1_2024,5043425f-5275-46c6-9572-5f56315f3230,rev?*%
%TF.SameCoordinates,Original*%
%TF.FileFunction,Legend,Top*%
%TF.FilePolarity,Positive*%
%FSLAX46Y46*%
G04 Gerber Fmt 4.6, Leading zero omitted, Abs format (unit mm)*
G04 Created by KiCad (PCBNEW 8.0.2) date 2024-11-22 23:26:06*
%MOMM*%
%LPD*%
G01*
G04 APERTURE LIST*
%ADD10C,0.254000*%
%ADD11C,0.100000*%
%ADD12C,0.150000*%
%ADD13C,0.120000*%
%ADD14C,0.200000*%
%ADD15C,0.152400*%
%ADD16C,0.127000*%
G04 APERTURE END LIST*
D10*
X147469485Y-149547558D02*
X148437105Y-149547558D01*
X147669485Y-140347558D02*
X148637105Y-140347558D01*
X148153295Y-140831368D02*
X148153295Y-139863749D01*
X183400000Y-129400000D02*
X181600000Y-129400000D01*
X193400000Y-140200000D02*
X193400000Y-141337500D01*
X194400000Y-140200000D02*
X193400000Y-140200000D01*
X183200000Y-141400000D02*
X183200000Y-143200000D01*
X182200000Y-141400000D02*
X183200000Y-141400000D01*
X181400000Y-141400000D02*
X182200000Y-141400000D01*
D11*
X176503884Y-130672419D02*
X176503884Y-129672419D01*
X177170550Y-129672419D02*
X177361026Y-129672419D01*
X177361026Y-129672419D02*
X177456264Y-129720038D01*
X177456264Y-129720038D02*
X177551502Y-129815276D01*
X177551502Y-129815276D02*
X177599121Y-130005752D01*
X177599121Y-130005752D02*
X177599121Y-130339085D01*
X177599121Y-130339085D02*
X177551502Y-130529561D01*
X177551502Y-130529561D02*
X177456264Y-130624800D01*
X177456264Y-130624800D02*
X177361026Y-130672419D01*
X177361026Y-130672419D02*
X177170550Y-130672419D01*
X177170550Y-130672419D02*
X177075312Y-130624800D01*
X177075312Y-130624800D02*
X176980074Y-130529561D01*
X176980074Y-130529561D02*
X176932455Y-130339085D01*
X176932455Y-130339085D02*
X176932455Y-130005752D01*
X176932455Y-130005752D02*
X176980074Y-129815276D01*
X176980074Y-129815276D02*
X177075312Y-129720038D01*
X177075312Y-129720038D02*
X177170550Y-129672419D01*
X178170550Y-130100990D02*
X178075312Y-130053371D01*
X178075312Y-130053371D02*
X178027693Y-130005752D01*
X178027693Y-130005752D02*
X177980074Y-129910514D01*
X177980074Y-129910514D02*
X177980074Y-129862895D01*
X177980074Y-129862895D02*
X178027693Y-129767657D01*
X178027693Y-129767657D02*
X178075312Y-129720038D01*
X178075312Y-129720038D02*
X178170550Y-129672419D01*
X178170550Y-129672419D02*
X178361026Y-129672419D01*
X178361026Y-129672419D02*
X178456264Y-129720038D01*
X178456264Y-129720038D02*
X178503883Y-129767657D01*
X178503883Y-129767657D02*
X178551502Y-129862895D01*
X178551502Y-129862895D02*
X178551502Y-129910514D01*
X178551502Y-129910514D02*
X178503883Y-130005752D01*
X178503883Y-130005752D02*
X178456264Y-130053371D01*
X178456264Y-130053371D02*
X178361026Y-130100990D01*
X178361026Y-130100990D02*
X178170550Y-130100990D01*
X178170550Y-130100990D02*
X178075312Y-130148609D01*
X178075312Y-130148609D02*
X178027693Y-130196228D01*
X178027693Y-130196228D02*
X177980074Y-130291466D01*
X177980074Y-130291466D02*
X177980074Y-130481942D01*
X177980074Y-130481942D02*
X178027693Y-130577180D01*
X178027693Y-130577180D02*
X178075312Y-130624800D01*
X178075312Y-130624800D02*
X178170550Y-130672419D01*
X178170550Y-130672419D02*
X178361026Y-130672419D01*
X178361026Y-130672419D02*
X178456264Y-130624800D01*
X178456264Y-130624800D02*
X178503883Y-130577180D01*
X178503883Y-130577180D02*
X178551502Y-130481942D01*
X178551502Y-130481942D02*
X178551502Y-130291466D01*
X178551502Y-130291466D02*
X178503883Y-130196228D01*
X178503883Y-130196228D02*
X178456264Y-130148609D01*
X178456264Y-130148609D02*
X178361026Y-130100990D01*
X173303884Y-130672419D02*
X173303884Y-129672419D01*
X173970550Y-129672419D02*
X174161026Y-129672419D01*
X174161026Y-129672419D02*
X174256264Y-129720038D01*
X174256264Y-129720038D02*
X174351502Y-129815276D01*
X174351502Y-129815276D02*
X174399121Y-130005752D01*
X174399121Y-130005752D02*
X174399121Y-130339085D01*
X174399121Y-130339085D02*
X174351502Y-130529561D01*
X174351502Y-130529561D02*
X174256264Y-130624800D01*
X174256264Y-130624800D02*
X174161026Y-130672419D01*
X174161026Y-130672419D02*
X173970550Y-130672419D01*
X173970550Y-130672419D02*
X173875312Y-130624800D01*
X173875312Y-130624800D02*
X173780074Y-130529561D01*
X173780074Y-130529561D02*
X173732455Y-130339085D01*
X173732455Y-130339085D02*
X173732455Y-130005752D01*
X173732455Y-130005752D02*
X173780074Y-129815276D01*
X173780074Y-129815276D02*
X173875312Y-129720038D01*
X173875312Y-129720038D02*
X173970550Y-129672419D01*
X174732455Y-129672419D02*
X175399121Y-129672419D01*
X175399121Y-129672419D02*
X174970550Y-130672419D01*
X204361027Y-148472419D02*
X204932455Y-148472419D01*
X204646741Y-149472419D02*
X204646741Y-148472419D01*
X205170551Y-148472419D02*
X205837217Y-149472419D01*
X205837217Y-148472419D02*
X205170551Y-149472419D01*
X227580074Y-146672419D02*
X227103884Y-146672419D01*
X227103884Y-146672419D02*
X227056265Y-147148609D01*
X227056265Y-147148609D02*
X227103884Y-147100990D01*
X227103884Y-147100990D02*
X227199122Y-147053371D01*
X227199122Y-147053371D02*
X227437217Y-147053371D01*
X227437217Y-147053371D02*
X227532455Y-147100990D01*
X227532455Y-147100990D02*
X227580074Y-147148609D01*
X227580074Y-147148609D02*
X227627693Y-147243847D01*
X227627693Y-147243847D02*
X227627693Y-147481942D01*
X227627693Y-147481942D02*
X227580074Y-147577180D01*
X227580074Y-147577180D02*
X227532455Y-147624800D01*
X227532455Y-147624800D02*
X227437217Y-147672419D01*
X227437217Y-147672419D02*
X227199122Y-147672419D01*
X227199122Y-147672419D02*
X227103884Y-147624800D01*
X227103884Y-147624800D02*
X227056265Y-147577180D01*
X176208646Y-146672419D02*
X176827693Y-146672419D01*
X176827693Y-146672419D02*
X176494360Y-147053371D01*
X176494360Y-147053371D02*
X176637217Y-147053371D01*
X176637217Y-147053371D02*
X176732455Y-147100990D01*
X176732455Y-147100990D02*
X176780074Y-147148609D01*
X176780074Y-147148609D02*
X176827693Y-147243847D01*
X176827693Y-147243847D02*
X176827693Y-147481942D01*
X176827693Y-147481942D02*
X176780074Y-147577180D01*
X176780074Y-147577180D02*
X176732455Y-147624800D01*
X176732455Y-147624800D02*
X176637217Y-147672419D01*
X176637217Y-147672419D02*
X176351503Y-147672419D01*
X176351503Y-147672419D02*
X176256265Y-147624800D01*
X176256265Y-147624800D02*
X176208646Y-147577180D01*
X150856265Y-145767657D02*
X150903884Y-145720038D01*
X150903884Y-145720038D02*
X150999122Y-145672419D01*
X150999122Y-145672419D02*
X151237217Y-145672419D01*
X151237217Y-145672419D02*
X151332455Y-145720038D01*
X151332455Y-145720038D02*
X151380074Y-145767657D01*
X151380074Y-145767657D02*
X151427693Y-145862895D01*
X151427693Y-145862895D02*
X151427693Y-145958133D01*
X151427693Y-145958133D02*
X151380074Y-146100990D01*
X151380074Y-146100990D02*
X150808646Y-146672419D01*
X150808646Y-146672419D02*
X151427693Y-146672419D01*
X126027693Y-147671148D02*
X125456265Y-147671148D01*
X125741979Y-147671148D02*
X125741979Y-146671148D01*
X125741979Y-146671148D02*
X125646741Y-146814005D01*
X125646741Y-146814005D02*
X125551503Y-146909243D01*
X125551503Y-146909243D02*
X125456265Y-146956862D01*
X100294360Y-146672419D02*
X100389598Y-146672419D01*
X100389598Y-146672419D02*
X100484836Y-146720038D01*
X100484836Y-146720038D02*
X100532455Y-146767657D01*
X100532455Y-146767657D02*
X100580074Y-146862895D01*
X100580074Y-146862895D02*
X100627693Y-147053371D01*
X100627693Y-147053371D02*
X100627693Y-147291466D01*
X100627693Y-147291466D02*
X100580074Y-147481942D01*
X100580074Y-147481942D02*
X100532455Y-147577180D01*
X100532455Y-147577180D02*
X100484836Y-147624800D01*
X100484836Y-147624800D02*
X100389598Y-147672419D01*
X100389598Y-147672419D02*
X100294360Y-147672419D01*
X100294360Y-147672419D02*
X100199122Y-147624800D01*
X100199122Y-147624800D02*
X100151503Y-147577180D01*
X100151503Y-147577180D02*
X100103884Y-147481942D01*
X100103884Y-147481942D02*
X100056265Y-147291466D01*
X100056265Y-147291466D02*
X100056265Y-147053371D01*
X100056265Y-147053371D02*
X100103884Y-146862895D01*
X100103884Y-146862895D02*
X100151503Y-146767657D01*
X100151503Y-146767657D02*
X100199122Y-146720038D01*
X100199122Y-146720038D02*
X100294360Y-146672419D01*
X250327693Y-128372419D02*
X249756265Y-128372419D01*
X250041979Y-128372419D02*
X250041979Y-127372419D01*
X250041979Y-127372419D02*
X249946741Y-127515276D01*
X249946741Y-127515276D02*
X249851503Y-127610514D01*
X249851503Y-127610514D02*
X249756265Y-127658133D01*
X251232455Y-127372419D02*
X250756265Y-127372419D01*
X250756265Y-127372419D02*
X250708646Y-127848609D01*
X250708646Y-127848609D02*
X250756265Y-127800990D01*
X250756265Y-127800990D02*
X250851503Y-127753371D01*
X250851503Y-127753371D02*
X251089598Y-127753371D01*
X251089598Y-127753371D02*
X251184836Y-127800990D01*
X251184836Y-127800990D02*
X251232455Y-127848609D01*
X251232455Y-127848609D02*
X251280074Y-127943847D01*
X251280074Y-127943847D02*
X251280074Y-128181942D01*
X251280074Y-128181942D02*
X251232455Y-128277180D01*
X251232455Y-128277180D02*
X251184836Y-128324800D01*
X251184836Y-128324800D02*
X251089598Y-128372419D01*
X251089598Y-128372419D02*
X250851503Y-128372419D01*
X250851503Y-128372419D02*
X250756265Y-128324800D01*
X250756265Y-128324800D02*
X250708646Y-128277180D01*
X240527693Y-128372419D02*
X239956265Y-128372419D01*
X240241979Y-128372419D02*
X240241979Y-127372419D01*
X240241979Y-127372419D02*
X240146741Y-127515276D01*
X240146741Y-127515276D02*
X240051503Y-127610514D01*
X240051503Y-127610514D02*
X239956265Y-127658133D01*
X241384836Y-127705752D02*
X241384836Y-128372419D01*
X241146741Y-127324800D02*
X240908646Y-128039085D01*
X240908646Y-128039085D02*
X241527693Y-128039085D01*
X230327693Y-128372419D02*
X229756265Y-128372419D01*
X230041979Y-128372419D02*
X230041979Y-127372419D01*
X230041979Y-127372419D02*
X229946741Y-127515276D01*
X229946741Y-127515276D02*
X229851503Y-127610514D01*
X229851503Y-127610514D02*
X229756265Y-127658133D01*
X230661027Y-127372419D02*
X231280074Y-127372419D01*
X231280074Y-127372419D02*
X230946741Y-127753371D01*
X230946741Y-127753371D02*
X231089598Y-127753371D01*
X231089598Y-127753371D02*
X231184836Y-127800990D01*
X231184836Y-127800990D02*
X231232455Y-127848609D01*
X231232455Y-127848609D02*
X231280074Y-127943847D01*
X231280074Y-127943847D02*
X231280074Y-128181942D01*
X231280074Y-128181942D02*
X231232455Y-128277180D01*
X231232455Y-128277180D02*
X231184836Y-128324800D01*
X231184836Y-128324800D02*
X231089598Y-128372419D01*
X231089598Y-128372419D02*
X230803884Y-128372419D01*
X230803884Y-128372419D02*
X230708646Y-128324800D01*
X230708646Y-128324800D02*
X230661027Y-128277180D01*
X220327693Y-128372419D02*
X219756265Y-128372419D01*
X220041979Y-128372419D02*
X220041979Y-127372419D01*
X220041979Y-127372419D02*
X219946741Y-127515276D01*
X219946741Y-127515276D02*
X219851503Y-127610514D01*
X219851503Y-127610514D02*
X219756265Y-127658133D01*
X220708646Y-127467657D02*
X220756265Y-127420038D01*
X220756265Y-127420038D02*
X220851503Y-127372419D01*
X220851503Y-127372419D02*
X221089598Y-127372419D01*
X221089598Y-127372419D02*
X221184836Y-127420038D01*
X221184836Y-127420038D02*
X221232455Y-127467657D01*
X221232455Y-127467657D02*
X221280074Y-127562895D01*
X221280074Y-127562895D02*
X221280074Y-127658133D01*
X221280074Y-127658133D02*
X221232455Y-127800990D01*
X221232455Y-127800990D02*
X220661027Y-128372419D01*
X220661027Y-128372419D02*
X221280074Y-128372419D01*
X210327693Y-128372419D02*
X209756265Y-128372419D01*
X210041979Y-128372419D02*
X210041979Y-127372419D01*
X210041979Y-127372419D02*
X209946741Y-127515276D01*
X209946741Y-127515276D02*
X209851503Y-127610514D01*
X209851503Y-127610514D02*
X209756265Y-127658133D01*
X211280074Y-128372419D02*
X210708646Y-128372419D01*
X210994360Y-128372419D02*
X210994360Y-127372419D01*
X210994360Y-127372419D02*
X210899122Y-127515276D01*
X210899122Y-127515276D02*
X210803884Y-127610514D01*
X210803884Y-127610514D02*
X210708646Y-127658133D01*
X200327693Y-128372419D02*
X199756265Y-128372419D01*
X200041979Y-128372419D02*
X200041979Y-127372419D01*
X200041979Y-127372419D02*
X199946741Y-127515276D01*
X199946741Y-127515276D02*
X199851503Y-127610514D01*
X199851503Y-127610514D02*
X199756265Y-127658133D01*
X200946741Y-127372419D02*
X201041979Y-127372419D01*
X201041979Y-127372419D02*
X201137217Y-127420038D01*
X201137217Y-127420038D02*
X201184836Y-127467657D01*
X201184836Y-127467657D02*
X201232455Y-127562895D01*
X201232455Y-127562895D02*
X201280074Y-127753371D01*
X201280074Y-127753371D02*
X201280074Y-127991466D01*
X201280074Y-127991466D02*
X201232455Y-128181942D01*
X201232455Y-128181942D02*
X201184836Y-128277180D01*
X201184836Y-128277180D02*
X201137217Y-128324800D01*
X201137217Y-128324800D02*
X201041979Y-128372419D01*
X201041979Y-128372419D02*
X200946741Y-128372419D01*
X200946741Y-128372419D02*
X200851503Y-128324800D01*
X200851503Y-128324800D02*
X200803884Y-128277180D01*
X200803884Y-128277180D02*
X200756265Y-128181942D01*
X200756265Y-128181942D02*
X200708646Y-127991466D01*
X200708646Y-127991466D02*
X200708646Y-127753371D01*
X200708646Y-127753371D02*
X200756265Y-127562895D01*
X200756265Y-127562895D02*
X200803884Y-127467657D01*
X200803884Y-127467657D02*
X200851503Y-127420038D01*
X200851503Y-127420038D02*
X200946741Y-127372419D01*
X190351503Y-128372419D02*
X190541979Y-128372419D01*
X190541979Y-128372419D02*
X190637217Y-128324800D01*
X190637217Y-128324800D02*
X190684836Y-128277180D01*
X190684836Y-128277180D02*
X190780074Y-128134323D01*
X190780074Y-128134323D02*
X190827693Y-127943847D01*
X190827693Y-127943847D02*
X190827693Y-127562895D01*
X190827693Y-127562895D02*
X190780074Y-127467657D01*
X190780074Y-127467657D02*
X190732455Y-127420038D01*
X190732455Y-127420038D02*
X190637217Y-127372419D01*
X190637217Y-127372419D02*
X190446741Y-127372419D01*
X190446741Y-127372419D02*
X190351503Y-127420038D01*
X190351503Y-127420038D02*
X190303884Y-127467657D01*
X190303884Y-127467657D02*
X190256265Y-127562895D01*
X190256265Y-127562895D02*
X190256265Y-127800990D01*
X190256265Y-127800990D02*
X190303884Y-127896228D01*
X190303884Y-127896228D02*
X190351503Y-127943847D01*
X190351503Y-127943847D02*
X190446741Y-127991466D01*
X190446741Y-127991466D02*
X190637217Y-127991466D01*
X190637217Y-127991466D02*
X190732455Y-127943847D01*
X190732455Y-127943847D02*
X190780074Y-127896228D01*
X190780074Y-127896228D02*
X190827693Y-127800990D01*
X180446741Y-127800990D02*
X180351503Y-127753371D01*
X180351503Y-127753371D02*
X180303884Y-127705752D01*
X180303884Y-127705752D02*
X180256265Y-127610514D01*
X180256265Y-127610514D02*
X180256265Y-127562895D01*
X180256265Y-127562895D02*
X180303884Y-127467657D01*
X180303884Y-127467657D02*
X180351503Y-127420038D01*
X180351503Y-127420038D02*
X180446741Y-127372419D01*
X180446741Y-127372419D02*
X180637217Y-127372419D01*
X180637217Y-127372419D02*
X180732455Y-127420038D01*
X180732455Y-127420038D02*
X180780074Y-127467657D01*
X180780074Y-127467657D02*
X180827693Y-127562895D01*
X180827693Y-127562895D02*
X180827693Y-127610514D01*
X180827693Y-127610514D02*
X180780074Y-127705752D01*
X180780074Y-127705752D02*
X180732455Y-127753371D01*
X180732455Y-127753371D02*
X180637217Y-127800990D01*
X180637217Y-127800990D02*
X180446741Y-127800990D01*
X180446741Y-127800990D02*
X180351503Y-127848609D01*
X180351503Y-127848609D02*
X180303884Y-127896228D01*
X180303884Y-127896228D02*
X180256265Y-127991466D01*
X180256265Y-127991466D02*
X180256265Y-128181942D01*
X180256265Y-128181942D02*
X180303884Y-128277180D01*
X180303884Y-128277180D02*
X180351503Y-128324800D01*
X180351503Y-128324800D02*
X180446741Y-128372419D01*
X180446741Y-128372419D02*
X180637217Y-128372419D01*
X180637217Y-128372419D02*
X180732455Y-128324800D01*
X180732455Y-128324800D02*
X180780074Y-128277180D01*
X180780074Y-128277180D02*
X180827693Y-128181942D01*
X180827693Y-128181942D02*
X180827693Y-127991466D01*
X180827693Y-127991466D02*
X180780074Y-127896228D01*
X180780074Y-127896228D02*
X180732455Y-127848609D01*
X180732455Y-127848609D02*
X180637217Y-127800990D01*
X170208646Y-127372419D02*
X170875312Y-127372419D01*
X170875312Y-127372419D02*
X170446741Y-128372419D01*
X160732455Y-127372419D02*
X160541979Y-127372419D01*
X160541979Y-127372419D02*
X160446741Y-127420038D01*
X160446741Y-127420038D02*
X160399122Y-127467657D01*
X160399122Y-127467657D02*
X160303884Y-127610514D01*
X160303884Y-127610514D02*
X160256265Y-127800990D01*
X160256265Y-127800990D02*
X160256265Y-128181942D01*
X160256265Y-128181942D02*
X160303884Y-128277180D01*
X160303884Y-128277180D02*
X160351503Y-128324800D01*
X160351503Y-128324800D02*
X160446741Y-128372419D01*
X160446741Y-128372419D02*
X160637217Y-128372419D01*
X160637217Y-128372419D02*
X160732455Y-128324800D01*
X160732455Y-128324800D02*
X160780074Y-128277180D01*
X160780074Y-128277180D02*
X160827693Y-128181942D01*
X160827693Y-128181942D02*
X160827693Y-127943847D01*
X160827693Y-127943847D02*
X160780074Y-127848609D01*
X160780074Y-127848609D02*
X160732455Y-127800990D01*
X160732455Y-127800990D02*
X160637217Y-127753371D01*
X160637217Y-127753371D02*
X160446741Y-127753371D01*
X160446741Y-127753371D02*
X160351503Y-127800990D01*
X160351503Y-127800990D02*
X160303884Y-127848609D01*
X160303884Y-127848609D02*
X160256265Y-127943847D01*
X150780074Y-127272419D02*
X150303884Y-127272419D01*
X150303884Y-127272419D02*
X150256265Y-127748609D01*
X150256265Y-127748609D02*
X150303884Y-127700990D01*
X150303884Y-127700990D02*
X150399122Y-127653371D01*
X150399122Y-127653371D02*
X150637217Y-127653371D01*
X150637217Y-127653371D02*
X150732455Y-127700990D01*
X150732455Y-127700990D02*
X150780074Y-127748609D01*
X150780074Y-127748609D02*
X150827693Y-127843847D01*
X150827693Y-127843847D02*
X150827693Y-128081942D01*
X150827693Y-128081942D02*
X150780074Y-128177180D01*
X150780074Y-128177180D02*
X150732455Y-128224800D01*
X150732455Y-128224800D02*
X150637217Y-128272419D01*
X150637217Y-128272419D02*
X150399122Y-128272419D01*
X150399122Y-128272419D02*
X150303884Y-128224800D01*
X150303884Y-128224800D02*
X150256265Y-128177180D01*
X140732455Y-127705752D02*
X140732455Y-128372419D01*
X140494360Y-127324800D02*
X140256265Y-128039085D01*
X140256265Y-128039085D02*
X140875312Y-128039085D01*
X130208646Y-127372419D02*
X130827693Y-127372419D01*
X130827693Y-127372419D02*
X130494360Y-127753371D01*
X130494360Y-127753371D02*
X130637217Y-127753371D01*
X130637217Y-127753371D02*
X130732455Y-127800990D01*
X130732455Y-127800990D02*
X130780074Y-127848609D01*
X130780074Y-127848609D02*
X130827693Y-127943847D01*
X130827693Y-127943847D02*
X130827693Y-128181942D01*
X130827693Y-128181942D02*
X130780074Y-128277180D01*
X130780074Y-128277180D02*
X130732455Y-128324800D01*
X130732455Y-128324800D02*
X130637217Y-128372419D01*
X130637217Y-128372419D02*
X130351503Y-128372419D01*
X130351503Y-128372419D02*
X130256265Y-128324800D01*
X130256265Y-128324800D02*
X130208646Y-128277180D01*
X120256265Y-127467657D02*
X120303884Y-127420038D01*
X120303884Y-127420038D02*
X120399122Y-127372419D01*
X120399122Y-127372419D02*
X120637217Y-127372419D01*
X120637217Y-127372419D02*
X120732455Y-127420038D01*
X120732455Y-127420038D02*
X120780074Y-127467657D01*
X120780074Y-127467657D02*
X120827693Y-127562895D01*
X120827693Y-127562895D02*
X120827693Y-127658133D01*
X120827693Y-127658133D02*
X120780074Y-127800990D01*
X120780074Y-127800990D02*
X120208646Y-128372419D01*
X120208646Y-128372419D02*
X120827693Y-128372419D01*
X110827693Y-128372419D02*
X110256265Y-128372419D01*
X110541979Y-128372419D02*
X110541979Y-127372419D01*
X110541979Y-127372419D02*
X110446741Y-127515276D01*
X110446741Y-127515276D02*
X110351503Y-127610514D01*
X110351503Y-127610514D02*
X110256265Y-127658133D01*
X100494360Y-127122419D02*
X100589598Y-127122419D01*
X100589598Y-127122419D02*
X100684836Y-127170038D01*
X100684836Y-127170038D02*
X100732455Y-127217657D01*
X100732455Y-127217657D02*
X100780074Y-127312895D01*
X100780074Y-127312895D02*
X100827693Y-127503371D01*
X100827693Y-127503371D02*
X100827693Y-127741466D01*
X100827693Y-127741466D02*
X100780074Y-127931942D01*
X100780074Y-127931942D02*
X100732455Y-128027180D01*
X100732455Y-128027180D02*
X100684836Y-128074800D01*
X100684836Y-128074800D02*
X100589598Y-128122419D01*
X100589598Y-128122419D02*
X100494360Y-128122419D01*
X100494360Y-128122419D02*
X100399122Y-128074800D01*
X100399122Y-128074800D02*
X100351503Y-128027180D01*
X100351503Y-128027180D02*
X100303884Y-127931942D01*
X100303884Y-127931942D02*
X100256265Y-127741466D01*
X100256265Y-127741466D02*
X100256265Y-127503371D01*
X100256265Y-127503371D02*
X100303884Y-127312895D01*
X100303884Y-127312895D02*
X100351503Y-127217657D01*
X100351503Y-127217657D02*
X100399122Y-127170038D01*
X100399122Y-127170038D02*
X100494360Y-127122419D01*
X197625312Y-149372419D02*
X197291979Y-148896228D01*
X197053884Y-149372419D02*
X197053884Y-148372419D01*
X197053884Y-148372419D02*
X197434836Y-148372419D01*
X197434836Y-148372419D02*
X197530074Y-148420038D01*
X197530074Y-148420038D02*
X197577693Y-148467657D01*
X197577693Y-148467657D02*
X197625312Y-148562895D01*
X197625312Y-148562895D02*
X197625312Y-148705752D01*
X197625312Y-148705752D02*
X197577693Y-148800990D01*
X197577693Y-148800990D02*
X197530074Y-148848609D01*
X197530074Y-148848609D02*
X197434836Y-148896228D01*
X197434836Y-148896228D02*
X197053884Y-148896228D01*
X197958646Y-148372419D02*
X198625312Y-149372419D01*
X198625312Y-148372419D02*
X197958646Y-149372419D01*
X153500000Y-123390000D02*
X153500000Y-124390000D01*
X124198900Y-151474600D02*
X125799100Y-151474600D01*
X105000000Y-123390000D02*
X105000000Y-123890000D01*
X154500000Y-123390000D02*
X154500000Y-124390000D01*
X174500000Y-123390000D02*
X174500000Y-124390000D01*
X170500000Y-126390000D02*
X170500000Y-123390000D01*
X202024500Y-148579000D02*
X202024500Y-151500000D01*
X187500000Y-123390000D02*
X187500000Y-124390000D01*
X196500000Y-123390000D02*
X196500000Y-124390000D01*
X202500000Y-123390000D02*
X202500000Y-124390000D01*
X108000000Y-123390000D02*
X108000000Y-123890000D01*
X163873700Y-151474600D02*
X163873700Y-149772800D01*
X100373700Y-151474600D02*
X101948500Y-151474600D01*
X109924100Y-151474600D02*
X111524300Y-151474600D01*
X173424100Y-151474600D02*
X176599100Y-151474600D01*
X233500000Y-123390000D02*
X233500000Y-124390000D01*
X135324100Y-151474600D02*
X135324100Y-150560200D01*
X217500000Y-123390000D02*
X217500000Y-124390000D01*
X111524300Y-151474600D02*
X113099100Y-151474600D01*
X140500000Y-126390000D02*
X140500000Y-123390000D01*
X141674100Y-151474600D02*
X141674100Y-150585600D01*
X195500000Y-123390000D02*
X195500000Y-125390000D01*
X116274100Y-151474600D02*
X116274100Y-150560200D01*
X198824100Y-151500000D02*
X198824100Y-150585600D01*
X101000000Y-123390000D02*
X101000000Y-123890000D01*
X214500000Y-123390000D02*
X214500000Y-124390000D01*
X232500000Y-123390000D02*
X232500000Y-124390000D01*
X157500000Y-123390000D02*
X157500000Y-124390000D01*
X160724100Y-151474600D02*
X162324300Y-151474600D01*
X198500000Y-123390000D02*
X198500000Y-124390000D01*
X176624500Y-148579000D02*
X176624500Y-151500000D01*
X182500000Y-123390000D02*
X182500000Y-124390000D01*
X221500000Y-123390000D02*
X221500000Y-124390000D01*
X132500000Y-123390000D02*
X132500000Y-124390000D01*
X205174100Y-151500000D02*
X205174100Y-150585600D01*
X155500000Y-123390000D02*
X155500000Y-125390000D01*
X155948900Y-151474600D02*
X157549100Y-151474600D01*
X229500000Y-123390000D02*
X229500000Y-124390000D01*
X224274900Y-151500000D02*
X225849700Y-151500000D01*
X128974100Y-151474600D02*
X128974100Y-150560200D01*
X129500000Y-123390000D02*
X129500000Y-124390000D01*
X103000000Y-123390000D02*
X103000000Y-123890000D01*
X212500000Y-123390000D02*
X212500000Y-124390000D01*
X170249100Y-151474600D02*
X171849300Y-151474600D01*
X206500000Y-123390000D02*
X206500000Y-124390000D01*
X211524100Y-151500000D02*
X211524100Y-150585600D01*
X151173700Y-151474600D02*
X151173700Y-148553600D01*
X221099900Y-151500000D02*
X222700100Y-151500000D01*
X169500000Y-123390000D02*
X169500000Y-124390000D01*
X108500000Y-123390000D02*
X108500000Y-124390000D01*
X120500000Y-126390000D02*
X120500000Y-123390000D01*
X106749100Y-151474600D02*
X108349300Y-151474600D01*
X112500000Y-123390000D02*
X112500000Y-124390000D01*
X143500000Y-123390000D02*
X143500000Y-124390000D01*
X186500000Y-123390000D02*
X186500000Y-124390000D01*
X248500000Y-123390000D02*
X248500000Y-124390000D01*
X167048700Y-151474600D02*
X167048700Y-150585600D01*
X227399100Y-151500000D02*
X227399100Y-148579000D01*
X125799100Y-148553600D02*
X125799100Y-151474600D01*
X118500000Y-123390000D02*
X118500000Y-124390000D01*
X132149100Y-151474600D02*
X132149100Y-149772800D01*
X102500000Y-123390000D02*
X102500000Y-124390000D01*
X243500000Y-123390000D02*
X243500000Y-124390000D01*
X138524500Y-151474600D02*
X140124700Y-151474600D01*
X121049300Y-151474600D02*
X121049300Y-150992000D01*
X238500000Y-123390000D02*
X238500000Y-124390000D01*
X148024100Y-151474600D02*
X148024100Y-150560200D01*
X124198900Y-151474600D02*
X124198900Y-150992000D01*
X239500000Y-123390000D02*
X239500000Y-124390000D01*
X137500000Y-123390000D02*
X137500000Y-124390000D01*
X215500000Y-123390000D02*
X215500000Y-125390000D01*
X133774700Y-151474600D02*
X135349500Y-151474600D01*
X113099100Y-151474600D02*
X114699300Y-151474600D01*
X108349300Y-151474600D02*
X109924100Y-151474600D01*
X226500000Y-123390000D02*
X226500000Y-124390000D01*
X110000000Y-123390000D02*
X110000000Y-123890000D01*
X224500000Y-123390000D02*
X224500000Y-124390000D01*
X139500000Y-123390000D02*
X139500000Y-124390000D01*
X103574100Y-151474600D02*
X103574100Y-150560200D01*
X114500000Y-123390000D02*
X114500000Y-124390000D01*
X148500000Y-123390000D02*
X148500000Y-124390000D01*
X184600100Y-151500000D02*
X186174900Y-151500000D01*
X187775100Y-151500000D02*
X189349900Y-151500000D01*
X188500000Y-123390000D02*
X188500000Y-124390000D01*
X157549100Y-151474600D02*
X159149300Y-151474600D01*
X190500000Y-126390000D02*
X190500000Y-123390000D01*
X131500000Y-123390000D02*
X131500000Y-124390000D01*
X213500000Y-123390000D02*
X213500000Y-124390000D01*
X246500000Y-123390000D02*
X246500000Y-124390000D01*
X114699300Y-151474600D02*
X116274100Y-151474600D01*
X123500000Y-123390000D02*
X123500000Y-124390000D01*
X202024500Y-151500000D02*
X202024500Y-148579000D01*
X247500000Y-123390000D02*
X247500000Y-124390000D01*
X194125100Y-151500000D02*
X195699900Y-151500000D01*
X163899100Y-151474600D02*
X165499300Y-151474600D01*
X236500000Y-123390000D02*
X236500000Y-124390000D01*
X111524300Y-151474600D02*
X111524300Y-150992000D01*
X146474700Y-151474600D02*
X148049500Y-151474600D01*
X219525100Y-151500000D02*
X221099900Y-151500000D01*
X176624500Y-151500000D02*
X176624500Y-148579000D01*
X225849700Y-151500000D02*
X227399100Y-151500000D01*
X117874300Y-151474600D02*
X119449100Y-151474600D01*
X144500000Y-123390000D02*
X144500000Y-124390000D01*
X197300100Y-151500000D02*
X198874900Y-151500000D01*
X173398700Y-151474600D02*
X173398700Y-150560200D01*
X170223700Y-151474600D02*
X170223700Y-149772800D01*
X160500000Y-126390000D02*
X160500000Y-123390000D01*
X216500000Y-123390000D02*
X216500000Y-124390000D01*
X136500000Y-123390000D02*
X136500000Y-124390000D01*
X144849100Y-151474600D02*
X144849100Y-149772800D01*
X168674300Y-151474600D02*
X170249100Y-151474600D01*
X203599300Y-151500000D02*
X205224900Y-151500000D01*
X125799100Y-151474600D02*
X127373900Y-151474600D01*
X106000000Y-123390000D02*
X106000000Y-123890000D01*
X117874300Y-151474600D02*
X117874300Y-150992000D01*
X156500000Y-123390000D02*
X156500000Y-124390000D01*
X119449100Y-151474600D02*
X121049300Y-151474600D01*
X165499300Y-151474600D02*
X167074100Y-151474600D01*
X184500000Y-123390000D02*
X184500000Y-124390000D01*
X191500000Y-123390000D02*
X191500000Y-124390000D01*
X237500000Y-123390000D02*
X237500000Y-124390000D01*
X103500000Y-123390000D02*
X103500000Y-124390000D01*
X172500000Y-123390000D02*
X172500000Y-124390000D01*
X158500000Y-123390000D02*
X158500000Y-124390000D01*
X207500000Y-123390000D02*
X207500000Y-124390000D01*
X211574900Y-151500000D02*
X213175100Y-151500000D01*
X230500000Y-126390000D02*
X230500000Y-123390000D01*
X151173700Y-148553600D02*
X151173700Y-151474600D01*
X182999900Y-151500000D02*
X184600100Y-151500000D01*
X165500000Y-123390000D02*
X165500000Y-125390000D01*
X210000100Y-151500000D02*
X211574900Y-151500000D01*
X177500000Y-123390000D02*
X177500000Y-124390000D01*
X192474100Y-151500000D02*
X192474100Y-150611000D01*
X163500000Y-123390000D02*
X163500000Y-124390000D01*
X100373700Y-148553600D02*
X100373700Y-151474600D01*
X220500000Y-126390000D02*
X220500000Y-123390000D01*
X105500000Y-123390000D02*
X105500000Y-125390000D01*
X242500000Y-123390000D02*
X242500000Y-124390000D01*
X195699900Y-151500000D02*
X197300100Y-151500000D01*
X143299700Y-151474600D02*
X144874500Y-151474600D01*
X222500000Y-123390000D02*
X222500000Y-124390000D01*
X101948500Y-150992000D02*
X101948500Y-151474600D01*
X202024500Y-151500000D02*
X203599300Y-151500000D01*
X109000000Y-123390000D02*
X109000000Y-123890000D01*
X192500000Y-123390000D02*
X192500000Y-124390000D01*
X186124100Y-151500000D02*
X186124100Y-150585600D01*
X110500000Y-126390000D02*
X110500000Y-123390000D01*
X171500000Y-123390000D02*
X171500000Y-124390000D01*
X102000000Y-123390000D02*
X102000000Y-123890000D01*
X240500000Y-126390000D02*
X240500000Y-123390000D01*
X128999500Y-151474600D02*
X130574300Y-151474600D01*
X190950100Y-151500000D02*
X192524900Y-151500000D01*
X138500000Y-123390000D02*
X138500000Y-124390000D01*
X199500000Y-123390000D02*
X199500000Y-124390000D01*
X200500000Y-126390000D02*
X200500000Y-123390000D01*
X211500000Y-123390000D02*
X211500000Y-124390000D01*
X151173700Y-151474600D02*
X152748500Y-151474600D01*
X166500000Y-123390000D02*
X166500000Y-124390000D01*
X145500000Y-123390000D02*
X145500000Y-125390000D01*
X146500000Y-123390000D02*
X146500000Y-124390000D01*
X189324500Y-151500000D02*
X189324500Y-149798200D01*
X151500000Y-123390000D02*
X151500000Y-124390000D01*
X116274100Y-151474600D02*
X117874300Y-151474600D01*
X224224100Y-151500000D02*
X224224100Y-150585600D01*
X121049300Y-151474600D02*
X122624100Y-151474600D01*
X179824900Y-151500000D02*
X181399700Y-151500000D01*
X208500000Y-123390000D02*
X208500000Y-124390000D01*
X235500000Y-123390000D02*
X235500000Y-125390000D01*
X134500000Y-123390000D02*
X134500000Y-124390000D01*
X135500000Y-123390000D02*
X135500000Y-125390000D01*
X213175100Y-151500000D02*
X214749900Y-151500000D01*
X121500000Y-123390000D02*
X121500000Y-124390000D01*
X221049100Y-151487300D02*
X221049100Y-149785500D01*
X225500000Y-123390000D02*
X225500000Y-125390000D01*
X136949700Y-151474600D02*
X138524500Y-151474600D01*
X154374100Y-151474600D02*
X155948900Y-151474600D01*
X234500000Y-123390000D02*
X234500000Y-124390000D01*
X210500000Y-126390000D02*
X210500000Y-123390000D01*
X135349500Y-151474600D02*
X136949700Y-151474600D01*
X192524900Y-151500000D02*
X194125100Y-151500000D01*
X154348700Y-151474600D02*
X154348700Y-150560200D01*
X205500000Y-123390000D02*
X205500000Y-125390000D01*
X182949100Y-151500000D02*
X182949100Y-149798200D01*
X125500000Y-123390000D02*
X125500000Y-125390000D01*
X119500000Y-123390000D02*
X119500000Y-124390000D01*
X104500000Y-123390000D02*
X104500000Y-124390000D01*
X130500000Y-126390000D02*
X130500000Y-123390000D01*
X116500000Y-123390000D02*
X116500000Y-124390000D01*
X178500000Y-123390000D02*
X178500000Y-124390000D01*
X106749100Y-151474600D02*
X106749100Y-149772800D01*
X209500000Y-123390000D02*
X209500000Y-124390000D01*
X114699300Y-151474600D02*
X114699300Y-150992000D01*
X167074100Y-151474600D02*
X168674300Y-151474600D01*
X186174900Y-151500000D02*
X187775100Y-151500000D01*
X178199300Y-151500000D02*
X179824900Y-151500000D01*
X122500000Y-123390000D02*
X122500000Y-124390000D01*
X161500000Y-123390000D02*
X161500000Y-124390000D01*
X138499100Y-151474600D02*
X138499100Y-149772800D01*
X176599100Y-151474600D02*
X176599100Y-148553600D01*
X159149300Y-151474600D02*
X160724100Y-151474600D01*
X167500000Y-123390000D02*
X167500000Y-124390000D01*
X217924900Y-151500000D02*
X219525100Y-151500000D01*
X125799100Y-151474600D02*
X125799100Y-148553600D01*
X132174500Y-151474600D02*
X133774700Y-151474600D01*
X160698700Y-151474600D02*
X160698700Y-150560200D01*
X107000000Y-123390000D02*
X107000000Y-123890000D01*
X195649100Y-151500000D02*
X195649100Y-149798200D01*
X223500000Y-123390000D02*
X223500000Y-124390000D01*
X201500000Y-123390000D02*
X201500000Y-124390000D01*
X219500000Y-123390000D02*
X219500000Y-124390000D01*
X222700100Y-151500000D02*
X224274900Y-151500000D01*
X194500000Y-123390000D02*
X194500000Y-124390000D01*
X130574300Y-151474600D02*
X132174500Y-151474600D01*
X189349900Y-151500000D02*
X190950100Y-151500000D01*
X115500000Y-123390000D02*
X115500000Y-125390000D01*
X227500000Y-123390000D02*
X227500000Y-124390000D01*
X105148900Y-151474600D02*
X105148900Y-150992000D01*
X244500000Y-123390000D02*
X244500000Y-124390000D01*
X113099100Y-151474600D02*
X113099100Y-149772800D01*
X181399700Y-151500000D02*
X182999900Y-151500000D01*
X113500000Y-123390000D02*
X113500000Y-124390000D01*
X150500000Y-126390000D02*
X150500000Y-123390000D01*
X179500000Y-123390000D02*
X179500000Y-124390000D01*
X101948500Y-151474600D02*
X101948500Y-150992000D01*
X180500000Y-126390000D02*
X180500000Y-123390000D01*
X205224900Y-151500000D02*
X206799700Y-151500000D01*
X201999100Y-151500000D02*
X201999100Y-148579000D01*
X119449100Y-151474600D02*
X119449100Y-149772800D01*
X183500000Y-123390000D02*
X183500000Y-124390000D01*
X197500000Y-123390000D02*
X197500000Y-124390000D01*
X228500000Y-123390000D02*
X228500000Y-124390000D01*
X142500000Y-123390000D02*
X142500000Y-124390000D01*
X171849300Y-151474600D02*
X173424100Y-151474600D01*
X189500000Y-123390000D02*
X189500000Y-124390000D01*
X109500000Y-123390000D02*
X109500000Y-124390000D01*
X198874900Y-151500000D02*
X200449700Y-151500000D01*
X128500000Y-123390000D02*
X128500000Y-124390000D01*
X231500000Y-123390000D02*
X231500000Y-124390000D01*
X176624500Y-151500000D02*
X178199300Y-151500000D01*
X133500000Y-123390000D02*
X133500000Y-124390000D01*
X101948500Y-151474600D02*
X103574100Y-151474600D01*
X111500000Y-123390000D02*
X111500000Y-124390000D01*
X162500000Y-123390000D02*
X162500000Y-124390000D01*
X214724500Y-151500000D02*
X214724500Y-149798200D01*
X214749900Y-151500000D02*
X216350100Y-151500000D01*
X122624100Y-151474600D02*
X122624100Y-150560200D01*
X144874500Y-151474600D02*
X146474700Y-151474600D01*
X141699500Y-151474600D02*
X143299700Y-151474600D01*
X164500000Y-123390000D02*
X164500000Y-124390000D01*
X103574100Y-151474600D02*
X105148900Y-151474600D01*
X100500000Y-123390000D02*
X250500000Y-123390000D01*
X140124700Y-151474600D02*
X141699500Y-151474600D01*
X193500000Y-123390000D02*
X193500000Y-124390000D01*
X185500000Y-123390000D02*
X185500000Y-125390000D01*
X107500000Y-123390000D02*
X107500000Y-124390000D01*
X162324300Y-151474600D02*
X163899100Y-151474600D01*
X101500000Y-123390000D02*
X101500000Y-124390000D01*
X149500000Y-123390000D02*
X149500000Y-124390000D01*
X149624300Y-151474600D02*
X151173700Y-151474600D01*
X124500000Y-123390000D02*
X124500000Y-124390000D01*
X217874100Y-151500000D02*
X217874100Y-150611000D01*
X141500000Y-123390000D02*
X141500000Y-124390000D01*
X176500000Y-123390000D02*
X176500000Y-124390000D01*
X208349100Y-151500000D02*
X208349100Y-149798200D01*
X104000000Y-123390000D02*
X104000000Y-123890000D01*
X173500000Y-123390000D02*
X173500000Y-124390000D01*
X245500000Y-123390000D02*
X245500000Y-125390000D01*
X117500000Y-123390000D02*
X117500000Y-124390000D01*
X250500000Y-123390000D02*
X250500000Y-126390000D01*
X168500000Y-123390000D02*
X168500000Y-124390000D01*
X208399900Y-151500000D02*
X210000100Y-151500000D01*
X249500000Y-123390000D02*
X249500000Y-124390000D01*
X216350100Y-151500000D02*
X217924900Y-151500000D01*
X151173700Y-151474600D02*
X151173700Y-148553600D01*
X148049500Y-151474600D02*
X149624300Y-151474600D01*
X206799700Y-151500000D02*
X208399900Y-151500000D01*
X127500000Y-123390000D02*
X127500000Y-124390000D01*
X159500000Y-123390000D02*
X159500000Y-124390000D01*
X152748500Y-151474600D02*
X154374100Y-151474600D01*
X109924100Y-151474600D02*
X109924100Y-150560200D01*
X127373900Y-151474600D02*
X128999500Y-151474600D01*
X126500000Y-123390000D02*
X126500000Y-124390000D01*
X179774100Y-151500000D02*
X179774100Y-150585600D01*
X105148900Y-151474600D02*
X106749100Y-151474600D01*
X106500000Y-123390000D02*
X106500000Y-124390000D01*
X218500000Y-123390000D02*
X218500000Y-124390000D01*
X181500000Y-123390000D02*
X181500000Y-124390000D01*
X175500000Y-123390000D02*
X175500000Y-125390000D01*
X108349300Y-151474600D02*
X108349300Y-150992000D01*
X200449700Y-151500000D02*
X201999100Y-151500000D01*
X203500000Y-123390000D02*
X203500000Y-124390000D01*
X241500000Y-123390000D02*
X241500000Y-124390000D01*
X157523700Y-151474600D02*
X157523700Y-149772800D01*
X122624100Y-151474600D02*
X124198900Y-151474600D01*
X147500000Y-123390000D02*
X147500000Y-124390000D01*
X204500000Y-123390000D02*
X204500000Y-124390000D01*
X152500000Y-123390000D02*
X152500000Y-124390000D01*
X100500000Y-126390000D02*
X100500000Y-123390000D01*
D12*
X206954819Y-142761904D02*
X207764342Y-142761904D01*
X207764342Y-142761904D02*
X207859580Y-142714285D01*
X207859580Y-142714285D02*
X207907200Y-142666666D01*
X207907200Y-142666666D02*
X207954819Y-142571428D01*
X207954819Y-142571428D02*
X207954819Y-142380952D01*
X207954819Y-142380952D02*
X207907200Y-142285714D01*
X207907200Y-142285714D02*
X207859580Y-142238095D01*
X207859580Y-142238095D02*
X207764342Y-142190476D01*
X207764342Y-142190476D02*
X206954819Y-142190476D01*
X207050057Y-141761904D02*
X207002438Y-141714285D01*
X207002438Y-141714285D02*
X206954819Y-141619047D01*
X206954819Y-141619047D02*
X206954819Y-141380952D01*
X206954819Y-141380952D02*
X207002438Y-141285714D01*
X207002438Y-141285714D02*
X207050057Y-141238095D01*
X207050057Y-141238095D02*
X207145295Y-141190476D01*
X207145295Y-141190476D02*
X207240533Y-141190476D01*
X207240533Y-141190476D02*
X207383390Y-141238095D01*
X207383390Y-141238095D02*
X207954819Y-141809523D01*
X207954819Y-141809523D02*
X207954819Y-141190476D01*
X151754819Y-135055357D02*
X151278628Y-135388690D01*
X151754819Y-135626785D02*
X150754819Y-135626785D01*
X150754819Y-135626785D02*
X150754819Y-135245833D01*
X150754819Y-135245833D02*
X150802438Y-135150595D01*
X150802438Y-135150595D02*
X150850057Y-135102976D01*
X150850057Y-135102976D02*
X150945295Y-135055357D01*
X150945295Y-135055357D02*
X151088152Y-135055357D01*
X151088152Y-135055357D02*
X151183390Y-135102976D01*
X151183390Y-135102976D02*
X151231009Y-135150595D01*
X151231009Y-135150595D02*
X151278628Y-135245833D01*
X151278628Y-135245833D02*
X151278628Y-135626785D01*
X151754819Y-134102976D02*
X151754819Y-134674404D01*
X151754819Y-134388690D02*
X150754819Y-134388690D01*
X150754819Y-134388690D02*
X150897676Y-134483928D01*
X150897676Y-134483928D02*
X150992914Y-134579166D01*
X150992914Y-134579166D02*
X151040533Y-134674404D01*
X150754819Y-133198214D02*
X150754819Y-133674404D01*
X150754819Y-133674404D02*
X151231009Y-133722023D01*
X151231009Y-133722023D02*
X151183390Y-133674404D01*
X151183390Y-133674404D02*
X151135771Y-133579166D01*
X151135771Y-133579166D02*
X151135771Y-133341071D01*
X151135771Y-133341071D02*
X151183390Y-133245833D01*
X151183390Y-133245833D02*
X151231009Y-133198214D01*
X151231009Y-133198214D02*
X151326247Y-133150595D01*
X151326247Y-133150595D02*
X151564342Y-133150595D01*
X151564342Y-133150595D02*
X151659580Y-133198214D01*
X151659580Y-133198214D02*
X151707200Y-133245833D01*
X151707200Y-133245833D02*
X151754819Y-133341071D01*
X151754819Y-133341071D02*
X151754819Y-133579166D01*
X151754819Y-133579166D02*
X151707200Y-133674404D01*
X151707200Y-133674404D02*
X151659580Y-133722023D01*
X235774819Y-126666666D02*
X235298628Y-126999999D01*
X235774819Y-127238094D02*
X234774819Y-127238094D01*
X234774819Y-127238094D02*
X234774819Y-126857142D01*
X234774819Y-126857142D02*
X234822438Y-126761904D01*
X234822438Y-126761904D02*
X234870057Y-126714285D01*
X234870057Y-126714285D02*
X234965295Y-126666666D01*
X234965295Y-126666666D02*
X235108152Y-126666666D01*
X235108152Y-126666666D02*
X235203390Y-126714285D01*
X235203390Y-126714285D02*
X235251009Y-126761904D01*
X235251009Y-126761904D02*
X235298628Y-126857142D01*
X235298628Y-126857142D02*
X235298628Y-127238094D01*
X234870057Y-126285713D02*
X234822438Y-126238094D01*
X234822438Y-126238094D02*
X234774819Y-126142856D01*
X234774819Y-126142856D02*
X234774819Y-125904761D01*
X234774819Y-125904761D02*
X234822438Y-125809523D01*
X234822438Y-125809523D02*
X234870057Y-125761904D01*
X234870057Y-125761904D02*
X234965295Y-125714285D01*
X234965295Y-125714285D02*
X235060533Y-125714285D01*
X235060533Y-125714285D02*
X235203390Y-125761904D01*
X235203390Y-125761904D02*
X235774819Y-126333332D01*
X235774819Y-126333332D02*
X235774819Y-125714285D01*
X204786667Y-146448276D02*
X204786667Y-146905419D01*
X204786667Y-146905419D02*
X204756190Y-146996847D01*
X204756190Y-146996847D02*
X204695238Y-147057800D01*
X204695238Y-147057800D02*
X204603809Y-147088276D01*
X204603809Y-147088276D02*
X204542857Y-147088276D01*
X205365714Y-146661609D02*
X205365714Y-147088276D01*
X205213333Y-146417800D02*
X205060952Y-146874942D01*
X205060952Y-146874942D02*
X205457143Y-146874942D01*
X203920833Y-135024819D02*
X203587500Y-134548628D01*
X203349405Y-135024819D02*
X203349405Y-134024819D01*
X203349405Y-134024819D02*
X203730357Y-134024819D01*
X203730357Y-134024819D02*
X203825595Y-134072438D01*
X203825595Y-134072438D02*
X203873214Y-134120057D01*
X203873214Y-134120057D02*
X203920833Y-134215295D01*
X203920833Y-134215295D02*
X203920833Y-134358152D01*
X203920833Y-134358152D02*
X203873214Y-134453390D01*
X203873214Y-134453390D02*
X203825595Y-134501009D01*
X203825595Y-134501009D02*
X203730357Y-134548628D01*
X203730357Y-134548628D02*
X203349405Y-134548628D01*
X204254167Y-134024819D02*
X204920833Y-134024819D01*
X204920833Y-134024819D02*
X204492262Y-135024819D01*
X166833332Y-141482800D02*
X166690475Y-141435180D01*
X166690475Y-141435180D02*
X166452380Y-141435180D01*
X166452380Y-141435180D02*
X166357142Y-141482800D01*
X166357142Y-141482800D02*
X166309523Y-141530419D01*
X166309523Y-141530419D02*
X166261904Y-141625657D01*
X166261904Y-141625657D02*
X166261904Y-141720895D01*
X166261904Y-141720895D02*
X166309523Y-141816133D01*
X166309523Y-141816133D02*
X166357142Y-141863752D01*
X166357142Y-141863752D02*
X166452380Y-141911371D01*
X166452380Y-141911371D02*
X166642856Y-141958990D01*
X166642856Y-141958990D02*
X166738094Y-142006609D01*
X166738094Y-142006609D02*
X166785713Y-142054228D01*
X166785713Y-142054228D02*
X166833332Y-142149466D01*
X166833332Y-142149466D02*
X166833332Y-142244704D01*
X166833332Y-142244704D02*
X166785713Y-142339942D01*
X166785713Y-142339942D02*
X166738094Y-142387561D01*
X166738094Y-142387561D02*
X166642856Y-142435180D01*
X166642856Y-142435180D02*
X166404761Y-142435180D01*
X166404761Y-142435180D02*
X166261904Y-142387561D01*
X165928570Y-142435180D02*
X165690475Y-141435180D01*
X165690475Y-141435180D02*
X165499999Y-142149466D01*
X165499999Y-142149466D02*
X165309523Y-141435180D01*
X165309523Y-141435180D02*
X165071428Y-142435180D01*
X164261904Y-142435180D02*
X164452380Y-142435180D01*
X164452380Y-142435180D02*
X164547618Y-142387561D01*
X164547618Y-142387561D02*
X164595237Y-142339942D01*
X164595237Y-142339942D02*
X164690475Y-142197085D01*
X164690475Y-142197085D02*
X164738094Y-142006609D01*
X164738094Y-142006609D02*
X164738094Y-141625657D01*
X164738094Y-141625657D02*
X164690475Y-141530419D01*
X164690475Y-141530419D02*
X164642856Y-141482800D01*
X164642856Y-141482800D02*
X164547618Y-141435180D01*
X164547618Y-141435180D02*
X164357142Y-141435180D01*
X164357142Y-141435180D02*
X164261904Y-141482800D01*
X164261904Y-141482800D02*
X164214285Y-141530419D01*
X164214285Y-141530419D02*
X164166666Y-141625657D01*
X164166666Y-141625657D02*
X164166666Y-141863752D01*
X164166666Y-141863752D02*
X164214285Y-141958990D01*
X164214285Y-141958990D02*
X164261904Y-142006609D01*
X164261904Y-142006609D02*
X164357142Y-142054228D01*
X164357142Y-142054228D02*
X164547618Y-142054228D01*
X164547618Y-142054228D02*
X164642856Y-142006609D01*
X164642856Y-142006609D02*
X164690475Y-141958990D01*
X164690475Y-141958990D02*
X164738094Y-141863752D01*
X205934580Y-128579166D02*
X205982200Y-128626785D01*
X205982200Y-128626785D02*
X206029819Y-128769642D01*
X206029819Y-128769642D02*
X206029819Y-128864880D01*
X206029819Y-128864880D02*
X205982200Y-129007737D01*
X205982200Y-129007737D02*
X205886961Y-129102975D01*
X205886961Y-129102975D02*
X205791723Y-129150594D01*
X205791723Y-129150594D02*
X205601247Y-129198213D01*
X205601247Y-129198213D02*
X205458390Y-129198213D01*
X205458390Y-129198213D02*
X205267914Y-129150594D01*
X205267914Y-129150594D02*
X205172676Y-129102975D01*
X205172676Y-129102975D02*
X205077438Y-129007737D01*
X205077438Y-129007737D02*
X205029819Y-128864880D01*
X205029819Y-128864880D02*
X205029819Y-128769642D01*
X205029819Y-128769642D02*
X205077438Y-128626785D01*
X205077438Y-128626785D02*
X205125057Y-128579166D01*
X205029819Y-127674404D02*
X205029819Y-128150594D01*
X205029819Y-128150594D02*
X205506009Y-128198213D01*
X205506009Y-128198213D02*
X205458390Y-128150594D01*
X205458390Y-128150594D02*
X205410771Y-128055356D01*
X205410771Y-128055356D02*
X205410771Y-127817261D01*
X205410771Y-127817261D02*
X205458390Y-127722023D01*
X205458390Y-127722023D02*
X205506009Y-127674404D01*
X205506009Y-127674404D02*
X205601247Y-127626785D01*
X205601247Y-127626785D02*
X205839342Y-127626785D01*
X205839342Y-127626785D02*
X205934580Y-127674404D01*
X205934580Y-127674404D02*
X205982200Y-127722023D01*
X205982200Y-127722023D02*
X206029819Y-127817261D01*
X206029819Y-127817261D02*
X206029819Y-128055356D01*
X206029819Y-128055356D02*
X205982200Y-128150594D01*
X205982200Y-128150594D02*
X205934580Y-128198213D01*
X212859580Y-137666666D02*
X212907200Y-137714285D01*
X212907200Y-137714285D02*
X212954819Y-137857142D01*
X212954819Y-137857142D02*
X212954819Y-137952380D01*
X212954819Y-137952380D02*
X212907200Y-138095237D01*
X212907200Y-138095237D02*
X212811961Y-138190475D01*
X212811961Y-138190475D02*
X212716723Y-138238094D01*
X212716723Y-138238094D02*
X212526247Y-138285713D01*
X212526247Y-138285713D02*
X212383390Y-138285713D01*
X212383390Y-138285713D02*
X212192914Y-138238094D01*
X212192914Y-138238094D02*
X212097676Y-138190475D01*
X212097676Y-138190475D02*
X212002438Y-138095237D01*
X212002438Y-138095237D02*
X211954819Y-137952380D01*
X211954819Y-137952380D02*
X211954819Y-137857142D01*
X211954819Y-137857142D02*
X212002438Y-137714285D01*
X212002438Y-137714285D02*
X212050057Y-137666666D01*
X211954819Y-137333332D02*
X211954819Y-136714285D01*
X211954819Y-136714285D02*
X212335771Y-137047618D01*
X212335771Y-137047618D02*
X212335771Y-136904761D01*
X212335771Y-136904761D02*
X212383390Y-136809523D01*
X212383390Y-136809523D02*
X212431009Y-136761904D01*
X212431009Y-136761904D02*
X212526247Y-136714285D01*
X212526247Y-136714285D02*
X212764342Y-136714285D01*
X212764342Y-136714285D02*
X212859580Y-136761904D01*
X212859580Y-136761904D02*
X212907200Y-136809523D01*
X212907200Y-136809523D02*
X212954819Y-136904761D01*
X212954819Y-136904761D02*
X212954819Y-137190475D01*
X212954819Y-137190475D02*
X212907200Y-137285713D01*
X212907200Y-137285713D02*
X212859580Y-137333332D01*
X199333333Y-140017080D02*
X199285714Y-140064700D01*
X199285714Y-140064700D02*
X199142857Y-140112319D01*
X199142857Y-140112319D02*
X199047619Y-140112319D01*
X199047619Y-140112319D02*
X198904762Y-140064700D01*
X198904762Y-140064700D02*
X198809524Y-139969461D01*
X198809524Y-139969461D02*
X198761905Y-139874223D01*
X198761905Y-139874223D02*
X198714286Y-139683747D01*
X198714286Y-139683747D02*
X198714286Y-139540890D01*
X198714286Y-139540890D02*
X198761905Y-139350414D01*
X198761905Y-139350414D02*
X198809524Y-139255176D01*
X198809524Y-139255176D02*
X198904762Y-139159938D01*
X198904762Y-139159938D02*
X199047619Y-139112319D01*
X199047619Y-139112319D02*
X199142857Y-139112319D01*
X199142857Y-139112319D02*
X199285714Y-139159938D01*
X199285714Y-139159938D02*
X199333333Y-139207557D01*
X199904762Y-139540890D02*
X199809524Y-139493271D01*
X199809524Y-139493271D02*
X199761905Y-139445652D01*
X199761905Y-139445652D02*
X199714286Y-139350414D01*
X199714286Y-139350414D02*
X199714286Y-139302795D01*
X199714286Y-139302795D02*
X199761905Y-139207557D01*
X199761905Y-139207557D02*
X199809524Y-139159938D01*
X199809524Y-139159938D02*
X199904762Y-139112319D01*
X199904762Y-139112319D02*
X200095238Y-139112319D01*
X200095238Y-139112319D02*
X200190476Y-139159938D01*
X200190476Y-139159938D02*
X200238095Y-139207557D01*
X200238095Y-139207557D02*
X200285714Y-139302795D01*
X200285714Y-139302795D02*
X200285714Y-139350414D01*
X200285714Y-139350414D02*
X200238095Y-139445652D01*
X200238095Y-139445652D02*
X200190476Y-139493271D01*
X200190476Y-139493271D02*
X200095238Y-139540890D01*
X200095238Y-139540890D02*
X199904762Y-139540890D01*
X199904762Y-139540890D02*
X199809524Y-139588509D01*
X199809524Y-139588509D02*
X199761905Y-139636128D01*
X199761905Y-139636128D02*
X199714286Y-139731366D01*
X199714286Y-139731366D02*
X199714286Y-139921842D01*
X199714286Y-139921842D02*
X199761905Y-140017080D01*
X199761905Y-140017080D02*
X199809524Y-140064700D01*
X199809524Y-140064700D02*
X199904762Y-140112319D01*
X199904762Y-140112319D02*
X200095238Y-140112319D01*
X200095238Y-140112319D02*
X200190476Y-140064700D01*
X200190476Y-140064700D02*
X200238095Y-140017080D01*
X200238095Y-140017080D02*
X200285714Y-139921842D01*
X200285714Y-139921842D02*
X200285714Y-139731366D01*
X200285714Y-139731366D02*
X200238095Y-139636128D01*
X200238095Y-139636128D02*
X200190476Y-139588509D01*
X200190476Y-139588509D02*
X200095238Y-139540890D01*
X160407200Y-138583332D02*
X160454819Y-138440475D01*
X160454819Y-138440475D02*
X160454819Y-138202380D01*
X160454819Y-138202380D02*
X160407200Y-138107142D01*
X160407200Y-138107142D02*
X160359580Y-138059523D01*
X160359580Y-138059523D02*
X160264342Y-138011904D01*
X160264342Y-138011904D02*
X160169104Y-138011904D01*
X160169104Y-138011904D02*
X160073866Y-138059523D01*
X160073866Y-138059523D02*
X160026247Y-138107142D01*
X160026247Y-138107142D02*
X159978628Y-138202380D01*
X159978628Y-138202380D02*
X159931009Y-138392856D01*
X159931009Y-138392856D02*
X159883390Y-138488094D01*
X159883390Y-138488094D02*
X159835771Y-138535713D01*
X159835771Y-138535713D02*
X159740533Y-138583332D01*
X159740533Y-138583332D02*
X159645295Y-138583332D01*
X159645295Y-138583332D02*
X159550057Y-138535713D01*
X159550057Y-138535713D02*
X159502438Y-138488094D01*
X159502438Y-138488094D02*
X159454819Y-138392856D01*
X159454819Y-138392856D02*
X159454819Y-138154761D01*
X159454819Y-138154761D02*
X159502438Y-138011904D01*
X159454819Y-137678570D02*
X160454819Y-137440475D01*
X160454819Y-137440475D02*
X159740533Y-137249999D01*
X159740533Y-137249999D02*
X160454819Y-137059523D01*
X160454819Y-137059523D02*
X159454819Y-136821428D01*
X159454819Y-135964285D02*
X159454819Y-136440475D01*
X159454819Y-136440475D02*
X159931009Y-136488094D01*
X159931009Y-136488094D02*
X159883390Y-136440475D01*
X159883390Y-136440475D02*
X159835771Y-136345237D01*
X159835771Y-136345237D02*
X159835771Y-136107142D01*
X159835771Y-136107142D02*
X159883390Y-136011904D01*
X159883390Y-136011904D02*
X159931009Y-135964285D01*
X159931009Y-135964285D02*
X160026247Y-135916666D01*
X160026247Y-135916666D02*
X160264342Y-135916666D01*
X160264342Y-135916666D02*
X160359580Y-135964285D01*
X160359580Y-135964285D02*
X160407200Y-136011904D01*
X160407200Y-136011904D02*
X160454819Y-136107142D01*
X160454819Y-136107142D02*
X160454819Y-136345237D01*
X160454819Y-136345237D02*
X160407200Y-136440475D01*
X160407200Y-136440475D02*
X160359580Y-136488094D01*
X222333333Y-136024819D02*
X222000000Y-135548628D01*
X221761905Y-136024819D02*
X221761905Y-135024819D01*
X221761905Y-135024819D02*
X222142857Y-135024819D01*
X222142857Y-135024819D02*
X222238095Y-135072438D01*
X222238095Y-135072438D02*
X222285714Y-135120057D01*
X222285714Y-135120057D02*
X222333333Y-135215295D01*
X222333333Y-135215295D02*
X222333333Y-135358152D01*
X222333333Y-135358152D02*
X222285714Y-135453390D01*
X222285714Y-135453390D02*
X222238095Y-135501009D01*
X222238095Y-135501009D02*
X222142857Y-135548628D01*
X222142857Y-135548628D02*
X221761905Y-135548628D01*
X223190476Y-135358152D02*
X223190476Y-136024819D01*
X222952381Y-134977200D02*
X222714286Y-135691485D01*
X222714286Y-135691485D02*
X223333333Y-135691485D01*
X170357142Y-143634819D02*
X170023809Y-143158628D01*
X169785714Y-143634819D02*
X169785714Y-142634819D01*
X169785714Y-142634819D02*
X170166666Y-142634819D01*
X170166666Y-142634819D02*
X170261904Y-142682438D01*
X170261904Y-142682438D02*
X170309523Y-142730057D01*
X170309523Y-142730057D02*
X170357142Y-142825295D01*
X170357142Y-142825295D02*
X170357142Y-142968152D01*
X170357142Y-142968152D02*
X170309523Y-143063390D01*
X170309523Y-143063390D02*
X170261904Y-143111009D01*
X170261904Y-143111009D02*
X170166666Y-143158628D01*
X170166666Y-143158628D02*
X169785714Y-143158628D01*
X171309523Y-143634819D02*
X170738095Y-143634819D01*
X171023809Y-143634819D02*
X171023809Y-142634819D01*
X171023809Y-142634819D02*
X170928571Y-142777676D01*
X170928571Y-142777676D02*
X170833333Y-142872914D01*
X170833333Y-142872914D02*
X170738095Y-142920533D01*
X172166666Y-142634819D02*
X171976190Y-142634819D01*
X171976190Y-142634819D02*
X171880952Y-142682438D01*
X171880952Y-142682438D02*
X171833333Y-142730057D01*
X171833333Y-142730057D02*
X171738095Y-142872914D01*
X171738095Y-142872914D02*
X171690476Y-143063390D01*
X171690476Y-143063390D02*
X171690476Y-143444342D01*
X171690476Y-143444342D02*
X171738095Y-143539580D01*
X171738095Y-143539580D02*
X171785714Y-143587200D01*
X171785714Y-143587200D02*
X171880952Y-143634819D01*
X171880952Y-143634819D02*
X172071428Y-143634819D01*
X172071428Y-143634819D02*
X172166666Y-143587200D01*
X172166666Y-143587200D02*
X172214285Y-143539580D01*
X172214285Y-143539580D02*
X172261904Y-143444342D01*
X172261904Y-143444342D02*
X172261904Y-143206247D01*
X172261904Y-143206247D02*
X172214285Y-143111009D01*
X172214285Y-143111009D02*
X172166666Y-143063390D01*
X172166666Y-143063390D02*
X172071428Y-143015771D01*
X172071428Y-143015771D02*
X171880952Y-143015771D01*
X171880952Y-143015771D02*
X171785714Y-143063390D01*
X171785714Y-143063390D02*
X171738095Y-143111009D01*
X171738095Y-143111009D02*
X171690476Y-143206247D01*
X225833332Y-126528400D02*
X225690475Y-126480780D01*
X225690475Y-126480780D02*
X225452380Y-126480780D01*
X225452380Y-126480780D02*
X225357142Y-126528400D01*
X225357142Y-126528400D02*
X225309523Y-126576019D01*
X225309523Y-126576019D02*
X225261904Y-126671257D01*
X225261904Y-126671257D02*
X225261904Y-126766495D01*
X225261904Y-126766495D02*
X225309523Y-126861733D01*
X225309523Y-126861733D02*
X225357142Y-126909352D01*
X225357142Y-126909352D02*
X225452380Y-126956971D01*
X225452380Y-126956971D02*
X225642856Y-127004590D01*
X225642856Y-127004590D02*
X225738094Y-127052209D01*
X225738094Y-127052209D02*
X225785713Y-127099828D01*
X225785713Y-127099828D02*
X225833332Y-127195066D01*
X225833332Y-127195066D02*
X225833332Y-127290304D01*
X225833332Y-127290304D02*
X225785713Y-127385542D01*
X225785713Y-127385542D02*
X225738094Y-127433161D01*
X225738094Y-127433161D02*
X225642856Y-127480780D01*
X225642856Y-127480780D02*
X225404761Y-127480780D01*
X225404761Y-127480780D02*
X225261904Y-127433161D01*
X224928570Y-127480780D02*
X224690475Y-126480780D01*
X224690475Y-126480780D02*
X224499999Y-127195066D01*
X224499999Y-127195066D02*
X224309523Y-126480780D01*
X224309523Y-126480780D02*
X224071428Y-127480780D01*
X223738094Y-127385542D02*
X223690475Y-127433161D01*
X223690475Y-127433161D02*
X223595237Y-127480780D01*
X223595237Y-127480780D02*
X223357142Y-127480780D01*
X223357142Y-127480780D02*
X223261904Y-127433161D01*
X223261904Y-127433161D02*
X223214285Y-127385542D01*
X223214285Y-127385542D02*
X223166666Y-127290304D01*
X223166666Y-127290304D02*
X223166666Y-127195066D01*
X223166666Y-127195066D02*
X223214285Y-127052209D01*
X223214285Y-127052209D02*
X223785713Y-126480780D01*
X223785713Y-126480780D02*
X223166666Y-126480780D01*
X172386667Y-127848276D02*
X172386667Y-128305419D01*
X172386667Y-128305419D02*
X172356190Y-128396847D01*
X172356190Y-128396847D02*
X172295238Y-128457800D01*
X172295238Y-128457800D02*
X172203809Y-128488276D01*
X172203809Y-128488276D02*
X172142857Y-128488276D01*
X172996190Y-127848276D02*
X172691428Y-127848276D01*
X172691428Y-127848276D02*
X172660952Y-128153038D01*
X172660952Y-128153038D02*
X172691428Y-128122561D01*
X172691428Y-128122561D02*
X172752381Y-128092085D01*
X172752381Y-128092085D02*
X172904762Y-128092085D01*
X172904762Y-128092085D02*
X172965714Y-128122561D01*
X172965714Y-128122561D02*
X172996190Y-128153038D01*
X172996190Y-128153038D02*
X173026667Y-128213990D01*
X173026667Y-128213990D02*
X173026667Y-128366371D01*
X173026667Y-128366371D02*
X172996190Y-128427323D01*
X172996190Y-128427323D02*
X172965714Y-128457800D01*
X172965714Y-128457800D02*
X172904762Y-128488276D01*
X172904762Y-128488276D02*
X172752381Y-128488276D01*
X172752381Y-128488276D02*
X172691428Y-128457800D01*
X172691428Y-128457800D02*
X172660952Y-128427323D01*
X227261905Y-144254819D02*
X227261905Y-143254819D01*
X227261905Y-143254819D02*
X227500000Y-143254819D01*
X227500000Y-143254819D02*
X227642857Y-143302438D01*
X227642857Y-143302438D02*
X227738095Y-143397676D01*
X227738095Y-143397676D02*
X227785714Y-143492914D01*
X227785714Y-143492914D02*
X227833333Y-143683390D01*
X227833333Y-143683390D02*
X227833333Y-143826247D01*
X227833333Y-143826247D02*
X227785714Y-144016723D01*
X227785714Y-144016723D02*
X227738095Y-144111961D01*
X227738095Y-144111961D02*
X227642857Y-144207200D01*
X227642857Y-144207200D02*
X227500000Y-144254819D01*
X227500000Y-144254819D02*
X227261905Y-144254819D01*
X228785714Y-144254819D02*
X228214286Y-144254819D01*
X228500000Y-144254819D02*
X228500000Y-143254819D01*
X228500000Y-143254819D02*
X228404762Y-143397676D01*
X228404762Y-143397676D02*
X228309524Y-143492914D01*
X228309524Y-143492914D02*
X228214286Y-143540533D01*
X170592800Y-135916667D02*
X170545180Y-136059524D01*
X170545180Y-136059524D02*
X170545180Y-136297619D01*
X170545180Y-136297619D02*
X170592800Y-136392857D01*
X170592800Y-136392857D02*
X170640419Y-136440476D01*
X170640419Y-136440476D02*
X170735657Y-136488095D01*
X170735657Y-136488095D02*
X170830895Y-136488095D01*
X170830895Y-136488095D02*
X170926133Y-136440476D01*
X170926133Y-136440476D02*
X170973752Y-136392857D01*
X170973752Y-136392857D02*
X171021371Y-136297619D01*
X171021371Y-136297619D02*
X171068990Y-136107143D01*
X171068990Y-136107143D02*
X171116609Y-136011905D01*
X171116609Y-136011905D02*
X171164228Y-135964286D01*
X171164228Y-135964286D02*
X171259466Y-135916667D01*
X171259466Y-135916667D02*
X171354704Y-135916667D01*
X171354704Y-135916667D02*
X171449942Y-135964286D01*
X171449942Y-135964286D02*
X171497561Y-136011905D01*
X171497561Y-136011905D02*
X171545180Y-136107143D01*
X171545180Y-136107143D02*
X171545180Y-136345238D01*
X171545180Y-136345238D02*
X171497561Y-136488095D01*
X171545180Y-136821429D02*
X170545180Y-137059524D01*
X170545180Y-137059524D02*
X171259466Y-137250000D01*
X171259466Y-137250000D02*
X170545180Y-137440476D01*
X170545180Y-137440476D02*
X171545180Y-137678572D01*
X171211847Y-138488095D02*
X170545180Y-138488095D01*
X171592800Y-138250000D02*
X170878514Y-138011905D01*
X170878514Y-138011905D02*
X170878514Y-138630952D01*
X164166667Y-133157200D02*
X164309524Y-133204819D01*
X164309524Y-133204819D02*
X164547619Y-133204819D01*
X164547619Y-133204819D02*
X164642857Y-133157200D01*
X164642857Y-133157200D02*
X164690476Y-133109580D01*
X164690476Y-133109580D02*
X164738095Y-133014342D01*
X164738095Y-133014342D02*
X164738095Y-132919104D01*
X164738095Y-132919104D02*
X164690476Y-132823866D01*
X164690476Y-132823866D02*
X164642857Y-132776247D01*
X164642857Y-132776247D02*
X164547619Y-132728628D01*
X164547619Y-132728628D02*
X164357143Y-132681009D01*
X164357143Y-132681009D02*
X164261905Y-132633390D01*
X164261905Y-132633390D02*
X164214286Y-132585771D01*
X164214286Y-132585771D02*
X164166667Y-132490533D01*
X164166667Y-132490533D02*
X164166667Y-132395295D01*
X164166667Y-132395295D02*
X164214286Y-132300057D01*
X164214286Y-132300057D02*
X164261905Y-132252438D01*
X164261905Y-132252438D02*
X164357143Y-132204819D01*
X164357143Y-132204819D02*
X164595238Y-132204819D01*
X164595238Y-132204819D02*
X164738095Y-132252438D01*
X165071429Y-132204819D02*
X165309524Y-133204819D01*
X165309524Y-133204819D02*
X165500000Y-132490533D01*
X165500000Y-132490533D02*
X165690476Y-133204819D01*
X165690476Y-133204819D02*
X165928572Y-132204819D01*
X166214286Y-132204819D02*
X166833333Y-132204819D01*
X166833333Y-132204819D02*
X166500000Y-132585771D01*
X166500000Y-132585771D02*
X166642857Y-132585771D01*
X166642857Y-132585771D02*
X166738095Y-132633390D01*
X166738095Y-132633390D02*
X166785714Y-132681009D01*
X166785714Y-132681009D02*
X166833333Y-132776247D01*
X166833333Y-132776247D02*
X166833333Y-133014342D01*
X166833333Y-133014342D02*
X166785714Y-133109580D01*
X166785714Y-133109580D02*
X166738095Y-133157200D01*
X166738095Y-133157200D02*
X166642857Y-133204819D01*
X166642857Y-133204819D02*
X166357143Y-133204819D01*
X166357143Y-133204819D02*
X166261905Y-133157200D01*
X166261905Y-133157200D02*
X166214286Y-133109580D01*
X208024819Y-137666666D02*
X207548628Y-137999999D01*
X208024819Y-138238094D02*
X207024819Y-138238094D01*
X207024819Y-138238094D02*
X207024819Y-137857142D01*
X207024819Y-137857142D02*
X207072438Y-137761904D01*
X207072438Y-137761904D02*
X207120057Y-137714285D01*
X207120057Y-137714285D02*
X207215295Y-137666666D01*
X207215295Y-137666666D02*
X207358152Y-137666666D01*
X207358152Y-137666666D02*
X207453390Y-137714285D01*
X207453390Y-137714285D02*
X207501009Y-137761904D01*
X207501009Y-137761904D02*
X207548628Y-137857142D01*
X207548628Y-137857142D02*
X207548628Y-138238094D01*
X207024819Y-136809523D02*
X207024819Y-136999999D01*
X207024819Y-136999999D02*
X207072438Y-137095237D01*
X207072438Y-137095237D02*
X207120057Y-137142856D01*
X207120057Y-137142856D02*
X207262914Y-137238094D01*
X207262914Y-137238094D02*
X207453390Y-137285713D01*
X207453390Y-137285713D02*
X207834342Y-137285713D01*
X207834342Y-137285713D02*
X207929580Y-137238094D01*
X207929580Y-137238094D02*
X207977200Y-137190475D01*
X207977200Y-137190475D02*
X208024819Y-137095237D01*
X208024819Y-137095237D02*
X208024819Y-136904761D01*
X208024819Y-136904761D02*
X207977200Y-136809523D01*
X207977200Y-136809523D02*
X207929580Y-136761904D01*
X207929580Y-136761904D02*
X207834342Y-136714285D01*
X207834342Y-136714285D02*
X207596247Y-136714285D01*
X207596247Y-136714285D02*
X207501009Y-136761904D01*
X207501009Y-136761904D02*
X207453390Y-136809523D01*
X207453390Y-136809523D02*
X207405771Y-136904761D01*
X207405771Y-136904761D02*
X207405771Y-137095237D01*
X207405771Y-137095237D02*
X207453390Y-137190475D01*
X207453390Y-137190475D02*
X207501009Y-137238094D01*
X207501009Y-137238094D02*
X207596247Y-137285713D01*
X208024819Y-146666666D02*
X207548628Y-146999999D01*
X208024819Y-147238094D02*
X207024819Y-147238094D01*
X207024819Y-147238094D02*
X207024819Y-146857142D01*
X207024819Y-146857142D02*
X207072438Y-146761904D01*
X207072438Y-146761904D02*
X207120057Y-146714285D01*
X207120057Y-146714285D02*
X207215295Y-146666666D01*
X207215295Y-146666666D02*
X207358152Y-146666666D01*
X207358152Y-146666666D02*
X207453390Y-146714285D01*
X207453390Y-146714285D02*
X207501009Y-146761904D01*
X207501009Y-146761904D02*
X207548628Y-146857142D01*
X207548628Y-146857142D02*
X207548628Y-147238094D01*
X207024819Y-145761904D02*
X207024819Y-146238094D01*
X207024819Y-146238094D02*
X207501009Y-146285713D01*
X207501009Y-146285713D02*
X207453390Y-146238094D01*
X207453390Y-146238094D02*
X207405771Y-146142856D01*
X207405771Y-146142856D02*
X207405771Y-145904761D01*
X207405771Y-145904761D02*
X207453390Y-145809523D01*
X207453390Y-145809523D02*
X207501009Y-145761904D01*
X207501009Y-145761904D02*
X207596247Y-145714285D01*
X207596247Y-145714285D02*
X207834342Y-145714285D01*
X207834342Y-145714285D02*
X207929580Y-145761904D01*
X207929580Y-145761904D02*
X207977200Y-145809523D01*
X207977200Y-145809523D02*
X208024819Y-145904761D01*
X208024819Y-145904761D02*
X208024819Y-146142856D01*
X208024819Y-146142856D02*
X207977200Y-146238094D01*
X207977200Y-146238094D02*
X207929580Y-146285713D01*
X159357142Y-131774819D02*
X159023809Y-131298628D01*
X158785714Y-131774819D02*
X158785714Y-130774819D01*
X158785714Y-130774819D02*
X159166666Y-130774819D01*
X159166666Y-130774819D02*
X159261904Y-130822438D01*
X159261904Y-130822438D02*
X159309523Y-130870057D01*
X159309523Y-130870057D02*
X159357142Y-130965295D01*
X159357142Y-130965295D02*
X159357142Y-131108152D01*
X159357142Y-131108152D02*
X159309523Y-131203390D01*
X159309523Y-131203390D02*
X159261904Y-131251009D01*
X159261904Y-131251009D02*
X159166666Y-131298628D01*
X159166666Y-131298628D02*
X158785714Y-131298628D01*
X160309523Y-131774819D02*
X159738095Y-131774819D01*
X160023809Y-131774819D02*
X160023809Y-130774819D01*
X160023809Y-130774819D02*
X159928571Y-130917676D01*
X159928571Y-130917676D02*
X159833333Y-131012914D01*
X159833333Y-131012914D02*
X159738095Y-131060533D01*
X160690476Y-130870057D02*
X160738095Y-130822438D01*
X160738095Y-130822438D02*
X160833333Y-130774819D01*
X160833333Y-130774819D02*
X161071428Y-130774819D01*
X161071428Y-130774819D02*
X161166666Y-130822438D01*
X161166666Y-130822438D02*
X161214285Y-130870057D01*
X161214285Y-130870057D02*
X161261904Y-130965295D01*
X161261904Y-130965295D02*
X161261904Y-131060533D01*
X161261904Y-131060533D02*
X161214285Y-131203390D01*
X161214285Y-131203390D02*
X160642857Y-131774819D01*
X160642857Y-131774819D02*
X161261904Y-131774819D01*
X244109580Y-126666666D02*
X244157200Y-126714285D01*
X244157200Y-126714285D02*
X244204819Y-126857142D01*
X244204819Y-126857142D02*
X244204819Y-126952380D01*
X244204819Y-126952380D02*
X244157200Y-127095237D01*
X244157200Y-127095237D02*
X244061961Y-127190475D01*
X244061961Y-127190475D02*
X243966723Y-127238094D01*
X243966723Y-127238094D02*
X243776247Y-127285713D01*
X243776247Y-127285713D02*
X243633390Y-127285713D01*
X243633390Y-127285713D02*
X243442914Y-127238094D01*
X243442914Y-127238094D02*
X243347676Y-127190475D01*
X243347676Y-127190475D02*
X243252438Y-127095237D01*
X243252438Y-127095237D02*
X243204819Y-126952380D01*
X243204819Y-126952380D02*
X243204819Y-126857142D01*
X243204819Y-126857142D02*
X243252438Y-126714285D01*
X243252438Y-126714285D02*
X243300057Y-126666666D01*
X243300057Y-126285713D02*
X243252438Y-126238094D01*
X243252438Y-126238094D02*
X243204819Y-126142856D01*
X243204819Y-126142856D02*
X243204819Y-125904761D01*
X243204819Y-125904761D02*
X243252438Y-125809523D01*
X243252438Y-125809523D02*
X243300057Y-125761904D01*
X243300057Y-125761904D02*
X243395295Y-125714285D01*
X243395295Y-125714285D02*
X243490533Y-125714285D01*
X243490533Y-125714285D02*
X243633390Y-125761904D01*
X243633390Y-125761904D02*
X244204819Y-126333332D01*
X244204819Y-126333332D02*
X244204819Y-125714285D01*
X224861905Y-144254819D02*
X224861905Y-143254819D01*
X224861905Y-143254819D02*
X225100000Y-143254819D01*
X225100000Y-143254819D02*
X225242857Y-143302438D01*
X225242857Y-143302438D02*
X225338095Y-143397676D01*
X225338095Y-143397676D02*
X225385714Y-143492914D01*
X225385714Y-143492914D02*
X225433333Y-143683390D01*
X225433333Y-143683390D02*
X225433333Y-143826247D01*
X225433333Y-143826247D02*
X225385714Y-144016723D01*
X225385714Y-144016723D02*
X225338095Y-144111961D01*
X225338095Y-144111961D02*
X225242857Y-144207200D01*
X225242857Y-144207200D02*
X225100000Y-144254819D01*
X225100000Y-144254819D02*
X224861905Y-144254819D01*
X225814286Y-143350057D02*
X225861905Y-143302438D01*
X225861905Y-143302438D02*
X225957143Y-143254819D01*
X225957143Y-143254819D02*
X226195238Y-143254819D01*
X226195238Y-143254819D02*
X226290476Y-143302438D01*
X226290476Y-143302438D02*
X226338095Y-143350057D01*
X226338095Y-143350057D02*
X226385714Y-143445295D01*
X226385714Y-143445295D02*
X226385714Y-143540533D01*
X226385714Y-143540533D02*
X226338095Y-143683390D01*
X226338095Y-143683390D02*
X225766667Y-144254819D01*
X225766667Y-144254819D02*
X226385714Y-144254819D01*
X199907200Y-133261904D02*
X199954819Y-133119047D01*
X199954819Y-133119047D02*
X199954819Y-132880952D01*
X199954819Y-132880952D02*
X199907200Y-132785714D01*
X199907200Y-132785714D02*
X199859580Y-132738095D01*
X199859580Y-132738095D02*
X199764342Y-132690476D01*
X199764342Y-132690476D02*
X199669104Y-132690476D01*
X199669104Y-132690476D02*
X199573866Y-132738095D01*
X199573866Y-132738095D02*
X199526247Y-132785714D01*
X199526247Y-132785714D02*
X199478628Y-132880952D01*
X199478628Y-132880952D02*
X199431009Y-133071428D01*
X199431009Y-133071428D02*
X199383390Y-133166666D01*
X199383390Y-133166666D02*
X199335771Y-133214285D01*
X199335771Y-133214285D02*
X199240533Y-133261904D01*
X199240533Y-133261904D02*
X199145295Y-133261904D01*
X199145295Y-133261904D02*
X199050057Y-133214285D01*
X199050057Y-133214285D02*
X199002438Y-133166666D01*
X199002438Y-133166666D02*
X198954819Y-133071428D01*
X198954819Y-133071428D02*
X198954819Y-132833333D01*
X198954819Y-132833333D02*
X199002438Y-132690476D01*
X199954819Y-131738095D02*
X199954819Y-132309523D01*
X199954819Y-132023809D02*
X198954819Y-132023809D01*
X198954819Y-132023809D02*
X199097676Y-132119047D01*
X199097676Y-132119047D02*
X199192914Y-132214285D01*
X199192914Y-132214285D02*
X199240533Y-132309523D01*
X195333333Y-147947080D02*
X195285714Y-147994700D01*
X195285714Y-147994700D02*
X195142857Y-148042319D01*
X195142857Y-148042319D02*
X195047619Y-148042319D01*
X195047619Y-148042319D02*
X194904762Y-147994700D01*
X194904762Y-147994700D02*
X194809524Y-147899461D01*
X194809524Y-147899461D02*
X194761905Y-147804223D01*
X194761905Y-147804223D02*
X194714286Y-147613747D01*
X194714286Y-147613747D02*
X194714286Y-147470890D01*
X194714286Y-147470890D02*
X194761905Y-147280414D01*
X194761905Y-147280414D02*
X194809524Y-147185176D01*
X194809524Y-147185176D02*
X194904762Y-147089938D01*
X194904762Y-147089938D02*
X195047619Y-147042319D01*
X195047619Y-147042319D02*
X195142857Y-147042319D01*
X195142857Y-147042319D02*
X195285714Y-147089938D01*
X195285714Y-147089938D02*
X195333333Y-147137557D01*
X195666667Y-147042319D02*
X196333333Y-147042319D01*
X196333333Y-147042319D02*
X195904762Y-148042319D01*
X183559607Y-140242856D02*
X183607227Y-140290475D01*
X183607227Y-140290475D02*
X183654846Y-140433332D01*
X183654846Y-140433332D02*
X183654846Y-140528570D01*
X183654846Y-140528570D02*
X183607227Y-140671427D01*
X183607227Y-140671427D02*
X183511988Y-140766665D01*
X183511988Y-140766665D02*
X183416750Y-140814284D01*
X183416750Y-140814284D02*
X183226274Y-140861903D01*
X183226274Y-140861903D02*
X183083417Y-140861903D01*
X183083417Y-140861903D02*
X182892941Y-140814284D01*
X182892941Y-140814284D02*
X182797703Y-140766665D01*
X182797703Y-140766665D02*
X182702465Y-140671427D01*
X182702465Y-140671427D02*
X182654846Y-140528570D01*
X182654846Y-140528570D02*
X182654846Y-140433332D01*
X182654846Y-140433332D02*
X182702465Y-140290475D01*
X182702465Y-140290475D02*
X182750084Y-140242856D01*
X183654846Y-139290475D02*
X183654846Y-139861903D01*
X183654846Y-139576189D02*
X182654846Y-139576189D01*
X182654846Y-139576189D02*
X182797703Y-139671427D01*
X182797703Y-139671427D02*
X182892941Y-139766665D01*
X182892941Y-139766665D02*
X182940560Y-139861903D01*
X183654846Y-138338094D02*
X183654846Y-138909522D01*
X183654846Y-138623808D02*
X182654846Y-138623808D01*
X182654846Y-138623808D02*
X182797703Y-138719046D01*
X182797703Y-138719046D02*
X182892941Y-138814284D01*
X182892941Y-138814284D02*
X182940560Y-138909522D01*
X212789580Y-146666666D02*
X212837200Y-146714285D01*
X212837200Y-146714285D02*
X212884819Y-146857142D01*
X212884819Y-146857142D02*
X212884819Y-146952380D01*
X212884819Y-146952380D02*
X212837200Y-147095237D01*
X212837200Y-147095237D02*
X212741961Y-147190475D01*
X212741961Y-147190475D02*
X212646723Y-147238094D01*
X212646723Y-147238094D02*
X212456247Y-147285713D01*
X212456247Y-147285713D02*
X212313390Y-147285713D01*
X212313390Y-147285713D02*
X212122914Y-147238094D01*
X212122914Y-147238094D02*
X212027676Y-147190475D01*
X212027676Y-147190475D02*
X211932438Y-147095237D01*
X211932438Y-147095237D02*
X211884819Y-146952380D01*
X211884819Y-146952380D02*
X211884819Y-146857142D01*
X211884819Y-146857142D02*
X211932438Y-146714285D01*
X211932438Y-146714285D02*
X211980057Y-146666666D01*
X212218152Y-145809523D02*
X212884819Y-145809523D01*
X211837200Y-146047618D02*
X212551485Y-146285713D01*
X212551485Y-146285713D02*
X212551485Y-145666666D01*
X178629607Y-140242856D02*
X178677227Y-140290475D01*
X178677227Y-140290475D02*
X178724846Y-140433332D01*
X178724846Y-140433332D02*
X178724846Y-140528570D01*
X178724846Y-140528570D02*
X178677227Y-140671427D01*
X178677227Y-140671427D02*
X178581988Y-140766665D01*
X178581988Y-140766665D02*
X178486750Y-140814284D01*
X178486750Y-140814284D02*
X178296274Y-140861903D01*
X178296274Y-140861903D02*
X178153417Y-140861903D01*
X178153417Y-140861903D02*
X177962941Y-140814284D01*
X177962941Y-140814284D02*
X177867703Y-140766665D01*
X177867703Y-140766665D02*
X177772465Y-140671427D01*
X177772465Y-140671427D02*
X177724846Y-140528570D01*
X177724846Y-140528570D02*
X177724846Y-140433332D01*
X177724846Y-140433332D02*
X177772465Y-140290475D01*
X177772465Y-140290475D02*
X177820084Y-140242856D01*
X178724846Y-139290475D02*
X178724846Y-139861903D01*
X178724846Y-139576189D02*
X177724846Y-139576189D01*
X177724846Y-139576189D02*
X177867703Y-139671427D01*
X177867703Y-139671427D02*
X177962941Y-139766665D01*
X177962941Y-139766665D02*
X178010560Y-139861903D01*
X177724846Y-138671427D02*
X177724846Y-138576189D01*
X177724846Y-138576189D02*
X177772465Y-138480951D01*
X177772465Y-138480951D02*
X177820084Y-138433332D01*
X177820084Y-138433332D02*
X177915322Y-138385713D01*
X177915322Y-138385713D02*
X178105798Y-138338094D01*
X178105798Y-138338094D02*
X178343893Y-138338094D01*
X178343893Y-138338094D02*
X178534369Y-138385713D01*
X178534369Y-138385713D02*
X178629607Y-138433332D01*
X178629607Y-138433332D02*
X178677227Y-138480951D01*
X178677227Y-138480951D02*
X178724846Y-138576189D01*
X178724846Y-138576189D02*
X178724846Y-138671427D01*
X178724846Y-138671427D02*
X178677227Y-138766665D01*
X178677227Y-138766665D02*
X178629607Y-138814284D01*
X178629607Y-138814284D02*
X178534369Y-138861903D01*
X178534369Y-138861903D02*
X178343893Y-138909522D01*
X178343893Y-138909522D02*
X178105798Y-138909522D01*
X178105798Y-138909522D02*
X177915322Y-138861903D01*
X177915322Y-138861903D02*
X177820084Y-138814284D01*
X177820084Y-138814284D02*
X177772465Y-138766665D01*
X177772465Y-138766665D02*
X177724846Y-138671427D01*
X188857142Y-145454819D02*
X188523809Y-144978628D01*
X188285714Y-145454819D02*
X188285714Y-144454819D01*
X188285714Y-144454819D02*
X188666666Y-144454819D01*
X188666666Y-144454819D02*
X188761904Y-144502438D01*
X188761904Y-144502438D02*
X188809523Y-144550057D01*
X188809523Y-144550057D02*
X188857142Y-144645295D01*
X188857142Y-144645295D02*
X188857142Y-144788152D01*
X188857142Y-144788152D02*
X188809523Y-144883390D01*
X188809523Y-144883390D02*
X188761904Y-144931009D01*
X188761904Y-144931009D02*
X188666666Y-144978628D01*
X188666666Y-144978628D02*
X188285714Y-144978628D01*
X189809523Y-145454819D02*
X189238095Y-145454819D01*
X189523809Y-145454819D02*
X189523809Y-144454819D01*
X189523809Y-144454819D02*
X189428571Y-144597676D01*
X189428571Y-144597676D02*
X189333333Y-144692914D01*
X189333333Y-144692914D02*
X189238095Y-144740533D01*
X190761904Y-145454819D02*
X190190476Y-145454819D01*
X190476190Y-145454819D02*
X190476190Y-144454819D01*
X190476190Y-144454819D02*
X190380952Y-144597676D01*
X190380952Y-144597676D02*
X190285714Y-144692914D01*
X190285714Y-144692914D02*
X190190476Y-144740533D01*
X180154846Y-145861903D02*
X180964369Y-145861903D01*
X180964369Y-145861903D02*
X181059607Y-145814284D01*
X181059607Y-145814284D02*
X181107227Y-145766665D01*
X181107227Y-145766665D02*
X181154846Y-145671427D01*
X181154846Y-145671427D02*
X181154846Y-145480951D01*
X181154846Y-145480951D02*
X181107227Y-145385713D01*
X181107227Y-145385713D02*
X181059607Y-145338094D01*
X181059607Y-145338094D02*
X180964369Y-145290475D01*
X180964369Y-145290475D02*
X180154846Y-145290475D01*
X180154846Y-144338094D02*
X180154846Y-144814284D01*
X180154846Y-144814284D02*
X180631036Y-144861903D01*
X180631036Y-144861903D02*
X180583417Y-144814284D01*
X180583417Y-144814284D02*
X180535798Y-144719046D01*
X180535798Y-144719046D02*
X180535798Y-144480951D01*
X180535798Y-144480951D02*
X180583417Y-144385713D01*
X180583417Y-144385713D02*
X180631036Y-144338094D01*
X180631036Y-144338094D02*
X180726274Y-144290475D01*
X180726274Y-144290475D02*
X180964369Y-144290475D01*
X180964369Y-144290475D02*
X181059607Y-144338094D01*
X181059607Y-144338094D02*
X181107227Y-144385713D01*
X181107227Y-144385713D02*
X181154846Y-144480951D01*
X181154846Y-144480951D02*
X181154846Y-144719046D01*
X181154846Y-144719046D02*
X181107227Y-144814284D01*
X181107227Y-144814284D02*
X181059607Y-144861903D01*
X181500000Y-142078318D02*
X181500000Y-142316413D01*
X181261905Y-142221175D02*
X181500000Y-142316413D01*
X181500000Y-142316413D02*
X181738095Y-142221175D01*
X181357143Y-142506889D02*
X181500000Y-142316413D01*
X181500000Y-142316413D02*
X181642857Y-142506889D01*
X181500000Y-142078318D02*
X181500000Y-142316413D01*
X181261905Y-142221175D02*
X181500000Y-142316413D01*
X181500000Y-142316413D02*
X181738095Y-142221175D01*
X181357143Y-142506889D02*
X181500000Y-142316413D01*
X181500000Y-142316413D02*
X181642857Y-142506889D01*
X175884819Y-137892857D02*
X175408628Y-138226190D01*
X175884819Y-138464285D02*
X174884819Y-138464285D01*
X174884819Y-138464285D02*
X174884819Y-138083333D01*
X174884819Y-138083333D02*
X174932438Y-137988095D01*
X174932438Y-137988095D02*
X174980057Y-137940476D01*
X174980057Y-137940476D02*
X175075295Y-137892857D01*
X175075295Y-137892857D02*
X175218152Y-137892857D01*
X175218152Y-137892857D02*
X175313390Y-137940476D01*
X175313390Y-137940476D02*
X175361009Y-137988095D01*
X175361009Y-137988095D02*
X175408628Y-138083333D01*
X175408628Y-138083333D02*
X175408628Y-138464285D01*
X175884819Y-136940476D02*
X175884819Y-137511904D01*
X175884819Y-137226190D02*
X174884819Y-137226190D01*
X174884819Y-137226190D02*
X175027676Y-137321428D01*
X175027676Y-137321428D02*
X175122914Y-137416666D01*
X175122914Y-137416666D02*
X175170533Y-137511904D01*
X174884819Y-136607142D02*
X174884819Y-135940476D01*
X174884819Y-135940476D02*
X175884819Y-136369047D01*
X164166667Y-137657200D02*
X164309524Y-137704819D01*
X164309524Y-137704819D02*
X164547619Y-137704819D01*
X164547619Y-137704819D02*
X164642857Y-137657200D01*
X164642857Y-137657200D02*
X164690476Y-137609580D01*
X164690476Y-137609580D02*
X164738095Y-137514342D01*
X164738095Y-137514342D02*
X164738095Y-137419104D01*
X164738095Y-137419104D02*
X164690476Y-137323866D01*
X164690476Y-137323866D02*
X164642857Y-137276247D01*
X164642857Y-137276247D02*
X164547619Y-137228628D01*
X164547619Y-137228628D02*
X164357143Y-137181009D01*
X164357143Y-137181009D02*
X164261905Y-137133390D01*
X164261905Y-137133390D02*
X164214286Y-137085771D01*
X164214286Y-137085771D02*
X164166667Y-136990533D01*
X164166667Y-136990533D02*
X164166667Y-136895295D01*
X164166667Y-136895295D02*
X164214286Y-136800057D01*
X164214286Y-136800057D02*
X164261905Y-136752438D01*
X164261905Y-136752438D02*
X164357143Y-136704819D01*
X164357143Y-136704819D02*
X164595238Y-136704819D01*
X164595238Y-136704819D02*
X164738095Y-136752438D01*
X165071429Y-136704819D02*
X165309524Y-137704819D01*
X165309524Y-137704819D02*
X165500000Y-136990533D01*
X165500000Y-136990533D02*
X165690476Y-137704819D01*
X165690476Y-137704819D02*
X165928572Y-136704819D01*
X166214286Y-136704819D02*
X166880952Y-136704819D01*
X166880952Y-136704819D02*
X166452381Y-137704819D01*
X194820094Y-140269376D02*
X194820094Y-139629376D01*
X194820094Y-139629376D02*
X195033428Y-140086519D01*
X195033428Y-140086519D02*
X195246761Y-139629376D01*
X195246761Y-139629376D02*
X195246761Y-140269376D01*
X195460095Y-139629376D02*
X195825809Y-139629376D01*
X195642952Y-140269376D02*
X195642952Y-139629376D01*
X196374381Y-140269376D02*
X196008666Y-140269376D01*
X196191523Y-140269376D02*
X196191523Y-139629376D01*
X196191523Y-139629376D02*
X196130571Y-139720804D01*
X196130571Y-139720804D02*
X196069619Y-139781757D01*
X196069619Y-139781757D02*
X196008666Y-139812233D01*
X186607142Y-127134580D02*
X186559523Y-127182200D01*
X186559523Y-127182200D02*
X186416666Y-127229819D01*
X186416666Y-127229819D02*
X186321428Y-127229819D01*
X186321428Y-127229819D02*
X186178571Y-127182200D01*
X186178571Y-127182200D02*
X186083333Y-127086961D01*
X186083333Y-127086961D02*
X186035714Y-126991723D01*
X186035714Y-126991723D02*
X185988095Y-126801247D01*
X185988095Y-126801247D02*
X185988095Y-126658390D01*
X185988095Y-126658390D02*
X186035714Y-126467914D01*
X186035714Y-126467914D02*
X186083333Y-126372676D01*
X186083333Y-126372676D02*
X186178571Y-126277438D01*
X186178571Y-126277438D02*
X186321428Y-126229819D01*
X186321428Y-126229819D02*
X186416666Y-126229819D01*
X186416666Y-126229819D02*
X186559523Y-126277438D01*
X186559523Y-126277438D02*
X186607142Y-126325057D01*
X187559523Y-127229819D02*
X186988095Y-127229819D01*
X187273809Y-127229819D02*
X187273809Y-126229819D01*
X187273809Y-126229819D02*
X187178571Y-126372676D01*
X187178571Y-126372676D02*
X187083333Y-126467914D01*
X187083333Y-126467914D02*
X186988095Y-126515533D01*
X187940476Y-126325057D02*
X187988095Y-126277438D01*
X187988095Y-126277438D02*
X188083333Y-126229819D01*
X188083333Y-126229819D02*
X188321428Y-126229819D01*
X188321428Y-126229819D02*
X188416666Y-126277438D01*
X188416666Y-126277438D02*
X188464285Y-126325057D01*
X188464285Y-126325057D02*
X188511904Y-126420295D01*
X188511904Y-126420295D02*
X188511904Y-126515533D01*
X188511904Y-126515533D02*
X188464285Y-126658390D01*
X188464285Y-126658390D02*
X187892857Y-127229819D01*
X187892857Y-127229819D02*
X188511904Y-127229819D01*
X234204819Y-126666666D02*
X233728628Y-126999999D01*
X234204819Y-127238094D02*
X233204819Y-127238094D01*
X233204819Y-127238094D02*
X233204819Y-126857142D01*
X233204819Y-126857142D02*
X233252438Y-126761904D01*
X233252438Y-126761904D02*
X233300057Y-126714285D01*
X233300057Y-126714285D02*
X233395295Y-126666666D01*
X233395295Y-126666666D02*
X233538152Y-126666666D01*
X233538152Y-126666666D02*
X233633390Y-126714285D01*
X233633390Y-126714285D02*
X233681009Y-126761904D01*
X233681009Y-126761904D02*
X233728628Y-126857142D01*
X233728628Y-126857142D02*
X233728628Y-127238094D01*
X234204819Y-125714285D02*
X234204819Y-126285713D01*
X234204819Y-125999999D02*
X233204819Y-125999999D01*
X233204819Y-125999999D02*
X233347676Y-126095237D01*
X233347676Y-126095237D02*
X233442914Y-126190475D01*
X233442914Y-126190475D02*
X233490533Y-126285713D01*
X170357142Y-131774819D02*
X170023809Y-131298628D01*
X169785714Y-131774819D02*
X169785714Y-130774819D01*
X169785714Y-130774819D02*
X170166666Y-130774819D01*
X170166666Y-130774819D02*
X170261904Y-130822438D01*
X170261904Y-130822438D02*
X170309523Y-130870057D01*
X170309523Y-130870057D02*
X170357142Y-130965295D01*
X170357142Y-130965295D02*
X170357142Y-131108152D01*
X170357142Y-131108152D02*
X170309523Y-131203390D01*
X170309523Y-131203390D02*
X170261904Y-131251009D01*
X170261904Y-131251009D02*
X170166666Y-131298628D01*
X170166666Y-131298628D02*
X169785714Y-131298628D01*
X171309523Y-131774819D02*
X170738095Y-131774819D01*
X171023809Y-131774819D02*
X171023809Y-130774819D01*
X171023809Y-130774819D02*
X170928571Y-130917676D01*
X170928571Y-130917676D02*
X170833333Y-131012914D01*
X170833333Y-131012914D02*
X170738095Y-131060533D01*
X171642857Y-130774819D02*
X172261904Y-130774819D01*
X172261904Y-130774819D02*
X171928571Y-131155771D01*
X171928571Y-131155771D02*
X172071428Y-131155771D01*
X172071428Y-131155771D02*
X172166666Y-131203390D01*
X172166666Y-131203390D02*
X172214285Y-131251009D01*
X172214285Y-131251009D02*
X172261904Y-131346247D01*
X172261904Y-131346247D02*
X172261904Y-131584342D01*
X172261904Y-131584342D02*
X172214285Y-131679580D01*
X172214285Y-131679580D02*
X172166666Y-131727200D01*
X172166666Y-131727200D02*
X172071428Y-131774819D01*
X172071428Y-131774819D02*
X171785714Y-131774819D01*
X171785714Y-131774819D02*
X171690476Y-131727200D01*
X171690476Y-131727200D02*
X171642857Y-131679580D01*
X148929580Y-130692857D02*
X148977200Y-130740476D01*
X148977200Y-130740476D02*
X149024819Y-130883333D01*
X149024819Y-130883333D02*
X149024819Y-130978571D01*
X149024819Y-130978571D02*
X148977200Y-131121428D01*
X148977200Y-131121428D02*
X148881961Y-131216666D01*
X148881961Y-131216666D02*
X148786723Y-131264285D01*
X148786723Y-131264285D02*
X148596247Y-131311904D01*
X148596247Y-131311904D02*
X148453390Y-131311904D01*
X148453390Y-131311904D02*
X148262914Y-131264285D01*
X148262914Y-131264285D02*
X148167676Y-131216666D01*
X148167676Y-131216666D02*
X148072438Y-131121428D01*
X148072438Y-131121428D02*
X148024819Y-130978571D01*
X148024819Y-130978571D02*
X148024819Y-130883333D01*
X148024819Y-130883333D02*
X148072438Y-130740476D01*
X148072438Y-130740476D02*
X148120057Y-130692857D01*
X149024819Y-129740476D02*
X149024819Y-130311904D01*
X149024819Y-130026190D02*
X148024819Y-130026190D01*
X148024819Y-130026190D02*
X148167676Y-130121428D01*
X148167676Y-130121428D02*
X148262914Y-130216666D01*
X148262914Y-130216666D02*
X148310533Y-130311904D01*
X148024819Y-129407142D02*
X148024819Y-128788095D01*
X148024819Y-128788095D02*
X148405771Y-129121428D01*
X148405771Y-129121428D02*
X148405771Y-128978571D01*
X148405771Y-128978571D02*
X148453390Y-128883333D01*
X148453390Y-128883333D02*
X148501009Y-128835714D01*
X148501009Y-128835714D02*
X148596247Y-128788095D01*
X148596247Y-128788095D02*
X148834342Y-128788095D01*
X148834342Y-128788095D02*
X148929580Y-128835714D01*
X148929580Y-128835714D02*
X148977200Y-128883333D01*
X148977200Y-128883333D02*
X149024819Y-128978571D01*
X149024819Y-128978571D02*
X149024819Y-129264285D01*
X149024819Y-129264285D02*
X148977200Y-129359523D01*
X148977200Y-129359523D02*
X148929580Y-129407142D01*
X238179580Y-126666666D02*
X238227200Y-126714285D01*
X238227200Y-126714285D02*
X238274819Y-126857142D01*
X238274819Y-126857142D02*
X238274819Y-126952380D01*
X238274819Y-126952380D02*
X238227200Y-127095237D01*
X238227200Y-127095237D02*
X238131961Y-127190475D01*
X238131961Y-127190475D02*
X238036723Y-127238094D01*
X238036723Y-127238094D02*
X237846247Y-127285713D01*
X237846247Y-127285713D02*
X237703390Y-127285713D01*
X237703390Y-127285713D02*
X237512914Y-127238094D01*
X237512914Y-127238094D02*
X237417676Y-127190475D01*
X237417676Y-127190475D02*
X237322438Y-127095237D01*
X237322438Y-127095237D02*
X237274819Y-126952380D01*
X237274819Y-126952380D02*
X237274819Y-126857142D01*
X237274819Y-126857142D02*
X237322438Y-126714285D01*
X237322438Y-126714285D02*
X237370057Y-126666666D01*
X238274819Y-125714285D02*
X238274819Y-126285713D01*
X238274819Y-125999999D02*
X237274819Y-125999999D01*
X237274819Y-125999999D02*
X237417676Y-126095237D01*
X237417676Y-126095237D02*
X237512914Y-126190475D01*
X237512914Y-126190475D02*
X237560533Y-126285713D01*
X185584846Y-145766665D02*
X185108655Y-146099998D01*
X185584846Y-146338093D02*
X184584846Y-146338093D01*
X184584846Y-146338093D02*
X184584846Y-145957141D01*
X184584846Y-145957141D02*
X184632465Y-145861903D01*
X184632465Y-145861903D02*
X184680084Y-145814284D01*
X184680084Y-145814284D02*
X184775322Y-145766665D01*
X184775322Y-145766665D02*
X184918179Y-145766665D01*
X184918179Y-145766665D02*
X185013417Y-145814284D01*
X185013417Y-145814284D02*
X185061036Y-145861903D01*
X185061036Y-145861903D02*
X185108655Y-145957141D01*
X185108655Y-145957141D02*
X185108655Y-146338093D01*
X185584846Y-145290474D02*
X185584846Y-145099998D01*
X185584846Y-145099998D02*
X185537227Y-145004760D01*
X185537227Y-145004760D02*
X185489607Y-144957141D01*
X185489607Y-144957141D02*
X185346750Y-144861903D01*
X185346750Y-144861903D02*
X185156274Y-144814284D01*
X185156274Y-144814284D02*
X184775322Y-144814284D01*
X184775322Y-144814284D02*
X184680084Y-144861903D01*
X184680084Y-144861903D02*
X184632465Y-144909522D01*
X184632465Y-144909522D02*
X184584846Y-145004760D01*
X184584846Y-145004760D02*
X184584846Y-145195236D01*
X184584846Y-145195236D02*
X184632465Y-145290474D01*
X184632465Y-145290474D02*
X184680084Y-145338093D01*
X184680084Y-145338093D02*
X184775322Y-145385712D01*
X184775322Y-145385712D02*
X185013417Y-145385712D01*
X185013417Y-145385712D02*
X185108655Y-145338093D01*
X185108655Y-145338093D02*
X185156274Y-145290474D01*
X185156274Y-145290474D02*
X185203893Y-145195236D01*
X185203893Y-145195236D02*
X185203893Y-145004760D01*
X185203893Y-145004760D02*
X185156274Y-144909522D01*
X185156274Y-144909522D02*
X185108655Y-144861903D01*
X185108655Y-144861903D02*
X185013417Y-144814284D01*
X203411905Y-142584819D02*
X203411905Y-141584819D01*
X203411905Y-141584819D02*
X203650000Y-141584819D01*
X203650000Y-141584819D02*
X203792857Y-141632438D01*
X203792857Y-141632438D02*
X203888095Y-141727676D01*
X203888095Y-141727676D02*
X203935714Y-141822914D01*
X203935714Y-141822914D02*
X203983333Y-142013390D01*
X203983333Y-142013390D02*
X203983333Y-142156247D01*
X203983333Y-142156247D02*
X203935714Y-142346723D01*
X203935714Y-142346723D02*
X203888095Y-142441961D01*
X203888095Y-142441961D02*
X203792857Y-142537200D01*
X203792857Y-142537200D02*
X203650000Y-142584819D01*
X203650000Y-142584819D02*
X203411905Y-142584819D01*
X204316667Y-141584819D02*
X204935714Y-141584819D01*
X204935714Y-141584819D02*
X204602381Y-141965771D01*
X204602381Y-141965771D02*
X204745238Y-141965771D01*
X204745238Y-141965771D02*
X204840476Y-142013390D01*
X204840476Y-142013390D02*
X204888095Y-142061009D01*
X204888095Y-142061009D02*
X204935714Y-142156247D01*
X204935714Y-142156247D02*
X204935714Y-142394342D01*
X204935714Y-142394342D02*
X204888095Y-142489580D01*
X204888095Y-142489580D02*
X204840476Y-142537200D01*
X204840476Y-142537200D02*
X204745238Y-142584819D01*
X204745238Y-142584819D02*
X204459524Y-142584819D01*
X204459524Y-142584819D02*
X204364286Y-142537200D01*
X204364286Y-142537200D02*
X204316667Y-142489580D01*
X159357142Y-143634819D02*
X159023809Y-143158628D01*
X158785714Y-143634819D02*
X158785714Y-142634819D01*
X158785714Y-142634819D02*
X159166666Y-142634819D01*
X159166666Y-142634819D02*
X159261904Y-142682438D01*
X159261904Y-142682438D02*
X159309523Y-142730057D01*
X159309523Y-142730057D02*
X159357142Y-142825295D01*
X159357142Y-142825295D02*
X159357142Y-142968152D01*
X159357142Y-142968152D02*
X159309523Y-143063390D01*
X159309523Y-143063390D02*
X159261904Y-143111009D01*
X159261904Y-143111009D02*
X159166666Y-143158628D01*
X159166666Y-143158628D02*
X158785714Y-143158628D01*
X160309523Y-143634819D02*
X159738095Y-143634819D01*
X160023809Y-143634819D02*
X160023809Y-142634819D01*
X160023809Y-142634819D02*
X159928571Y-142777676D01*
X159928571Y-142777676D02*
X159833333Y-142872914D01*
X159833333Y-142872914D02*
X159738095Y-142920533D01*
X161166666Y-142968152D02*
X161166666Y-143634819D01*
X160928571Y-142587200D02*
X160690476Y-143301485D01*
X160690476Y-143301485D02*
X161309523Y-143301485D01*
X225833332Y-130982800D02*
X225690475Y-130935180D01*
X225690475Y-130935180D02*
X225452380Y-130935180D01*
X225452380Y-130935180D02*
X225357142Y-130982800D01*
X225357142Y-130982800D02*
X225309523Y-131030419D01*
X225309523Y-131030419D02*
X225261904Y-131125657D01*
X225261904Y-131125657D02*
X225261904Y-131220895D01*
X225261904Y-131220895D02*
X225309523Y-131316133D01*
X225309523Y-131316133D02*
X225357142Y-131363752D01*
X225357142Y-131363752D02*
X225452380Y-131411371D01*
X225452380Y-131411371D02*
X225642856Y-131458990D01*
X225642856Y-131458990D02*
X225738094Y-131506609D01*
X225738094Y-131506609D02*
X225785713Y-131554228D01*
X225785713Y-131554228D02*
X225833332Y-131649466D01*
X225833332Y-131649466D02*
X225833332Y-131744704D01*
X225833332Y-131744704D02*
X225785713Y-131839942D01*
X225785713Y-131839942D02*
X225738094Y-131887561D01*
X225738094Y-131887561D02*
X225642856Y-131935180D01*
X225642856Y-131935180D02*
X225404761Y-131935180D01*
X225404761Y-131935180D02*
X225261904Y-131887561D01*
X224928570Y-131935180D02*
X224690475Y-130935180D01*
X224690475Y-130935180D02*
X224499999Y-131649466D01*
X224499999Y-131649466D02*
X224309523Y-130935180D01*
X224309523Y-130935180D02*
X224071428Y-131935180D01*
X223166666Y-130935180D02*
X223738094Y-130935180D01*
X223452380Y-130935180D02*
X223452380Y-131935180D01*
X223452380Y-131935180D02*
X223547618Y-131792323D01*
X223547618Y-131792323D02*
X223642856Y-131697085D01*
X223642856Y-131697085D02*
X223738094Y-131649466D01*
X217333333Y-128429580D02*
X217285714Y-128477200D01*
X217285714Y-128477200D02*
X217142857Y-128524819D01*
X217142857Y-128524819D02*
X217047619Y-128524819D01*
X217047619Y-128524819D02*
X216904762Y-128477200D01*
X216904762Y-128477200D02*
X216809524Y-128381961D01*
X216809524Y-128381961D02*
X216761905Y-128286723D01*
X216761905Y-128286723D02*
X216714286Y-128096247D01*
X216714286Y-128096247D02*
X216714286Y-127953390D01*
X216714286Y-127953390D02*
X216761905Y-127762914D01*
X216761905Y-127762914D02*
X216809524Y-127667676D01*
X216809524Y-127667676D02*
X216904762Y-127572438D01*
X216904762Y-127572438D02*
X217047619Y-127524819D01*
X217047619Y-127524819D02*
X217142857Y-127524819D01*
X217142857Y-127524819D02*
X217285714Y-127572438D01*
X217285714Y-127572438D02*
X217333333Y-127620057D01*
X218190476Y-127524819D02*
X218000000Y-127524819D01*
X218000000Y-127524819D02*
X217904762Y-127572438D01*
X217904762Y-127572438D02*
X217857143Y-127620057D01*
X217857143Y-127620057D02*
X217761905Y-127762914D01*
X217761905Y-127762914D02*
X217714286Y-127953390D01*
X217714286Y-127953390D02*
X217714286Y-128334342D01*
X217714286Y-128334342D02*
X217761905Y-128429580D01*
X217761905Y-128429580D02*
X217809524Y-128477200D01*
X217809524Y-128477200D02*
X217904762Y-128524819D01*
X217904762Y-128524819D02*
X218095238Y-128524819D01*
X218095238Y-128524819D02*
X218190476Y-128477200D01*
X218190476Y-128477200D02*
X218238095Y-128429580D01*
X218238095Y-128429580D02*
X218285714Y-128334342D01*
X218285714Y-128334342D02*
X218285714Y-128096247D01*
X218285714Y-128096247D02*
X218238095Y-128001009D01*
X218238095Y-128001009D02*
X218190476Y-127953390D01*
X218190476Y-127953390D02*
X218095238Y-127905771D01*
X218095238Y-127905771D02*
X217904762Y-127905771D01*
X217904762Y-127905771D02*
X217809524Y-127953390D01*
X217809524Y-127953390D02*
X217761905Y-128001009D01*
X217761905Y-128001009D02*
X217714286Y-128096247D01*
X152404819Y-145333333D02*
X153119104Y-145333333D01*
X153119104Y-145333333D02*
X153261961Y-145380952D01*
X153261961Y-145380952D02*
X153357200Y-145476190D01*
X153357200Y-145476190D02*
X153404819Y-145619047D01*
X153404819Y-145619047D02*
X153404819Y-145714285D01*
X152500057Y-144904761D02*
X152452438Y-144857142D01*
X152452438Y-144857142D02*
X152404819Y-144761904D01*
X152404819Y-144761904D02*
X152404819Y-144523809D01*
X152404819Y-144523809D02*
X152452438Y-144428571D01*
X152452438Y-144428571D02*
X152500057Y-144380952D01*
X152500057Y-144380952D02*
X152595295Y-144333333D01*
X152595295Y-144333333D02*
X152690533Y-144333333D01*
X152690533Y-144333333D02*
X152833390Y-144380952D01*
X152833390Y-144380952D02*
X153404819Y-144952380D01*
X153404819Y-144952380D02*
X153404819Y-144333333D01*
X142954819Y-134333333D02*
X143669104Y-134333333D01*
X143669104Y-134333333D02*
X143811961Y-134380952D01*
X143811961Y-134380952D02*
X143907200Y-134476190D01*
X143907200Y-134476190D02*
X143954819Y-134619047D01*
X143954819Y-134619047D02*
X143954819Y-134714285D01*
X142954819Y-133952380D02*
X142954819Y-133333333D01*
X142954819Y-133333333D02*
X143335771Y-133666666D01*
X143335771Y-133666666D02*
X143335771Y-133523809D01*
X143335771Y-133523809D02*
X143383390Y-133428571D01*
X143383390Y-133428571D02*
X143431009Y-133380952D01*
X143431009Y-133380952D02*
X143526247Y-133333333D01*
X143526247Y-133333333D02*
X143764342Y-133333333D01*
X143764342Y-133333333D02*
X143859580Y-133380952D01*
X143859580Y-133380952D02*
X143907200Y-133428571D01*
X143907200Y-133428571D02*
X143954819Y-133523809D01*
X143954819Y-133523809D02*
X143954819Y-133809523D01*
X143954819Y-133809523D02*
X143907200Y-133904761D01*
X143907200Y-133904761D02*
X143859580Y-133952380D01*
X189357142Y-140112319D02*
X189023809Y-139636128D01*
X188785714Y-140112319D02*
X188785714Y-139112319D01*
X188785714Y-139112319D02*
X189166666Y-139112319D01*
X189166666Y-139112319D02*
X189261904Y-139159938D01*
X189261904Y-139159938D02*
X189309523Y-139207557D01*
X189309523Y-139207557D02*
X189357142Y-139302795D01*
X189357142Y-139302795D02*
X189357142Y-139445652D01*
X189357142Y-139445652D02*
X189309523Y-139540890D01*
X189309523Y-139540890D02*
X189261904Y-139588509D01*
X189261904Y-139588509D02*
X189166666Y-139636128D01*
X189166666Y-139636128D02*
X188785714Y-139636128D01*
X190309523Y-140112319D02*
X189738095Y-140112319D01*
X190023809Y-140112319D02*
X190023809Y-139112319D01*
X190023809Y-139112319D02*
X189928571Y-139255176D01*
X189928571Y-139255176D02*
X189833333Y-139350414D01*
X189833333Y-139350414D02*
X189738095Y-139398033D01*
X190928571Y-139112319D02*
X191023809Y-139112319D01*
X191023809Y-139112319D02*
X191119047Y-139159938D01*
X191119047Y-139159938D02*
X191166666Y-139207557D01*
X191166666Y-139207557D02*
X191214285Y-139302795D01*
X191214285Y-139302795D02*
X191261904Y-139493271D01*
X191261904Y-139493271D02*
X191261904Y-139731366D01*
X191261904Y-139731366D02*
X191214285Y-139921842D01*
X191214285Y-139921842D02*
X191166666Y-140017080D01*
X191166666Y-140017080D02*
X191119047Y-140064700D01*
X191119047Y-140064700D02*
X191023809Y-140112319D01*
X191023809Y-140112319D02*
X190928571Y-140112319D01*
X190928571Y-140112319D02*
X190833333Y-140064700D01*
X190833333Y-140064700D02*
X190785714Y-140017080D01*
X190785714Y-140017080D02*
X190738095Y-139921842D01*
X190738095Y-139921842D02*
X190690476Y-139731366D01*
X190690476Y-139731366D02*
X190690476Y-139493271D01*
X190690476Y-139493271D02*
X190738095Y-139302795D01*
X190738095Y-139302795D02*
X190785714Y-139207557D01*
X190785714Y-139207557D02*
X190833333Y-139159938D01*
X190833333Y-139159938D02*
X190928571Y-139112319D01*
X184738095Y-131954819D02*
X184738095Y-132764342D01*
X184738095Y-132764342D02*
X184785714Y-132859580D01*
X184785714Y-132859580D02*
X184833333Y-132907200D01*
X184833333Y-132907200D02*
X184928571Y-132954819D01*
X184928571Y-132954819D02*
X185119047Y-132954819D01*
X185119047Y-132954819D02*
X185214285Y-132907200D01*
X185214285Y-132907200D02*
X185261904Y-132859580D01*
X185261904Y-132859580D02*
X185309523Y-132764342D01*
X185309523Y-132764342D02*
X185309523Y-131954819D01*
X186214285Y-132288152D02*
X186214285Y-132954819D01*
X185976190Y-131907200D02*
X185738095Y-132621485D01*
X185738095Y-132621485D02*
X186357142Y-132621485D01*
X203920833Y-132524819D02*
X203587500Y-132048628D01*
X203349405Y-132524819D02*
X203349405Y-131524819D01*
X203349405Y-131524819D02*
X203730357Y-131524819D01*
X203730357Y-131524819D02*
X203825595Y-131572438D01*
X203825595Y-131572438D02*
X203873214Y-131620057D01*
X203873214Y-131620057D02*
X203920833Y-131715295D01*
X203920833Y-131715295D02*
X203920833Y-131858152D01*
X203920833Y-131858152D02*
X203873214Y-131953390D01*
X203873214Y-131953390D02*
X203825595Y-132001009D01*
X203825595Y-132001009D02*
X203730357Y-132048628D01*
X203730357Y-132048628D02*
X203349405Y-132048628D01*
X204492262Y-131953390D02*
X204397024Y-131905771D01*
X204397024Y-131905771D02*
X204349405Y-131858152D01*
X204349405Y-131858152D02*
X204301786Y-131762914D01*
X204301786Y-131762914D02*
X204301786Y-131715295D01*
X204301786Y-131715295D02*
X204349405Y-131620057D01*
X204349405Y-131620057D02*
X204397024Y-131572438D01*
X204397024Y-131572438D02*
X204492262Y-131524819D01*
X204492262Y-131524819D02*
X204682738Y-131524819D01*
X204682738Y-131524819D02*
X204777976Y-131572438D01*
X204777976Y-131572438D02*
X204825595Y-131620057D01*
X204825595Y-131620057D02*
X204873214Y-131715295D01*
X204873214Y-131715295D02*
X204873214Y-131762914D01*
X204873214Y-131762914D02*
X204825595Y-131858152D01*
X204825595Y-131858152D02*
X204777976Y-131905771D01*
X204777976Y-131905771D02*
X204682738Y-131953390D01*
X204682738Y-131953390D02*
X204492262Y-131953390D01*
X204492262Y-131953390D02*
X204397024Y-132001009D01*
X204397024Y-132001009D02*
X204349405Y-132048628D01*
X204349405Y-132048628D02*
X204301786Y-132143866D01*
X204301786Y-132143866D02*
X204301786Y-132334342D01*
X204301786Y-132334342D02*
X204349405Y-132429580D01*
X204349405Y-132429580D02*
X204397024Y-132477200D01*
X204397024Y-132477200D02*
X204492262Y-132524819D01*
X204492262Y-132524819D02*
X204682738Y-132524819D01*
X204682738Y-132524819D02*
X204777976Y-132477200D01*
X204777976Y-132477200D02*
X204825595Y-132429580D01*
X204825595Y-132429580D02*
X204873214Y-132334342D01*
X204873214Y-132334342D02*
X204873214Y-132143866D01*
X204873214Y-132143866D02*
X204825595Y-132048628D01*
X204825595Y-132048628D02*
X204777976Y-132001009D01*
X204777976Y-132001009D02*
X204682738Y-131953390D01*
X199333333Y-145947080D02*
X199285714Y-145994700D01*
X199285714Y-145994700D02*
X199142857Y-146042319D01*
X199142857Y-146042319D02*
X199047619Y-146042319D01*
X199047619Y-146042319D02*
X198904762Y-145994700D01*
X198904762Y-145994700D02*
X198809524Y-145899461D01*
X198809524Y-145899461D02*
X198761905Y-145804223D01*
X198761905Y-145804223D02*
X198714286Y-145613747D01*
X198714286Y-145613747D02*
X198714286Y-145470890D01*
X198714286Y-145470890D02*
X198761905Y-145280414D01*
X198761905Y-145280414D02*
X198809524Y-145185176D01*
X198809524Y-145185176D02*
X198904762Y-145089938D01*
X198904762Y-145089938D02*
X199047619Y-145042319D01*
X199047619Y-145042319D02*
X199142857Y-145042319D01*
X199142857Y-145042319D02*
X199285714Y-145089938D01*
X199285714Y-145089938D02*
X199333333Y-145137557D01*
X199809524Y-146042319D02*
X200000000Y-146042319D01*
X200000000Y-146042319D02*
X200095238Y-145994700D01*
X200095238Y-145994700D02*
X200142857Y-145947080D01*
X200142857Y-145947080D02*
X200238095Y-145804223D01*
X200238095Y-145804223D02*
X200285714Y-145613747D01*
X200285714Y-145613747D02*
X200285714Y-145232795D01*
X200285714Y-145232795D02*
X200238095Y-145137557D01*
X200238095Y-145137557D02*
X200190476Y-145089938D01*
X200190476Y-145089938D02*
X200095238Y-145042319D01*
X200095238Y-145042319D02*
X199904762Y-145042319D01*
X199904762Y-145042319D02*
X199809524Y-145089938D01*
X199809524Y-145089938D02*
X199761905Y-145137557D01*
X199761905Y-145137557D02*
X199714286Y-145232795D01*
X199714286Y-145232795D02*
X199714286Y-145470890D01*
X199714286Y-145470890D02*
X199761905Y-145566128D01*
X199761905Y-145566128D02*
X199809524Y-145613747D01*
X199809524Y-145613747D02*
X199904762Y-145661366D01*
X199904762Y-145661366D02*
X200095238Y-145661366D01*
X200095238Y-145661366D02*
X200190476Y-145613747D01*
X200190476Y-145613747D02*
X200238095Y-145566128D01*
X200238095Y-145566128D02*
X200285714Y-145470890D01*
X250539819Y-140761904D02*
X251349342Y-140761904D01*
X251349342Y-140761904D02*
X251444580Y-140714285D01*
X251444580Y-140714285D02*
X251492200Y-140666666D01*
X251492200Y-140666666D02*
X251539819Y-140571428D01*
X251539819Y-140571428D02*
X251539819Y-140380952D01*
X251539819Y-140380952D02*
X251492200Y-140285714D01*
X251492200Y-140285714D02*
X251444580Y-140238095D01*
X251444580Y-140238095D02*
X251349342Y-140190476D01*
X251349342Y-140190476D02*
X250539819Y-140190476D01*
X251539819Y-139190476D02*
X251539819Y-139761904D01*
X251539819Y-139476190D02*
X250539819Y-139476190D01*
X250539819Y-139476190D02*
X250682676Y-139571428D01*
X250682676Y-139571428D02*
X250777914Y-139666666D01*
X250777914Y-139666666D02*
X250825533Y-139761904D01*
X209238095Y-132454819D02*
X209238095Y-133264342D01*
X209238095Y-133264342D02*
X209285714Y-133359580D01*
X209285714Y-133359580D02*
X209333333Y-133407200D01*
X209333333Y-133407200D02*
X209428571Y-133454819D01*
X209428571Y-133454819D02*
X209619047Y-133454819D01*
X209619047Y-133454819D02*
X209714285Y-133407200D01*
X209714285Y-133407200D02*
X209761904Y-133359580D01*
X209761904Y-133359580D02*
X209809523Y-133264342D01*
X209809523Y-133264342D02*
X209809523Y-132454819D01*
X210190476Y-132454819D02*
X210809523Y-132454819D01*
X210809523Y-132454819D02*
X210476190Y-132835771D01*
X210476190Y-132835771D02*
X210619047Y-132835771D01*
X210619047Y-132835771D02*
X210714285Y-132883390D01*
X210714285Y-132883390D02*
X210761904Y-132931009D01*
X210761904Y-132931009D02*
X210809523Y-133026247D01*
X210809523Y-133026247D02*
X210809523Y-133264342D01*
X210809523Y-133264342D02*
X210761904Y-133359580D01*
X210761904Y-133359580D02*
X210714285Y-133407200D01*
X210714285Y-133407200D02*
X210619047Y-133454819D01*
X210619047Y-133454819D02*
X210333333Y-133454819D01*
X210333333Y-133454819D02*
X210238095Y-133407200D01*
X210238095Y-133407200D02*
X210190476Y-133359580D01*
X152204819Y-139005357D02*
X151728628Y-139338690D01*
X152204819Y-139576785D02*
X151204819Y-139576785D01*
X151204819Y-139576785D02*
X151204819Y-139195833D01*
X151204819Y-139195833D02*
X151252438Y-139100595D01*
X151252438Y-139100595D02*
X151300057Y-139052976D01*
X151300057Y-139052976D02*
X151395295Y-139005357D01*
X151395295Y-139005357D02*
X151538152Y-139005357D01*
X151538152Y-139005357D02*
X151633390Y-139052976D01*
X151633390Y-139052976D02*
X151681009Y-139100595D01*
X151681009Y-139100595D02*
X151728628Y-139195833D01*
X151728628Y-139195833D02*
X151728628Y-139576785D01*
X152204819Y-138052976D02*
X152204819Y-138624404D01*
X152204819Y-138338690D02*
X151204819Y-138338690D01*
X151204819Y-138338690D02*
X151347676Y-138433928D01*
X151347676Y-138433928D02*
X151442914Y-138529166D01*
X151442914Y-138529166D02*
X151490533Y-138624404D01*
X151633390Y-137481547D02*
X151585771Y-137576785D01*
X151585771Y-137576785D02*
X151538152Y-137624404D01*
X151538152Y-137624404D02*
X151442914Y-137672023D01*
X151442914Y-137672023D02*
X151395295Y-137672023D01*
X151395295Y-137672023D02*
X151300057Y-137624404D01*
X151300057Y-137624404D02*
X151252438Y-137576785D01*
X151252438Y-137576785D02*
X151204819Y-137481547D01*
X151204819Y-137481547D02*
X151204819Y-137291071D01*
X151204819Y-137291071D02*
X151252438Y-137195833D01*
X151252438Y-137195833D02*
X151300057Y-137148214D01*
X151300057Y-137148214D02*
X151395295Y-137100595D01*
X151395295Y-137100595D02*
X151442914Y-137100595D01*
X151442914Y-137100595D02*
X151538152Y-137148214D01*
X151538152Y-137148214D02*
X151585771Y-137195833D01*
X151585771Y-137195833D02*
X151633390Y-137291071D01*
X151633390Y-137291071D02*
X151633390Y-137481547D01*
X151633390Y-137481547D02*
X151681009Y-137576785D01*
X151681009Y-137576785D02*
X151728628Y-137624404D01*
X151728628Y-137624404D02*
X151823866Y-137672023D01*
X151823866Y-137672023D02*
X152014342Y-137672023D01*
X152014342Y-137672023D02*
X152109580Y-137624404D01*
X152109580Y-137624404D02*
X152157200Y-137576785D01*
X152157200Y-137576785D02*
X152204819Y-137481547D01*
X152204819Y-137481547D02*
X152204819Y-137291071D01*
X152204819Y-137291071D02*
X152157200Y-137195833D01*
X152157200Y-137195833D02*
X152109580Y-137148214D01*
X152109580Y-137148214D02*
X152014342Y-137100595D01*
X152014342Y-137100595D02*
X151823866Y-137100595D01*
X151823866Y-137100595D02*
X151728628Y-137148214D01*
X151728628Y-137148214D02*
X151681009Y-137195833D01*
X151681009Y-137195833D02*
X151633390Y-137291071D01*
X222333333Y-139524819D02*
X222000000Y-139048628D01*
X221761905Y-139524819D02*
X221761905Y-138524819D01*
X221761905Y-138524819D02*
X222142857Y-138524819D01*
X222142857Y-138524819D02*
X222238095Y-138572438D01*
X222238095Y-138572438D02*
X222285714Y-138620057D01*
X222285714Y-138620057D02*
X222333333Y-138715295D01*
X222333333Y-138715295D02*
X222333333Y-138858152D01*
X222333333Y-138858152D02*
X222285714Y-138953390D01*
X222285714Y-138953390D02*
X222238095Y-139001009D01*
X222238095Y-139001009D02*
X222142857Y-139048628D01*
X222142857Y-139048628D02*
X221761905Y-139048628D01*
X222666667Y-138524819D02*
X223285714Y-138524819D01*
X223285714Y-138524819D02*
X222952381Y-138905771D01*
X222952381Y-138905771D02*
X223095238Y-138905771D01*
X223095238Y-138905771D02*
X223190476Y-138953390D01*
X223190476Y-138953390D02*
X223238095Y-139001009D01*
X223238095Y-139001009D02*
X223285714Y-139096247D01*
X223285714Y-139096247D02*
X223285714Y-139334342D01*
X223285714Y-139334342D02*
X223238095Y-139429580D01*
X223238095Y-139429580D02*
X223190476Y-139477200D01*
X223190476Y-139477200D02*
X223095238Y-139524819D01*
X223095238Y-139524819D02*
X222809524Y-139524819D01*
X222809524Y-139524819D02*
X222714286Y-139477200D01*
X222714286Y-139477200D02*
X222666667Y-139429580D01*
X218666666Y-142454819D02*
X218666666Y-143169104D01*
X218666666Y-143169104D02*
X218619047Y-143311961D01*
X218619047Y-143311961D02*
X218523809Y-143407200D01*
X218523809Y-143407200D02*
X218380952Y-143454819D01*
X218380952Y-143454819D02*
X218285714Y-143454819D01*
X219666666Y-143454819D02*
X219095238Y-143454819D01*
X219380952Y-143454819D02*
X219380952Y-142454819D01*
X219380952Y-142454819D02*
X219285714Y-142597676D01*
X219285714Y-142597676D02*
X219190476Y-142692914D01*
X219190476Y-142692914D02*
X219095238Y-142740533D01*
D11*
%TO.C,U2*%
X208350000Y-141000000D02*
X208350000Y-141300000D01*
X208350000Y-142675000D02*
X208350000Y-142300000D01*
X208350000Y-142675000D02*
X208575000Y-143000000D01*
X208575000Y-143000000D02*
X208675000Y-143000000D01*
X208675000Y-141000000D02*
X208350000Y-141000000D01*
X208675000Y-143000000D02*
X208675000Y-143525000D01*
X211325000Y-143000000D02*
X211650000Y-143000000D01*
X211350000Y-141000000D02*
X211650000Y-141000000D01*
X211650000Y-141000000D02*
X211650000Y-141325000D01*
X211650000Y-143000000D02*
X211650000Y-142700000D01*
D13*
%TO.C,R15*%
X149477500Y-134157776D02*
X149477500Y-134667224D01*
X150522500Y-134157776D02*
X150522500Y-134667224D01*
%TO.C,R2*%
X236227500Y-126754724D02*
X236227500Y-126245276D01*
X237272500Y-126754724D02*
X237272500Y-126245276D01*
D14*
%TO.C,J4*%
X198860000Y-146630000D02*
X204140000Y-146630000D01*
X198860000Y-149370000D02*
X198860000Y-146630000D01*
X204140000Y-146630000D02*
X204140000Y-149370000D01*
X204140000Y-149370000D02*
X198860000Y-149370000D01*
X203800000Y-147100000D02*
G75*
G02*
X203600000Y-147100000I-100000J0D01*
G01*
X203600000Y-147100000D02*
G75*
G02*
X203800000Y-147100000I100000J0D01*
G01*
D13*
%TO.C,R7*%
X203832776Y-135477500D02*
X204342224Y-135477500D01*
X203832776Y-136522500D02*
X204342224Y-136522500D01*
D15*
%TO.C,SW6*%
X163468000Y-140366000D02*
X163468000Y-140795260D01*
X163468000Y-142984740D02*
X163468000Y-143414000D01*
X163468000Y-143414000D02*
X167532000Y-143414000D01*
X167532000Y-140366000D02*
X163468000Y-140366000D01*
X167532000Y-140795260D02*
X167532000Y-140366000D01*
X167532000Y-143414000D02*
X167532000Y-142984740D01*
X169144900Y-141890000D02*
G75*
G02*
X168992500Y-141890000I-76200J0D01*
G01*
X168992500Y-141890000D02*
G75*
G02*
X169144900Y-141890000I76200J0D01*
G01*
D13*
%TO.C,C5*%
X203615000Y-128696267D02*
X203615000Y-128403733D01*
X204635000Y-128696267D02*
X204635000Y-128403733D01*
%TO.C,C3*%
X210490000Y-137646267D02*
X210490000Y-137353733D01*
X211510000Y-137646267D02*
X211510000Y-137353733D01*
%TO.C,C8*%
X199353733Y-140577500D02*
X199646267Y-140577500D01*
X199353733Y-141597500D02*
X199646267Y-141597500D01*
D15*
%TO.C,SW5*%
X158476000Y-135218000D02*
X158476000Y-139282000D01*
X158476000Y-139282000D02*
X158905260Y-139282000D01*
X158905260Y-135218000D02*
X158476000Y-135218000D01*
X161094740Y-139282000D02*
X161524000Y-139282000D01*
X161524000Y-135218000D02*
X161094740Y-135218000D01*
X161524000Y-139282000D02*
X161524000Y-135218000D01*
X160076200Y-140818700D02*
G75*
G02*
X159923800Y-140818700I-76200J0D01*
G01*
X159923800Y-140818700D02*
G75*
G02*
X160076200Y-140818700I76200J0D01*
G01*
D13*
%TO.C,R4*%
X222245276Y-136477500D02*
X222754724Y-136477500D01*
X222245276Y-137522500D02*
X222754724Y-137522500D01*
%TO.C,R16*%
X171254724Y-141227500D02*
X170745276Y-141227500D01*
X171254724Y-142272500D02*
X170745276Y-142272500D01*
D15*
%TO.C,SW2*%
X222468000Y-125411600D02*
X222468000Y-125840860D01*
X222468000Y-128030340D02*
X222468000Y-128459600D01*
X222468000Y-128459600D02*
X226532000Y-128459600D01*
X226532000Y-125411600D02*
X222468000Y-125411600D01*
X226532000Y-125840860D02*
X226532000Y-125411600D01*
X226532000Y-128459600D02*
X226532000Y-128030340D01*
X228144900Y-126935600D02*
G75*
G02*
X227992500Y-126935600I-76200J0D01*
G01*
X227992500Y-126935600D02*
G75*
G02*
X228144900Y-126935600I76200J0D01*
G01*
D14*
%TO.C,J5*%
X173360000Y-126630000D02*
X178640000Y-126630000D01*
X173360000Y-129370000D02*
X173360000Y-126630000D01*
X178640000Y-126630000D02*
X178640000Y-129370000D01*
X178640000Y-129370000D02*
X173360000Y-129370000D01*
X173900000Y-128900000D02*
G75*
G02*
X173700000Y-128900000I-100000J0D01*
G01*
X173700000Y-128900000D02*
G75*
G02*
X173900000Y-128900000I100000J0D01*
G01*
D13*
%TO.C,D1*%
X227140000Y-144600000D02*
X227140000Y-145400000D01*
X228500000Y-144600000D02*
X227140000Y-144600000D01*
X228500000Y-145400000D02*
X227140000Y-145400000D01*
D15*
%TO.C,SW4*%
X169476000Y-135218000D02*
X169476000Y-139282000D01*
X169476000Y-139282000D02*
X169905260Y-139282000D01*
X169905260Y-135218000D02*
X169476000Y-135218000D01*
X172094740Y-139282000D02*
X172524000Y-139282000D01*
X172524000Y-135218000D02*
X172094740Y-135218000D01*
X172524000Y-139282000D02*
X172524000Y-135218000D01*
X171076200Y-133681300D02*
G75*
G02*
X170923800Y-133681300I-76200J0D01*
G01*
X170923800Y-133681300D02*
G75*
G02*
X171076200Y-133681300I76200J0D01*
G01*
%TO.C,SW3*%
X163468000Y-131226000D02*
X163468000Y-131655260D01*
X163468000Y-133844740D02*
X163468000Y-134274000D01*
X163468000Y-134274000D02*
X167532000Y-134274000D01*
X167532000Y-131226000D02*
X163468000Y-131226000D01*
X167532000Y-131655260D02*
X167532000Y-131226000D01*
X167532000Y-134274000D02*
X167532000Y-133844740D01*
X162007500Y-132750000D02*
G75*
G02*
X161855100Y-132750000I-76200J0D01*
G01*
X161855100Y-132750000D02*
G75*
G02*
X162007500Y-132750000I76200J0D01*
G01*
D13*
%TO.C,R6*%
X208477500Y-137754724D02*
X208477500Y-137245276D01*
X209522500Y-137754724D02*
X209522500Y-137245276D01*
%TO.C,R5*%
X208477500Y-146754724D02*
X208477500Y-146245276D01*
X209522500Y-146754724D02*
X209522500Y-146245276D01*
%TO.C,R12*%
X159745276Y-132227500D02*
X160254724Y-132227500D01*
X159745276Y-133272500D02*
X160254724Y-133272500D01*
%TO.C,C2*%
X241615000Y-126646267D02*
X241615000Y-126353733D01*
X242635000Y-126646267D02*
X242635000Y-126353733D01*
%TO.C,D2*%
X225080000Y-144600000D02*
X226440000Y-144600000D01*
X225080000Y-145400000D02*
X226440000Y-145400000D01*
X226440000Y-145400000D02*
X226440000Y-144600000D01*
D16*
%TO.C,S1*%
X194200000Y-128000000D02*
X197800000Y-128000000D01*
X194200000Y-129180000D02*
X194200000Y-128000000D01*
X194200000Y-131680000D02*
X194200000Y-130820000D01*
X194200000Y-134180000D02*
X194200000Y-133320000D01*
X194200000Y-137000000D02*
X194200000Y-135820000D01*
X197800000Y-128000000D02*
X197800000Y-129180000D01*
X197800000Y-130820000D02*
X197800000Y-131680000D01*
X197800000Y-133320000D02*
X197800000Y-134180000D01*
X197800000Y-135820000D02*
X197800000Y-137000000D01*
X197800000Y-137000000D02*
X194200000Y-137000000D01*
D14*
X198600000Y-136000000D02*
G75*
G02*
X198400000Y-136000000I-100000J0D01*
G01*
X198400000Y-136000000D02*
G75*
G02*
X198600000Y-136000000I100000J0D01*
G01*
D13*
%TO.C,C7*%
X195353733Y-145077500D02*
X195646267Y-145077500D01*
X195353733Y-146097500D02*
X195646267Y-146097500D01*
%TO.C,C11*%
X181190027Y-139746266D02*
X181190027Y-139453732D01*
X182210027Y-139746266D02*
X182210027Y-139453732D01*
%TO.C,C4*%
X210490000Y-146353733D02*
X210490000Y-146646267D01*
X211510000Y-146353733D02*
X211510000Y-146646267D01*
%TO.C,C10*%
X179190027Y-139746266D02*
X179190027Y-139453732D01*
X180210027Y-139746266D02*
X180210027Y-139453732D01*
%TO.C,R11*%
X189745276Y-143075000D02*
X190254724Y-143075000D01*
X189745276Y-144120000D02*
X190254724Y-144120000D01*
D15*
%TO.C,U5*%
X179049027Y-142242499D02*
X179049027Y-147957499D01*
X179049027Y-147957499D02*
X182351027Y-147957499D01*
X182351027Y-142242499D02*
X179049027Y-142242499D01*
X182351027Y-147957499D02*
X182351027Y-142242499D01*
D13*
%TO.C,R17*%
X173477500Y-136995276D02*
X173477500Y-137504724D01*
X174522500Y-136995276D02*
X174522500Y-137504724D01*
D15*
%TO.C,SW7*%
X163468000Y-135726000D02*
X163468000Y-136155260D01*
X163468000Y-138344740D02*
X163468000Y-138774000D01*
X163468000Y-138774000D02*
X167532000Y-138774000D01*
X167532000Y-135726000D02*
X163468000Y-135726000D01*
X167532000Y-136155260D02*
X167532000Y-135726000D01*
X167532000Y-138774000D02*
X167532000Y-138344740D01*
X162007500Y-137250000D02*
G75*
G02*
X161855100Y-137250000I-76200J0D01*
G01*
X161855100Y-137250000D02*
G75*
G02*
X162007500Y-137250000I76200J0D01*
G01*
D16*
%TO.C,MT1*%
X194000000Y-140837500D02*
X194555000Y-140837500D01*
X194000000Y-140892500D02*
X194000000Y-140837500D01*
X194000000Y-143337500D02*
X194000000Y-143282500D01*
X194555000Y-143337500D02*
X194000000Y-143337500D01*
X196445000Y-140837500D02*
X197000000Y-140837500D01*
X197000000Y-140837500D02*
X197000000Y-140892500D01*
X197000000Y-143337500D02*
X196445000Y-143337500D01*
X197000000Y-143337500D02*
X197000000Y-143282500D01*
D14*
X193600000Y-141337500D02*
G75*
G02*
X193400000Y-141337500I-100000J0D01*
G01*
X193400000Y-141337500D02*
G75*
G02*
X193600000Y-141337500I100000J0D01*
G01*
D13*
%TO.C,C12*%
X187396267Y-127740000D02*
X187103733Y-127740000D01*
X187396267Y-128760000D02*
X187103733Y-128760000D01*
%TO.C,R1*%
X231867500Y-126734724D02*
X231867500Y-126225276D01*
X232912500Y-126734724D02*
X232912500Y-126225276D01*
%TO.C,R13*%
X170745276Y-132227500D02*
X171254724Y-132227500D01*
X170745276Y-133272500D02*
X171254724Y-133272500D01*
%TO.C,C13*%
X149490000Y-130196267D02*
X149490000Y-129903733D01*
X150510000Y-130196267D02*
X150510000Y-129903733D01*
%TO.C,C1*%
X238740000Y-126646267D02*
X238740000Y-126353733D01*
X239760000Y-126646267D02*
X239760000Y-126353733D01*
%TO.C,R9*%
X183177527Y-145345275D02*
X183177527Y-145854723D01*
X184222527Y-145345275D02*
X184222527Y-145854723D01*
%TO.C,D3*%
X202490000Y-142825000D02*
X202490000Y-144295000D01*
X202490000Y-144295000D02*
X204950000Y-144295000D01*
X204950000Y-142825000D02*
X202490000Y-142825000D01*
%TO.C,R14*%
X160254724Y-141227500D02*
X159745276Y-141227500D01*
X160254724Y-142272500D02*
X159745276Y-142272500D01*
D15*
%TO.C,SW1*%
X222468000Y-129866000D02*
X222468000Y-130295260D01*
X222468000Y-132484740D02*
X222468000Y-132914000D01*
X222468000Y-132914000D02*
X226532000Y-132914000D01*
X226532000Y-129866000D02*
X222468000Y-129866000D01*
X226532000Y-130295260D02*
X226532000Y-129866000D01*
X226532000Y-132914000D02*
X226532000Y-132484740D01*
X228144900Y-131390000D02*
G75*
G02*
X227992500Y-131390000I-76200J0D01*
G01*
X227992500Y-131390000D02*
G75*
G02*
X228144900Y-131390000I76200J0D01*
G01*
D13*
%TO.C,C6*%
X217353733Y-128990000D02*
X217646267Y-128990000D01*
X217353733Y-130010000D02*
X217646267Y-130010000D01*
%TO.C,J2*%
X140140000Y-141190000D02*
X151860000Y-141190000D01*
X140140000Y-145000000D02*
X140140000Y-141190000D01*
X140140000Y-145000000D02*
X140140000Y-148810000D01*
X140140000Y-148810000D02*
X151860000Y-148810000D01*
X140750000Y-143500000D02*
X140750000Y-144000000D01*
X140750000Y-144000000D02*
X146250000Y-144000000D01*
X140750000Y-146000000D02*
X140750000Y-146500000D01*
X140750000Y-146500000D02*
X146250000Y-146500000D01*
X146250000Y-143500000D02*
X140750000Y-143500000D01*
X146250000Y-144000000D02*
X146250000Y-143500000D01*
X146250000Y-146000000D02*
X140750000Y-146000000D01*
X146250000Y-146500000D02*
X146250000Y-146000000D01*
X149350000Y-143750000D02*
X149950000Y-143450000D01*
X149950000Y-143450000D02*
X149950000Y-144050000D01*
X149950000Y-144050000D02*
X149350000Y-143750000D01*
X151860000Y-141190000D02*
X151860000Y-142610000D01*
X151860000Y-142610000D02*
X147360000Y-142610000D01*
X151860000Y-147390000D02*
X147360000Y-147390000D01*
X151860000Y-148810000D02*
X151860000Y-147390000D01*
%TO.C,J3*%
X139950000Y-129100000D02*
X139950000Y-138900000D01*
X139950000Y-138900000D02*
X141690000Y-138900000D01*
X141690000Y-129100000D02*
X139950000Y-129100000D01*
X145750000Y-129100000D02*
X144410000Y-129100000D01*
X145750000Y-130590000D02*
X145750000Y-129100000D01*
X145750000Y-130590000D02*
X146950000Y-130590000D01*
X145750000Y-137410000D02*
X145750000Y-138900000D01*
X145750000Y-138900000D02*
X144410000Y-138900000D01*
%TO.C,R10*%
X189745276Y-140565000D02*
X190254724Y-140565000D01*
X189745276Y-141610000D02*
X190254724Y-141610000D01*
D16*
%TO.C,U4*%
X183735000Y-130000000D02*
X187265000Y-130000000D01*
X187265000Y-135000000D02*
X183735000Y-135000000D01*
D14*
X181410000Y-130225000D02*
G75*
G02*
X181210000Y-130225000I-100000J0D01*
G01*
X181210000Y-130225000D02*
G75*
G02*
X181410000Y-130225000I100000J0D01*
G01*
D13*
%TO.C,R8*%
X203832776Y-132977500D02*
X204342224Y-132977500D01*
X203832776Y-134022500D02*
X204342224Y-134022500D01*
%TO.C,C9*%
X199353733Y-143077500D02*
X199646267Y-143077500D01*
X199353733Y-144097500D02*
X199646267Y-144097500D01*
D16*
%TO.C,U1*%
X230000000Y-130500000D02*
X230000000Y-148500000D01*
X230000000Y-130500000D02*
X230130000Y-130500000D01*
X230000000Y-148500000D02*
X230130000Y-148500000D01*
X243670000Y-148500000D02*
X250000000Y-148500000D01*
X250000000Y-130500000D02*
X243670000Y-130500000D01*
X250000000Y-148500000D02*
X250000000Y-130500000D01*
D14*
X243000000Y-129000000D02*
G75*
G02*
X242800000Y-129000000I-100000J0D01*
G01*
X242800000Y-129000000D02*
G75*
G02*
X243000000Y-129000000I100000J0D01*
G01*
D13*
%TO.C,U3*%
X210000000Y-128890000D02*
X209200000Y-128890000D01*
X210000000Y-128890000D02*
X210800000Y-128890000D01*
X210000000Y-132010000D02*
X209200000Y-132010000D01*
X210000000Y-132010000D02*
X210800000Y-132010000D01*
X208700000Y-128940000D02*
X208460000Y-128610000D01*
X208940000Y-128610000D01*
X208700000Y-128940000D01*
G36*
X208700000Y-128940000D02*
G01*
X208460000Y-128610000D01*
X208940000Y-128610000D01*
X208700000Y-128940000D01*
G37*
%TO.C,R18*%
X149477500Y-138157776D02*
X149477500Y-138667224D01*
X150522500Y-138157776D02*
X150522500Y-138667224D01*
%TO.C,R3*%
X222245276Y-139977500D02*
X222754724Y-139977500D01*
X222245276Y-141022500D02*
X222754724Y-141022500D01*
%TO.C,J1*%
X214420000Y-146650000D02*
X214420000Y-148570000D01*
X214420000Y-152285000D02*
X214420000Y-150580000D01*
X223580000Y-148570000D02*
X223580000Y-146650000D01*
X223580000Y-150580000D02*
X223580000Y-152285000D01*
X223580000Y-152285000D02*
X214420000Y-152285000D01*
%TD*%
M02*
