M48
; DRILL file {KiCad 8.0.2} date 2024-11-22T23:26:10-0500
; FORMAT={-:-/ absolute / inch / decimal}
; #@! TF.CreationDate,2024-11-22T23:26:10-05:00
; #@! TF.GenerationSoftware,Kicad,Pcbnew,8.0.2
; #@! TF.FileFunction,Plated,1,2,PTH
FMAT,2
INCH
; #@! TA.AperFunction,Plated,PTH,ViaDrill
T1C0.0118
; #@! TA.AperFunction,Plated,PTH,ComponentDrill
T2C0.0118
; #@! TA.AperFunction,Plated,PTH,ComponentDrill
T3C0.0236
; #@! TA.AperFunction,Plated,PTH,ComponentDrill
T4C0.0394
; #@! TA.AperFunction,Plated,PTH,ComponentDrill
T5C0.0433
%
G90
G05
T1
X5.374Y-5.0689
X5.4035Y-5.7776
X5.4331Y-5.1772
X5.4724Y-5.1969
X5.5315Y-5.3543
X5.5341Y-5.2387
X5.5709Y-5.2657
X5.6333Y-5.2715
X5.6398Y-5.3543
X5.6843Y-5.2787
X5.8268Y-5.0886
X5.8268Y-5.2165
X5.8268Y-5.3051
X5.9646Y-5.2559
X5.9719Y-5.0197
X5.9941Y-5.1575
X5.9941Y-5.7874
X6.1206Y-5.7874
X6.122Y-5.0197
X6.122Y-5.2362
X6.122Y-5.3199
X6.122Y-5.4035
X6.122Y-5.4872
X6.122Y-5.5709
X6.2472Y-5.7874
X6.2697Y-5.3937
X6.2721Y-5.0197
X6.2992Y-5.2756
X6.3737Y-5.7874
X6.3878Y-5.4823
X6.3976Y-5.3248
X6.4222Y-5.0197
X6.5003Y-5.7874
X6.5157Y-5.2264
X6.5157Y-5.5906
X6.5256Y-5.4035
X6.5723Y-5.0197
X6.6142Y-5.128
X6.6268Y-5.7874
X6.6535Y-5.4035
X6.7323Y-5.4232
X6.7534Y-5.7874
X6.8799Y-5.7874
X6.9291Y-5.187
X6.9882Y-5.2854
X6.9882Y-5.4626
X6.9882Y-5.6004
X7.0374Y-5.128
X7.0669Y-5.315
X7.1102Y-5.1417
X7.1161Y-5.5807
X7.1161Y-5.8366
X7.1949Y-5.6102
X7.1949Y-5.7283
X7.2638Y-5.1772
X7.2638Y-5.2657
X7.2638Y-5.4626
X7.2835Y-5.0295
X7.2835Y-5.2165
X7.2835Y-5.8268
X7.3228Y-5.6299
X7.3819Y-5.7087
X7.4114Y-5.8071
X7.5086Y-5.2842
X7.5167Y-5.8828
X7.5197Y-5.7579
X7.5295Y-5.0394
X7.5298Y-5.1547
X7.5394Y-5.2165
X7.5787Y-5.3543
X7.5984Y-5.8071
X7.6083Y-5.4479
X7.6181Y-5.6791
X7.7264Y-5.0394
X7.7657Y-5.689
X7.7854Y-5.748
X7.815Y-5.6004
X7.8445Y-5.4626
X7.8937Y-5.3248
X7.8937Y-5.6004
X7.9606Y-5.4252
X7.9626Y-5.0394
X7.9626Y-5.1772
X8.0118Y-5.7283
X8.061Y-5.5217
X8.1299Y-5.3248
X8.1594Y-5.0295
X8.1594Y-5.4528
X8.1594Y-5.6398
X8.1594Y-5.7283
X8.2677Y-5.6988
X8.3563Y-5.5709
X8.376Y-5.0295
X8.3957Y-5.1575
X8.4154Y-5.3445
X8.4154Y-5.4528
X8.4843Y-5.6398
X8.4941Y-5.0157
X8.5236Y-5.6102
X8.5236Y-5.8169
X8.6024Y-5.1673
X8.6319Y-5.3445
X8.6713Y-5.0591
X8.6811Y-5.5413
X8.7008Y-5.6299
X8.7106Y-5.2953
X8.7106Y-5.8169
X8.7402Y-5.6496
X8.8091Y-5.6398
X8.9173Y-5.9252
X8.9272Y-5.4035
X8.9665Y-5.0591
X8.9961Y-5.1772
X9.0748Y-5.0197
X9.0846Y-5.2657
X9.0945Y-5.0689
X9.1496Y-5.6988
X9.1634Y-5.4232
X9.1732Y-5.5512
X9.2087Y-5.6988
X9.2126Y-5.0492
X9.2618Y-4.8917
X9.2618Y-5.0787
X9.3209Y-5.0689
X9.3307Y-5.2362
X9.3504Y-5.3543
X9.3799Y-5.0689
X9.4094Y-5.9252
X9.4193Y-5.561
X9.4291Y-5.0787
X9.4488Y-5.6201
X9.4685Y-4.9803
X9.5039Y-5.7352
X9.5276Y-5.315
X9.5276Y-5.4429
X9.5276Y-5.5709
X9.5276Y-5.9252
X9.563Y-5.7736
T2
X9.2756Y-5.5083
X9.2756Y-5.5516
X9.2972Y-5.4866
X9.2972Y-5.5299
X9.2972Y-5.5732
X9.3189Y-5.5083
X9.3189Y-5.5516
X9.3406Y-5.4866
X9.3406Y-5.5299
X9.3406Y-5.5732
X9.3622Y-5.5083
X9.3622Y-5.5516
T4
X5.8209Y-5.6594
X5.8209Y-5.7579
T5
X6.8791Y-5.0394
X6.9791Y-5.0394
X7.8831Y-5.8268
X7.9831Y-5.8268
T3
G00X8.452Y-5.7018
M15
G01X8.452Y-5.7451
M16
G05
G00X8.452Y-5.873
M15
G01X8.452Y-5.9045
M16
G05
G00X8.7921Y-5.7018
M15
G01X8.7921Y-5.7451
M16
G05
G00X8.7921Y-5.873
M15
G01X8.7921Y-5.9045
M16
G05
M30
