%TF.GenerationSoftware,KiCad,Pcbnew,8.0.2*%
%TF.CreationDate,2024-11-22T23:26:06-05:00*%
%TF.ProjectId,PCB_Ruler_V1_2024,5043425f-5275-46c6-9572-5f56315f3230,rev?*%
%TF.SameCoordinates,Original*%
%TF.FileFunction,Paste,Top*%
%TF.FilePolarity,Positive*%
%FSLAX46Y46*%
G04 Gerber Fmt 4.6, Leading zero omitted, Abs format (unit mm)*
G04 Created by KiCad (PCBNEW 8.0.2) date 2024-11-22 23:26:06*
%MOMM*%
%LPD*%
G01*
G04 APERTURE LIST*
G04 Aperture macros list*
%AMRoundRect*
0 Rectangle with rounded corners*
0 $1 Rounding radius*
0 $2 $3 $4 $5 $6 $7 $8 $9 X,Y pos of 4 corners*
0 Add a 4 corners polygon primitive as box body*
4,1,4,$2,$3,$4,$5,$6,$7,$8,$9,$2,$3,0*
0 Add four circle primitives for the rounded corners*
1,1,$1+$1,$2,$3*
1,1,$1+$1,$4,$5*
1,1,$1+$1,$6,$7*
1,1,$1+$1,$8,$9*
0 Add four rect primitives between the rounded corners*
20,1,$1+$1,$2,$3,$4,$5,0*
20,1,$1+$1,$4,$5,$6,$7,0*
20,1,$1+$1,$6,$7,$8,$9,0*
20,1,$1+$1,$8,$9,$2,$3,0*%
G04 Aperture macros list end*
%ADD10C,0.010000*%
%ADD11R,0.600000X1.050000*%
%ADD12RoundRect,0.237500X-0.237500X0.250000X-0.237500X-0.250000X0.237500X-0.250000X0.237500X0.250000X0*%
%ADD13RoundRect,0.237500X0.237500X-0.250000X0.237500X0.250000X-0.237500X0.250000X-0.237500X-0.250000X0*%
%ADD14RoundRect,0.237500X-0.250000X-0.237500X0.250000X-0.237500X0.250000X0.237500X-0.250000X0.237500X0*%
%ADD15R,0.508000X1.524000*%
%ADD16RoundRect,0.237500X0.237500X-0.300000X0.237500X0.300000X-0.237500X0.300000X-0.237500X-0.300000X0*%
%ADD17RoundRect,0.237500X-0.300000X-0.237500X0.300000X-0.237500X0.300000X0.237500X-0.300000X0.237500X0*%
%ADD18R,1.524000X0.508000*%
%ADD19RoundRect,0.237500X0.250000X0.237500X-0.250000X0.237500X-0.250000X-0.237500X0.250000X-0.237500X0*%
%ADD20RoundRect,0.062500X0.117500X0.062500X-0.117500X0.062500X-0.117500X-0.062500X0.117500X-0.062500X0*%
%ADD21RoundRect,0.062500X-0.117500X-0.062500X0.117500X-0.062500X0.117500X0.062500X-0.117500X0.062500X0*%
%ADD22R,1.600000X1.000000*%
%ADD23RoundRect,0.237500X-0.237500X0.300000X-0.237500X-0.300000X0.237500X-0.300000X0.237500X0.300000X0*%
%ADD24R,0.508000X0.508000*%
%ADD25RoundRect,0.237500X0.300000X0.237500X-0.300000X0.237500X-0.300000X-0.237500X0.300000X-0.237500X0*%
%ADD26RoundRect,0.237500X-0.287500X-0.237500X0.287500X-0.237500X0.287500X0.237500X-0.287500X0.237500X0*%
%ADD27R,1.300000X0.300000*%
%ADD28R,2.200000X1.800000*%
%ADD29RoundRect,0.051250X-0.733750X-0.153750X0.733750X-0.153750X0.733750X0.153750X-0.733750X0.153750X0*%
%ADD30R,0.900000X1.500000*%
%ADD31R,0.700000X0.700000*%
%ADD32RoundRect,0.150000X-0.512500X-0.150000X0.512500X-0.150000X0.512500X0.150000X-0.512500X0.150000X0*%
%ADD33R,0.600000X1.240000*%
%ADD34R,0.300000X1.240000*%
G04 APERTURE END LIST*
D10*
%TO.C,MT1*%
X194562500Y-141456500D02*
X194112500Y-141456500D01*
X194112500Y-141218500D01*
X194562500Y-141218500D01*
X194562500Y-141456500D01*
G36*
X194562500Y-141456500D02*
G01*
X194112500Y-141456500D01*
X194112500Y-141218500D01*
X194562500Y-141218500D01*
X194562500Y-141456500D01*
G37*
X194562500Y-141956500D02*
X194112500Y-141956500D01*
X194112500Y-141718500D01*
X194562500Y-141718500D01*
X194562500Y-141956500D01*
G36*
X194562500Y-141956500D02*
G01*
X194112500Y-141956500D01*
X194112500Y-141718500D01*
X194562500Y-141718500D01*
X194562500Y-141956500D01*
G37*
X194562500Y-142456500D02*
X194112500Y-142456500D01*
X194112500Y-142218500D01*
X194562500Y-142218500D01*
X194562500Y-142456500D01*
G36*
X194562500Y-142456500D02*
G01*
X194112500Y-142456500D01*
X194112500Y-142218500D01*
X194562500Y-142218500D01*
X194562500Y-142456500D01*
G37*
X194562500Y-142956500D02*
X194112500Y-142956500D01*
X194112500Y-142718500D01*
X194562500Y-142718500D01*
X194562500Y-142956500D01*
G36*
X194562500Y-142956500D02*
G01*
X194112500Y-142956500D01*
X194112500Y-142718500D01*
X194562500Y-142718500D01*
X194562500Y-142956500D01*
G37*
X195119000Y-141400000D02*
X194881000Y-141400000D01*
X194881000Y-140950000D01*
X195119000Y-140950000D01*
X195119000Y-141400000D01*
G36*
X195119000Y-141400000D02*
G01*
X194881000Y-141400000D01*
X194881000Y-140950000D01*
X195119000Y-140950000D01*
X195119000Y-141400000D01*
G37*
X195119000Y-143225000D02*
X194881000Y-143225000D01*
X194881000Y-142775000D01*
X195119000Y-142775000D01*
X195119000Y-143225000D01*
G36*
X195119000Y-143225000D02*
G01*
X194881000Y-143225000D01*
X194881000Y-142775000D01*
X195119000Y-142775000D01*
X195119000Y-143225000D01*
G37*
X195619000Y-141400000D02*
X195381000Y-141400000D01*
X195381000Y-140950000D01*
X195619000Y-140950000D01*
X195619000Y-141400000D01*
G36*
X195619000Y-141400000D02*
G01*
X195381000Y-141400000D01*
X195381000Y-140950000D01*
X195619000Y-140950000D01*
X195619000Y-141400000D01*
G37*
X195619000Y-143225000D02*
X195381000Y-143225000D01*
X195381000Y-142775000D01*
X195619000Y-142775000D01*
X195619000Y-143225000D01*
G36*
X195619000Y-143225000D02*
G01*
X195381000Y-143225000D01*
X195381000Y-142775000D01*
X195619000Y-142775000D01*
X195619000Y-143225000D01*
G37*
X196119000Y-141400000D02*
X195881000Y-141400000D01*
X195881000Y-140950000D01*
X196119000Y-140950000D01*
X196119000Y-141400000D01*
G36*
X196119000Y-141400000D02*
G01*
X195881000Y-141400000D01*
X195881000Y-140950000D01*
X196119000Y-140950000D01*
X196119000Y-141400000D01*
G37*
X196119000Y-143225000D02*
X195881000Y-143225000D01*
X195881000Y-142775000D01*
X196119000Y-142775000D01*
X196119000Y-143225000D01*
G36*
X196119000Y-143225000D02*
G01*
X195881000Y-143225000D01*
X195881000Y-142775000D01*
X196119000Y-142775000D01*
X196119000Y-143225000D01*
G37*
X196887500Y-141456500D02*
X196437500Y-141456500D01*
X196437500Y-141218500D01*
X196887500Y-141218500D01*
X196887500Y-141456500D01*
G36*
X196887500Y-141456500D02*
G01*
X196437500Y-141456500D01*
X196437500Y-141218500D01*
X196887500Y-141218500D01*
X196887500Y-141456500D01*
G37*
X196887500Y-141956500D02*
X196437500Y-141956500D01*
X196437500Y-141718500D01*
X196887500Y-141718500D01*
X196887500Y-141956500D01*
G36*
X196887500Y-141956500D02*
G01*
X196437500Y-141956500D01*
X196437500Y-141718500D01*
X196887500Y-141718500D01*
X196887500Y-141956500D01*
G37*
X196887500Y-142456500D02*
X196437500Y-142456500D01*
X196437500Y-142218500D01*
X196887500Y-142218500D01*
X196887500Y-142456500D01*
G36*
X196887500Y-142456500D02*
G01*
X196437500Y-142456500D01*
X196437500Y-142218500D01*
X196887500Y-142218500D01*
X196887500Y-142456500D01*
G37*
X196887500Y-142956500D02*
X196437500Y-142956500D01*
X196437500Y-142718500D01*
X196887500Y-142718500D01*
X196887500Y-142956500D01*
G36*
X196887500Y-142956500D02*
G01*
X196437500Y-142956500D01*
X196437500Y-142718500D01*
X196887500Y-142718500D01*
X196887500Y-142956500D01*
G37*
%TD*%
D11*
%TO.C,U2*%
X209050000Y-143350000D03*
X210000000Y-143350000D03*
X210950000Y-143350000D03*
X210950000Y-140650000D03*
X209050000Y-140650000D03*
%TD*%
D12*
%TO.C,R15*%
X150000000Y-133500000D03*
X150000000Y-135325000D03*
%TD*%
D13*
%TO.C,R2*%
X236750000Y-127412500D03*
X236750000Y-125587500D03*
%TD*%
D14*
%TO.C,R7*%
X203175000Y-136000000D03*
X205000000Y-136000000D03*
%TD*%
D15*
%TO.C,SW6*%
X167659000Y-141890000D03*
X163341000Y-141890000D03*
%TD*%
D16*
%TO.C,C5*%
X204125000Y-129412500D03*
X204125000Y-127687500D03*
%TD*%
%TO.C,C3*%
X211000000Y-138362500D03*
X211000000Y-136637500D03*
%TD*%
D17*
%TO.C,C8*%
X198637500Y-141087500D03*
X200362500Y-141087500D03*
%TD*%
D18*
%TO.C,SW5*%
X160000000Y-139409000D03*
X160000000Y-135091000D03*
%TD*%
D14*
%TO.C,R4*%
X221587500Y-137000000D03*
X223412500Y-137000000D03*
%TD*%
D19*
%TO.C,R16*%
X171912500Y-141750000D03*
X170087500Y-141750000D03*
%TD*%
D15*
%TO.C,SW2*%
X226659000Y-126935600D03*
X222341000Y-126935600D03*
%TD*%
D20*
%TO.C,D1*%
X227580000Y-145000000D03*
X228420000Y-145000000D03*
%TD*%
D18*
%TO.C,SW4*%
X171000000Y-135091000D03*
X171000000Y-139409000D03*
%TD*%
D15*
%TO.C,SW3*%
X163341000Y-132750000D03*
X167659000Y-132750000D03*
%TD*%
D13*
%TO.C,R6*%
X209000000Y-138412500D03*
X209000000Y-136587500D03*
%TD*%
%TO.C,R5*%
X209000000Y-147412500D03*
X209000000Y-145587500D03*
%TD*%
D14*
%TO.C,R12*%
X159087500Y-132750000D03*
X160912500Y-132750000D03*
%TD*%
D16*
%TO.C,C2*%
X242125000Y-127362500D03*
X242125000Y-125637500D03*
%TD*%
D21*
%TO.C,D2*%
X226000000Y-145000000D03*
X225160000Y-145000000D03*
%TD*%
D22*
%TO.C,S1*%
X197200000Y-135000000D03*
X197200000Y-132500000D03*
X197200000Y-130000000D03*
X194800000Y-135000000D03*
X194800000Y-132500000D03*
X194800000Y-130000000D03*
%TD*%
D17*
%TO.C,C7*%
X194637500Y-145587500D03*
X196362500Y-145587500D03*
%TD*%
D16*
%TO.C,C11*%
X181700027Y-140462499D03*
X181700027Y-138737499D03*
%TD*%
D23*
%TO.C,C4*%
X211000000Y-145637500D03*
X211000000Y-147362500D03*
%TD*%
D16*
%TO.C,C10*%
X179700027Y-140462499D03*
X179700027Y-138737499D03*
%TD*%
D14*
%TO.C,R11*%
X189087500Y-143597500D03*
X190912500Y-143597500D03*
%TD*%
D24*
%TO.C,U5*%
X181500000Y-143500000D03*
X181500000Y-144299998D03*
X181500000Y-145099999D03*
X181500000Y-145900000D03*
X181500000Y-146699998D03*
X180700027Y-146699945D03*
X179900054Y-146699998D03*
X179900054Y-145900000D03*
X179900054Y-145099999D03*
X179900054Y-144299998D03*
X179900054Y-143500000D03*
X180700027Y-143500053D03*
%TD*%
D12*
%TO.C,R17*%
X174000000Y-136337500D03*
X174000000Y-138162500D03*
%TD*%
D15*
%TO.C,SW7*%
X163341000Y-137250000D03*
X167659000Y-137250000D03*
%TD*%
D25*
%TO.C,C12*%
X188112500Y-128250000D03*
X186387500Y-128250000D03*
%TD*%
D13*
%TO.C,R1*%
X232390000Y-127392500D03*
X232390000Y-125567500D03*
%TD*%
D14*
%TO.C,R13*%
X170087500Y-132750000D03*
X171912500Y-132750000D03*
%TD*%
D16*
%TO.C,C13*%
X150000000Y-130912500D03*
X150000000Y-129187500D03*
%TD*%
%TO.C,C1*%
X239250000Y-127362500D03*
X239250000Y-125637500D03*
%TD*%
D12*
%TO.C,R9*%
X183700027Y-144687499D03*
X183700027Y-146512499D03*
%TD*%
D26*
%TO.C,D3*%
X203275000Y-143560000D03*
X205025000Y-143560000D03*
%TD*%
D19*
%TO.C,R14*%
X160912500Y-141750000D03*
X159087500Y-141750000D03*
%TD*%
D15*
%TO.C,SW1*%
X226659000Y-131390000D03*
X222341000Y-131390000D03*
%TD*%
D17*
%TO.C,C6*%
X216637500Y-129500000D03*
X218362500Y-129500000D03*
%TD*%
D27*
%TO.C,J3*%
X146300000Y-131000000D03*
X146300000Y-131500000D03*
X146300000Y-132000000D03*
X146300000Y-132500000D03*
X146300000Y-133000000D03*
X146300000Y-133500000D03*
X146300000Y-134000000D03*
X146300000Y-134500000D03*
X146300000Y-135000000D03*
X146300000Y-135500000D03*
X146300000Y-136000000D03*
X146300000Y-136500000D03*
X146300000Y-137000000D03*
D28*
X143050000Y-129100000D03*
X143050000Y-138900000D03*
%TD*%
D14*
%TO.C,R10*%
X189087500Y-141087500D03*
X190912500Y-141087500D03*
%TD*%
D29*
%TO.C,U4*%
X182630000Y-130225000D03*
X182630000Y-130875000D03*
X182630000Y-131525000D03*
X182630000Y-132175000D03*
X182630000Y-132825000D03*
X182630000Y-133475000D03*
X182630000Y-134125000D03*
X182630000Y-134775000D03*
X188370000Y-134775000D03*
X188370000Y-134125000D03*
X188370000Y-133475000D03*
X188370000Y-132825000D03*
X188370000Y-132175000D03*
X188370000Y-131525000D03*
X188370000Y-130875000D03*
X188370000Y-130225000D03*
%TD*%
D14*
%TO.C,R8*%
X203175000Y-133500000D03*
X205000000Y-133500000D03*
%TD*%
D17*
%TO.C,C9*%
X198637500Y-143587500D03*
X200362500Y-143587500D03*
%TD*%
D30*
%TO.C,U1*%
X242900000Y-130750000D03*
X241400000Y-130750000D03*
X239900000Y-130750000D03*
X238400000Y-130750000D03*
X236900000Y-130750000D03*
X235400000Y-130750000D03*
X233900000Y-130750000D03*
X232400000Y-130750000D03*
X230900000Y-130750000D03*
X230900000Y-148250000D03*
X232400000Y-148250000D03*
X233900000Y-148250000D03*
X235400000Y-148250000D03*
X236900000Y-148250000D03*
X238400000Y-148250000D03*
X239900000Y-148250000D03*
X241400000Y-148250000D03*
X242900000Y-148250000D03*
D31*
X237800000Y-139360000D03*
X237800000Y-140460000D03*
X237800000Y-141560000D03*
X236700000Y-139360000D03*
X236700000Y-140460000D03*
X236700000Y-141560000D03*
X235600000Y-139360000D03*
X235600000Y-140460000D03*
X235600000Y-141560000D03*
%TD*%
D32*
%TO.C,U3*%
X208862500Y-129500000D03*
X208862500Y-130450000D03*
X208862500Y-131400000D03*
X211137500Y-131400000D03*
X211137500Y-129500000D03*
%TD*%
D12*
%TO.C,R18*%
X150000000Y-137500000D03*
X150000000Y-139325000D03*
%TD*%
D14*
%TO.C,R3*%
X221587500Y-140500000D03*
X223412500Y-140500000D03*
%TD*%
D33*
%TO.C,J1*%
X215800000Y-144775000D03*
X216600000Y-144775000D03*
D34*
X217750000Y-144775000D03*
X218750000Y-144775000D03*
X219250000Y-144775000D03*
X220250000Y-144775000D03*
D33*
X221400000Y-144775000D03*
X222200000Y-144775000D03*
X222200000Y-144775000D03*
X221400000Y-144775000D03*
D34*
X220750000Y-144775000D03*
X219750000Y-144775000D03*
X218250000Y-144775000D03*
X217250000Y-144775000D03*
D33*
X216600000Y-144775000D03*
X215800000Y-144775000D03*
%TD*%
M02*
